<svg xmlns="http://www.w3.org/2000/svg" width="499" height="281.001" viewBox="0 0 499 281.001">
  <g id="Group_1236" data-name="Group 1236" transform="translate(-9180 -6093)">
    <g id="Group_1219" data-name="Group 1219" transform="translate(7020 -2247)">
      <path id="Subtraction_4" data-name="Subtraction 4" d="M277.674,281H194.322a66.787,66.787,0,0,0,.679-9.5,65.654,65.654,0,0,0-5.265-25.885,66.357,66.357,0,0,0-6.178-11.3,67.23,67.23,0,0,0-111.115,0,66.356,66.356,0,0,0-6.178,11.3A65.654,65.654,0,0,0,61,271.5a66.888,66.888,0,0,0,.679,9.5H20A19.982,19.982,0,0,1,0,261V126a19.982,19.982,0,0,1,20-20H74V20A19.982,19.982,0,0,1,94,0H361a19.982,19.982,0,0,1,20,20v86h98a19.982,19.982,0,0,1,20,20V261a19.982,19.982,0,0,1-20,20H409.327a67.324,67.324,0,0,0,.673-9.5,66.2,66.2,0,0,0-11.357-37.181,66.688,66.688,0,0,0-29.258-24.093,66.416,66.416,0,0,0-63.066,6.131,66.688,66.688,0,0,0-24.093,29.258A66.08,66.08,0,0,0,277,271.5a67.484,67.484,0,0,0,.673,9.5ZM239,21a11,11,0,0,0-11,11v71a11,11,0,0,0,11,11H346a11,11,0,0,0,11-11V32a11,11,0,0,0-11-11ZM125,21a11,11,0,0,0-11,11v71a11,11,0,0,0,11,11h59a11,11,0,0,0,11-11V32a11,11,0,0,0-11-11Z" transform="translate(2160 8340)" fill="#94fcf8"/>
      <rect id="Rectangle_34" data-name="Rectangle 34" width="32" height="21" transform="translate(2627 8571)" fill="#ffd3a7"/>
      <rect id="Rectangle_36" data-name="Rectangle 36" width="32" height="23" transform="translate(2627 8556)" fill="#cbbeb1"/>
      <rect id="Rectangle_37" data-name="Rectangle 37" width="32" height="21" transform="translate(2160 8569)" fill="#ffd3a7"/>
      <rect id="Rectangle_38" data-name="Rectangle 38" width="32" height="23" transform="translate(2160 8554)" fill="#cbbeb1"/>
    </g>
  </g>
</svg>
