<svg xmlns="http://www.w3.org/2000/svg" width="231" height="90" viewBox="0 0 231 90">
  <g id="Group_1228" data-name="Group 1228" transform="translate(-8675 -5536)">
    <g id="Group_30" data-name="Group 30" transform="translate(8612 5380)">
      <path id="Path_309" data-name="Path 309" d="M44.5,0C69.077,0,89,20.147,89,45S69.077,90,44.5,90,0,69.853,0,45,19.923,0,44.5,0Z" transform="translate(63 156)" fill="#94fcf8"/>
      <ellipse id="Ellipse_13" data-name="Ellipse 13" cx="29.5" cy="30" rx="29.5" ry="30" transform="translate(78 171)" fill="#ddd"/>
      <ellipse id="Ellipse_14" data-name="Ellipse 14" cx="21.5" cy="22" rx="21.5" ry="22" transform="translate(86 179)" fill="#b5b4b4"/>
      <circle id="Ellipse_15" data-name="Ellipse 15" cx="4" cy="4" r="4" transform="translate(103 186)" fill="#fff"/>
      <circle id="Ellipse_16" data-name="Ellipse 16" cx="4" cy="4" r="4" transform="translate(97 206)" fill="#fff"/>
      <circle id="Ellipse_17" data-name="Ellipse 17" cx="4" cy="4" r="4" transform="translate(110 206)" fill="#fff"/>
      <ellipse id="Ellipse_18" data-name="Ellipse 18" cx="4.5" cy="4" rx="4.5" ry="4" transform="translate(92 194)" fill="#fff"/>
      <ellipse id="Ellipse_19" data-name="Ellipse 19" cx="4.5" cy="4" rx="4.5" ry="4" transform="translate(115 194)" fill="#fff"/>
    </g>
    <g id="Group_1211" data-name="Group 1211" transform="translate(8754 5380)">
      <path id="Path_309-2" data-name="Path 309" d="M44.5,0C69.077,0,89,20.147,89,45S69.077,90,44.5,90,0,69.853,0,45,19.923,0,44.5,0Z" transform="translate(63 156)" fill="#94fcf8"/>
      <ellipse id="Ellipse_13-2" data-name="Ellipse 13" cx="29.5" cy="30" rx="29.5" ry="30" transform="translate(78 171)" fill="#ddd"/>
      <ellipse id="Ellipse_14-2" data-name="Ellipse 14" cx="21.5" cy="22" rx="21.5" ry="22" transform="translate(86 179)" fill="#b5b4b4"/>
      <circle id="Ellipse_15-2" data-name="Ellipse 15" cx="4" cy="4" r="4" transform="translate(103 186)" fill="#fff"/>
      <circle id="Ellipse_16-2" data-name="Ellipse 16" cx="4" cy="4" r="4" transform="translate(97 206)" fill="#fff"/>
      <circle id="Ellipse_17-2" data-name="Ellipse 17" cx="4" cy="4" r="4" transform="translate(110 206)" fill="#fff"/>
      <ellipse id="Ellipse_18-2" data-name="Ellipse 18" cx="4.5" cy="4" rx="4.5" ry="4" transform="translate(92 194)" fill="#fff"/>
      <ellipse id="Ellipse_19-2" data-name="Ellipse 19" cx="4.5" cy="4" rx="4.5" ry="4" transform="translate(115 194)" fill="#fff"/>
    </g>
  </g>
</svg>
