<svg xmlns="http://www.w3.org/2000/svg" width="1076.362" height="433.368" viewBox="0 0 1076.362 433.368">
  <g id="Group_1164" data-name="Group 1164" transform="translate(-13793.438 -8365)">
    <g id="Group_1158" data-name="Group 1158" transform="translate(13793.438 8365)">
      <g id="Group_98" data-name="Group 98" transform="translate(0 0)">
        <g id="panda" transform="translate(6.635)">
          <path id="Path_168" data-name="Path 168" d="M363.609,74.644c14.585-26.364,40.978-44.078,65.677-44.078,18.418,0,37.13,9.739,51.335,26.72,13.434,16.058,21.138,36.119,21.138,55.037,0,23.309-13.741,45.268-36.757,58.74a7.5,7.5,0,0,1-10.222-2.618c-21.54-35.961-51.99-64.837-88.057-83.511a7.5,7.5,0,0,1-3.115-10.29Z" transform="translate(-55.352 -30.566)" fill="#525256"/>
          <ellipse id="Ellipse_56" data-name="Ellipse 56" cx="39" cy="33.5" rx="39" ry="33.5" transform="translate(317.927 35)" fill="#353535"/>
          <path id="Path_166" data-name="Path 166" d="M140.557,74.644C125.973,48.28,99.58,30.566,74.88,30.566c-18.418,0-37.13,9.739-51.335,26.72C10.111,73.343,2.407,93.4,2.407,112.323c0,23.309,13.741,45.268,36.757,58.74a7.5,7.5,0,0,0,10.222-2.618c21.54-35.961,51.99-64.837,88.057-83.511a7.5,7.5,0,0,0,3.115-10.29Z" transform="translate(-2.407 -30.566)" fill="#525256"/>
          <g id="Group_92" data-name="Group 92" transform="translate(385.484 10.581)">
            <path id="Path_169" data-name="Path 169" d="M441.437,147.491c23.016-13.472,36.757-35.431,36.757-58.74,0-16.1-5.6-33.019-15.54-47.6a82.377,82.377,0,0,1,17.975,16.139c13.434,16.058,21.138,36.119,21.138,55.037,0,23.309-13.741,45.268-36.756,58.74a7.5,7.5,0,0,1-10.222-2.618,231.027,231.027,0,0,0-13.944-20.659C441.043,147.692,441.244,147.6,441.437,147.491Z" transform="translate(-440.843 -41.148)" fill="#454549"/>
          </g>
          <path id="Path_175" data-name="Path 175" d="M289.135,277.708a56.543,56.543,0,0,1-74.1,0,16.967,16.967,0,0,0-3.737,11.207c0,7.746,6.346,15.6,19.973,24.715a171.463,171.463,0,0,0,17.5,10.157,7.493,7.493,0,0,0,6.625,0,171.38,171.38,0,0,0,17.5-10.158c13.626-9.114,19.972-16.967,19.972-24.714A16.978,16.978,0,0,0,289.135,277.708Z" transform="translate(-29.034 -45.473)" fill="#454549"/>
          <g id="Group_91" data-name="Group 91" transform="translate(0 10.581)">
            <path id="Path_167" data-name="Path 167" d="M62.736,147.491C39.721,134.019,25.98,112.06,25.98,88.751c0-16.1,5.6-33.019,15.54-47.6A82.379,82.379,0,0,0,23.545,57.287C10.111,73.344,2.407,93.405,2.407,112.324c0,23.309,13.741,45.268,36.757,58.74a7.5,7.5,0,0,0,10.222-2.618A230.975,230.975,0,0,1,63.33,147.787C63.131,147.692,62.93,147.6,62.736,147.491Z" transform="translate(-2.407 -41.148)" fill="#454549"/>
          </g>
          <ellipse id="Ellipse_55" data-name="Ellipse 55" cx="38.5" cy="37" rx="38.5" ry="37" transform="translate(40.927 28)" fill="#353535"/>
        </g>
        <g id="Group_96" data-name="Group 96" transform="translate(0 26.076)">
          <path id="Path_183" data-name="Path 183" d="M404.067,120.965C374.2,85.912,320.033,44.147,231.46,43.9h-.914C141.974,44.147,87.8,85.912,57.94,120.965,21.118,164.183,0,222.079,0,279.807c0,52.781,23.8,96.978,68.826,127.813,40.859,27.982,98.276,43.442,161.743,43.566h.87c63.467-.124,120.883-15.584,161.743-43.566,45.026-30.835,68.825-75.032,68.825-127.813C462.006,222.079,440.888,164.183,404.067,120.965Z" transform="translate(0 -43.897)" fill="#e0e0e0"/>
          <path id="Path_184" data-name="Path 184" d="M393.181,388.243c-40.859,28.7-98.276,44.566-161.743,44.693h-.87c-63.467-.127-120.883-15.988-161.743-44.693C28.181,359.689,4.84,319.963.681,272.674Q.016,281.816,0,290.987c0,54.147,23.8,99.487,68.826,131.12,40.859,28.706,98.276,44.566,161.743,44.693h.87c63.467-.127,120.883-15.987,161.743-44.693,45.026-31.633,68.825-76.973,68.825-131.12q0-9.163-.681-18.313C457.167,319.963,433.825,359.689,393.181,388.243Z" transform="translate(0 -59.511)" fill="#c4c4c4"/>
        </g>
        <g id="panda-2" data-name="panda" transform="translate(100.306 126.046)">
          <g id="Group_97" data-name="Group 97" transform="translate(0 0)">
            <path id="Path_174" data-name="Path 174" d="M252.086,268.243c-14.254,0-40.785,0-40.785,20.671,0,7.747,6.346,15.6,19.973,24.715a171.5,171.5,0,0,0,17.5,10.157,7.493,7.493,0,0,0,6.625,0,171.42,171.42,0,0,0,17.5-10.158c13.626-9.114,19.972-16.967,19.972-24.714C292.87,268.243,266.34,268.243,252.086,268.243Z" transform="translate(-122.705 -171.301)" fill="#525256"/>
            <g id="Group_94" data-name="Group 94">
              <path id="Path_172" data-name="Path 172" d="M166.3,188.73c-7.064-8.777-18.274-13.811-30.754-13.811a55.627,55.627,0,0,0-34.991,12.4c-11.316,9.2-18.826,22.8-21.718,39.325-2.72,15.543.287,29.894,8.25,39.371,6.423,7.645,15.425,11.686,26.034,11.686,11.658,0,25.121-5.983,36.938-16.417s20.225-23.833,23.051-36.749C176.138,210.668,173.719,197.953,166.3,188.73Z" transform="translate(-77.853 -174.919)" fill="#525256"/>
              <path id="Path_177" data-name="Path 177" d="M150.054,247.534c-11.817,10.433-25.28,16.417-36.938,16.417-10.609,0-19.611-4.041-26.033-11.685a39.042,39.042,0,0,1-7.9-16.434c-.119.6-.245,1.2-.351,1.8-2.72,15.543.287,29.893,8.25,39.371,6.423,7.645,15.425,11.685,26.033,11.685,11.658,0,25.121-5.983,36.938-16.417s20.225-23.833,23.051-36.749a47.265,47.265,0,0,0-.363-23.26C169.618,224.719,161.427,237.494,150.054,247.534Z" transform="translate(-77.853 -185.912)" fill="#454549"/>
            </g>
            <g id="Group_95" data-name="Group 95" transform="translate(171.841 0)">
              <path id="Path_176" data-name="Path 176" d="M380.384,226.642c-2.893-16.529-10.4-30.127-21.719-39.325a55.627,55.627,0,0,0-34.99-12.4c-12.48,0-23.689,5.034-30.754,13.811-7.424,9.223-9.841,21.938-6.809,35.8,2.825,12.916,11.227,26.311,23.051,36.749S334.443,277.7,346.1,277.7c10.608,0,19.611-4.04,26.034-11.685C380.1,256.536,383.1,242.186,380.384,226.642Z" transform="translate(-284.837 -174.919)" fill="#525256"/>
              <path id="Path_178" data-name="Path 178" d="M380.035,235.83a39.051,39.051,0,0,1-7.9,16.435c-6.423,7.644-15.425,11.685-26.034,11.685-11.657,0-25.121-5.983-36.939-16.417-11.372-10.04-19.564-22.814-22.687-35.268a47.255,47.255,0,0,0-.363,23.26c2.826,12.916,11.227,26.311,23.051,36.749s25.28,16.417,36.938,16.417c10.608,0,19.61-4.04,26.033-11.685,7.963-9.478,10.97-23.828,8.25-39.372C380.279,237.027,380.154,236.431,380.035,235.83Z" transform="translate(-284.839 -185.912)" fill="#454549"/>
            </g>
            <path id="Path_181" data-name="Path 181" d="M5.039,0A5.039,5.039,0,0,0,0,5.043V15.813a5.041,5.041,0,1,0,10.082,0V5.043A5.041,5.041,0,0,0,5.039,0Zm0,0" transform="translate(56.829 18.492) rotate(11)" fill="#fff"/>
            <path id="Path_182" data-name="Path 182" d="M5.041,0A5.041,5.041,0,0,0,0,5.043v10.77a5.042,5.042,0,0,0,10.084,0V5.043A5.041,5.041,0,0,0,5.041,0Zm0,0" transform="matrix(0.978, -0.208, 0.208, 0.978, 197.973, 22.59)" fill="#fff"/>
          </g>
        </g>
      </g>
      <path id="Path_120" data-name="Path 120" d="M48.133,112.958h60.255" transform="translate(152.527 205.233)" fill="none" stroke="#707070" stroke-linecap="round" stroke-width="2"/>
      <path id="Path_327" data-name="Path 327" d="M48.133,112.958h60.255" transform="translate(152.527 205.233)" fill="none" stroke="#707070" stroke-linecap="round" stroke-width="2"/>
    </g>
    <g id="Group_1159" data-name="Group 1159" transform="translate(14155.079 8519.871)">
      <g id="panda-3" data-name="panda" transform="translate(4.264)">
        <path id="Path_168-2" data-name="Path 168" d="M363.274,58.892c9.373-16.942,26.334-28.326,42.206-28.326,11.836,0,23.861,6.259,32.99,17.171,8.633,10.319,13.584,23.211,13.584,35.369,0,14.979-8.83,29.091-23.621,37.748a4.818,4.818,0,0,1-6.569-1.682A142.677,142.677,0,0,0,365.276,65.5a4.82,4.82,0,0,1-2-6.613Z" transform="translate(-165.177 -30.566)" fill="#525256"/>
        <ellipse id="Ellipse_56-2" data-name="Ellipse 56" cx="24.5" cy="22.5" rx="24.5" ry="22.5" transform="translate(204.657 21.129)" fill="#353535"/>
        <path id="Path_166-2" data-name="Path 166" d="M91.187,58.892C81.815,41.95,64.854,30.566,48.981,30.566c-11.836,0-23.861,6.259-32.99,17.171C7.358,58.056,2.407,70.948,2.407,83.106c0,14.979,8.83,29.091,23.621,37.748a4.819,4.819,0,0,0,6.569-1.682A142.677,142.677,0,0,1,89.186,65.5a4.82,4.82,0,0,0,2-6.613Z" transform="translate(-2.407 -30.566)" fill="#525256"/>
        <g id="Group_92-2" data-name="Group 92" transform="translate(247.726 6.8)">
          <path id="Path_169-2" data-name="Path 169" d="M441.224,109.488c14.791-8.657,23.621-22.769,23.621-37.748,0-10.347-3.6-21.219-9.987-30.591A52.938,52.938,0,0,1,466.41,51.519c8.633,10.319,13.584,23.211,13.584,35.369,0,14.979-8.83,29.091-23.621,37.748a4.818,4.818,0,0,1-6.569-1.682,148.483,148.483,0,0,0-8.961-13.276C440.971,109.617,441.1,109.56,441.224,109.488Z" transform="translate(-440.843 -41.148)" fill="#454549"/>
        </g>
        <path id="Path_175-2" data-name="Path 175" d="M261.32,277.708a36.336,36.336,0,0,1-47.617,0,10.9,10.9,0,0,0-2.4,7.2c0,4.978,4.078,10.025,12.836,15.882a110.209,110.209,0,0,0,11.246,6.527,4.816,4.816,0,0,0,4.258,0,110.144,110.144,0,0,0,11.246-6.528c8.756-5.857,12.835-10.9,12.835-15.882A10.911,10.911,0,0,0,261.32,277.708Z" transform="translate(-94.17 -128.465)" fill="#454549"/>
        <g id="Group_91-2" data-name="Group 91" transform="translate(0 6.8)">
          <path id="Path_167-2" data-name="Path 167" d="M41.177,109.488C26.386,100.83,17.556,86.718,17.556,71.739c0-10.347,3.6-21.219,9.986-30.591A52.939,52.939,0,0,0,15.991,51.519C7.358,61.838,2.407,74.73,2.407,86.888c0,14.979,8.83,29.091,23.621,37.748a4.819,4.819,0,0,0,6.569-1.682,148.434,148.434,0,0,1,8.961-13.276C41.431,109.617,41.3,109.56,41.177,109.488Z" transform="translate(-2.407 -41.148)" fill="#454549"/>
        </g>
        <ellipse id="Ellipse_55-2" data-name="Ellipse 55" cx="26.5" cy="24.5" rx="26.5" ry="24.5" transform="translate(25.657 17.129)" fill="#353535"/>
      </g>
      <g id="Group_96-2" data-name="Group 96" transform="translate(0 16.758)">
        <path id="Path_183-2" data-name="Path 183" d="M259.668,93.424c-19.192-22.526-54-49.366-110.923-49.526h-.588c-56.919.16-91.731,27-110.923,49.526C13.571,121.2,0,158.4,0,195.5c0,33.919,15.294,62.322,44.23,82.137,26.257,17.982,63.155,27.917,103.942,28h.559c40.786-.08,77.684-10.015,103.942-28,28.935-19.816,44.23-48.218,44.23-82.137C296.9,158.4,283.331,121.2,259.668,93.424Z" transform="translate(0 -43.897)" fill="#e0e0e0"/>
        <path id="Path_184-2" data-name="Path 184" d="M252.672,346.943c-26.257,18.447-63.155,28.639-103.942,28.721h-.559c-40.786-.082-77.684-10.275-103.942-28.721C18.11,328.593,3.11,303.064.437,272.674Q.01,278.549,0,284.443c0,34.8,15.294,63.934,44.23,84.263,26.257,18.447,63.155,28.639,103.942,28.721h.559c40.786-.082,77.684-10.274,103.942-28.721,28.935-20.329,44.23-49.466,44.23-84.263q0-5.888-.437-11.769C293.792,303.064,278.792,328.593,252.672,346.943Z" transform="translate(0 -135.688)" fill="#c4c4c4"/>
      </g>
      <g id="panda-4" data-name="panda" transform="translate(64.46 81.002)">
        <g id="Group_97-2" data-name="Group 97" transform="translate(0 0)">
          <path id="Path_174-2" data-name="Path 174" d="M237.511,268.243c-9.16,0-26.21,0-26.21,13.284,0,4.978,4.078,10.025,12.836,15.883a110.235,110.235,0,0,0,11.246,6.527,4.816,4.816,0,0,0,4.258,0,110.164,110.164,0,0,0,11.246-6.528c8.756-5.857,12.835-10.9,12.835-15.882C263.72,268.243,246.671,268.243,237.511,268.243Z" transform="translate(-154.366 -205.944)" fill="#525256"/>
          <g id="Group_94-2" data-name="Group 94">
            <path id="Path_172-2" data-name="Path 172" d="M134.689,183.794c-4.54-5.64-11.743-8.875-19.763-8.875a35.748,35.748,0,0,0-22.486,7.968c-7.272,5.911-12.1,14.649-13.957,25.272-1.748,9.988.185,19.211,5.3,25.3a21.117,21.117,0,0,0,16.73,7.51c7.492,0,16.144-3.845,23.738-10.55s13-15.316,14.813-23.616C141.014,197.893,139.46,189.722,134.689,183.794Z" transform="translate(-77.853 -174.919)" fill="#525256"/>
            <path id="Path_177-2" data-name="Path 177" d="M124.252,234.93c-7.594,6.7-16.246,10.55-23.738,10.55a21.117,21.117,0,0,1-16.73-7.51,25.089,25.089,0,0,1-5.076-10.561c-.077.386-.157.769-.225,1.16-1.748,9.988.185,19.211,5.3,25.3a21.117,21.117,0,0,0,16.73,7.509c7.492,0,16.144-3.845,23.738-10.55s13-15.316,14.813-23.616a30.374,30.374,0,0,0-.233-14.948C136.825,220.269,131.561,228.478,124.252,234.93Z" transform="translate(-77.853 -195.33)" fill="#454549"/>
          </g>
          <g id="Group_95-2" data-name="Group 95" transform="translate(110.431 0)">
            <path id="Path_176-2" data-name="Path 176" d="M346.239,208.158c-1.859-10.622-6.685-19.361-13.957-25.272a35.748,35.748,0,0,0-22.486-7.968c-8.02,0-15.223,3.235-19.764,8.875-4.771,5.927-6.324,14.1-4.375,23.008,1.816,8.3,7.215,16.908,14.813,23.616s16.246,10.55,23.738,10.55a21.118,21.118,0,0,0,16.73-7.509C346.054,227.369,347.986,218.147,346.239,208.158Z" transform="translate(-284.836 -174.919)" fill="#525256"/>
            <path id="Path_178-2" data-name="Path 178" d="M346.017,227.409a25.1,25.1,0,0,1-5.076,10.562,21.117,21.117,0,0,1-16.73,7.509c-7.491,0-16.144-3.845-23.738-10.55-7.308-6.452-12.573-14.661-14.579-22.665a30.366,30.366,0,0,0-.233,14.948c1.816,8.3,7.215,16.908,14.813,23.616s16.246,10.55,23.738,10.55a21.117,21.117,0,0,0,16.73-7.509c5.117-6.091,7.05-15.313,5.3-25.3C346.174,228.178,346.094,227.795,346.017,227.409Z" transform="translate(-284.841 -195.329)" fill="#454549"/>
          </g>
          <path id="Path_181-2" data-name="Path 181" d="M3.238,0A3.238,3.238,0,0,0,0,3.241v6.921a3.24,3.24,0,1,0,6.479,0V3.241A3.24,3.24,0,0,0,3.238,0Zm0,0" transform="translate(36.52 11.884) rotate(11)" fill="#fff"/>
          <path id="Path_182-2" data-name="Path 182" d="M3.24,0A3.239,3.239,0,0,0,0,3.241v6.921a3.24,3.24,0,0,0,6.48,0V3.241A3.24,3.24,0,0,0,3.24,0Zm0,0" transform="matrix(0.978, -0.208, 0.208, 0.978, 127.225, 14.517)" fill="#fff"/>
        </g>
      </g>
    </g>
    <g id="Group_1160" data-name="Group 1160" transform="translate(14509.699 8460.589)">
      <g id="Group_98-2" data-name="Group 98" transform="translate(0 0)">
        <g id="panda-5" data-name="panda" transform="translate(5.171)">
          <path id="Path_168-3" data-name="Path 168" d="M363.4,64.922c11.368-20.549,31.94-34.356,51.191-34.356,14.356,0,28.94,7.591,40.012,20.826,10.471,12.516,16.475,28.152,16.475,42.9,0,18.168-10.71,35.283-28.649,45.784a5.844,5.844,0,0,1-7.967-2.04A173.048,173.048,0,0,0,365.83,72.942a5.845,5.845,0,0,1-2.428-8.02Z" transform="translate(-123.138 -30.566)" fill="#525256"/>
          <ellipse id="Ellipse_56-3" data-name="Ellipse 56" cx="30" cy="26.5" rx="30" ry="26.5" transform="translate(249.13 27.411)" fill="#353535"/>
          <path id="Path_166-3" data-name="Path 166" d="M110.085,64.922C98.718,44.373,78.146,30.566,58.895,30.566c-14.356,0-28.94,7.591-40.012,20.826C8.412,63.908,2.407,79.544,2.407,94.29c0,18.168,10.71,35.283,28.649,45.784a5.844,5.844,0,0,0,7.967-2.04,173.048,173.048,0,0,1,68.634-65.091,5.846,5.846,0,0,0,2.428-8.02Z" transform="translate(-2.407 -30.566)" fill="#525256"/>
          <g id="Group_92-3" data-name="Group 92" transform="translate(300.457 8.247)">
            <path id="Path_169-3" data-name="Path 169" d="M441.306,124.035c17.939-10.5,28.649-27.616,28.649-45.783,0-12.549-4.362-25.736-12.112-37.1a64.21,64.21,0,0,1,14.01,12.579c10.471,12.516,16.475,28.152,16.475,42.9,0,18.168-10.71,35.283-28.649,45.783a5.844,5.844,0,0,1-7.967-2.04,180.043,180.043,0,0,0-10.869-16.1C441,124.191,441.155,124.123,441.306,124.035Z" transform="translate(-440.843 -41.148)" fill="#454549"/>
          </g>
          <path id="Path_175-3" data-name="Path 175" d="M271.967,277.708a44.071,44.071,0,0,1-57.753,0,13.225,13.225,0,0,0-2.912,8.735c0,6.038,4.947,12.159,15.568,19.263a133.674,133.674,0,0,0,13.64,7.917,5.84,5.84,0,0,0,5.164,0,133.6,133.6,0,0,0,13.64-7.918c10.62-7.1,15.567-13.225,15.567-19.263A13.233,13.233,0,0,0,271.967,277.708Z" transform="translate(-69.237 -96.697)" fill="#454549"/>
          <g id="Group_91-3" data-name="Group 91" transform="translate(0 8.247)">
            <path id="Path_167-3" data-name="Path 167" d="M49.429,124.035C31.49,113.534,20.78,96.419,20.78,78.251c0-12.549,4.362-25.736,12.112-37.1a64.209,64.209,0,0,0-14.01,12.579C8.412,66.243,2.407,81.879,2.407,96.624c0,18.168,10.71,35.283,28.649,45.783a5.844,5.844,0,0,0,7.967-2.04,180.033,180.033,0,0,1,10.869-16.1C49.737,124.191,49.581,124.123,49.429,124.035Z" transform="translate(-2.407 -41.148)" fill="#454549"/>
          </g>
          <ellipse id="Ellipse_55-3" data-name="Ellipse 55" cx="29.5" cy="30" rx="29.5" ry="30" transform="translate(32.13 20.411)" fill="#353535"/>
        </g>
        <g id="Group_96-3" data-name="Group 96" transform="translate(0 20.325)">
          <path id="Path_183-3" data-name="Path 183" d="M314.941,103.966c-23.277-27.321-65.5-59.874-134.535-60.068h-.713c-69.036.194-111.257,32.747-134.534,60.068C16.46,137.652,0,182.777,0,227.772c0,41.139,18.55,75.588,53.645,99.621,31.847,21.81,76.6,33.86,126.067,33.956h.678c49.468-.1,94.22-12.147,126.067-33.956,35.095-24.034,53.645-58.482,53.645-99.621C360.1,182.777,343.641,137.652,314.941,103.966Z" transform="translate(0 -43.897)" fill="#e0e0e0"/>
          <path id="Path_184-3" data-name="Path 184" d="M306.457,362.752c-31.847,22.373-76.6,34.736-126.067,34.835h-.678c-49.468-.1-94.22-12.462-126.067-34.835C21.965,340.5,3.772,309.532.531,272.674Q.012,279.8,0,286.948c0,42.2,18.55,77.543,53.645,102.2,31.847,22.374,76.6,34.736,126.067,34.835h.678c49.468-.1,94.22-12.461,126.067-34.835,35.095-24.656,53.645-60,53.645-102.2q0-7.142-.531-14.274C356.329,309.532,338.136,340.5,306.457,362.752Z" transform="translate(0 -106.529)" fill="#c4c4c4"/>
        </g>
        <g id="panda-6" data-name="panda" transform="translate(78.181 98.244)">
          <g id="Group_97-3" data-name="Group 97" transform="translate(0 0)">
            <path id="Path_174-3" data-name="Path 174" d="M243.09,268.243c-11.11,0-31.789,0-31.789,16.112,0,6.038,4.947,12.159,15.568,19.263a133.686,133.686,0,0,0,13.64,7.917,5.841,5.841,0,0,0,5.164,0,133.6,133.6,0,0,0,13.64-7.918c10.62-7.1,15.567-13.225,15.567-19.263C274.878,268.243,254.2,268.243,243.09,268.243Z" transform="translate(-142.247 -192.683)" fill="#525256"/>
            <g id="Group_94-3" data-name="Group 94">
              <path id="Path_172-3" data-name="Path 172" d="M146.787,185.684c-5.506-6.841-14.243-10.765-23.97-10.765a43.358,43.358,0,0,0-27.273,9.664c-8.82,7.169-14.673,17.768-16.928,30.651-2.12,12.114.224,23.3,6.43,30.687,5.006,5.959,12.022,9.108,20.291,9.108,9.087,0,19.58-4.663,28.79-12.8s15.764-18.576,17.966-28.643C154.459,202.783,152.574,192.873,146.787,185.684Z" transform="translate(-77.853 -174.919)" fill="#525256"/>
              <path id="Path_177-3" data-name="Path 177" d="M134.129,239.755c-9.211,8.132-19.7,12.8-28.79,12.8-8.269,0-15.285-3.149-20.291-9.108a30.431,30.431,0,0,1-6.157-12.809c-.093.468-.191.932-.273,1.406-2.12,12.114.224,23.3,6.43,30.687,5.006,5.959,12.023,9.108,20.291,9.108,9.087,0,19.58-4.664,28.79-12.8S149.893,240.463,152.1,230.4a36.839,36.839,0,0,0-.283-18.13C149.378,221.972,142.993,231.929,134.129,239.755Z" transform="translate(-77.853 -191.725)" fill="#454549"/>
            </g>
            <g id="Group_95-3" data-name="Group 95" transform="translate(133.938 0)">
              <path id="Path_176-3" data-name="Path 176" d="M359.309,215.234c-2.255-12.883-8.108-23.482-16.928-30.651a43.357,43.357,0,0,0-27.273-9.664c-9.727,0-18.464,3.924-23.971,10.765-5.786,7.188-7.671,17.1-5.307,27.906,2.2,10.067,8.751,20.507,17.966,28.643s19.7,12.8,28.791,12.8c8.268,0,15.285-3.149,20.291-9.108C359.085,238.534,361.429,227.349,359.309,215.234Z" transform="translate(-284.837 -174.919)" fill="#525256"/>
              <path id="Path_178-3" data-name="Path 178" d="M359.038,230.632a30.435,30.435,0,0,1-6.157,12.81c-5.006,5.958-12.022,9.108-20.291,9.108-9.086,0-19.58-4.663-28.791-12.8-8.864-7.825-15.249-17.782-17.683-27.489a36.83,36.83,0,0,0-.283,18.13c2.2,10.067,8.75,20.508,17.966,28.643s19.7,12.8,28.791,12.8c8.268,0,15.285-3.149,20.291-9.107,6.207-7.388,8.55-18.573,6.431-30.688C359.229,231.565,359.131,231.1,359.038,230.632Z" transform="translate(-284.84 -191.724)" fill="#454549"/>
            </g>
            <path id="Path_181-3" data-name="Path 181" d="M3.928,0A3.928,3.928,0,0,0,0,3.931v8.394a3.929,3.929,0,1,0,7.858,0V3.931A3.929,3.929,0,0,0,3.928,0Zm0,0" transform="translate(44.294 14.413) rotate(11)" fill="#fff"/>
            <path id="Path_182-3" data-name="Path 182" d="M3.929,0A3.929,3.929,0,0,0,0,3.931v8.394a3.93,3.93,0,0,0,7.86,0V3.931A3.929,3.929,0,0,0,3.929,0Zm0,0" transform="matrix(0.978, -0.208, 0.208, 0.978, 154.306, 17.607)" fill="#fff"/>
          </g>
        </g>
      </g>
      <path id="Path_120-2" data-name="Path 120" d="M48.133,112.958H95.1" transform="translate(108.267 135.049)" fill="none" stroke="#707070" stroke-linecap="round" stroke-width="2"/>
    </g>
  </g>
</svg>
