<svg id="Layer_1" data-name="Layer 1" xmlns="http://www.w3.org/2000/svg" viewBox="0 0 612 792"><defs><style>.cls-1{fill:#379986;}.cls-2{fill:#24363f;}.cls-3{fill:#ea5642;}.cls-4{fill:#d34b3d;}.cls-5{fill:#ed6f62;}</style></defs><path class="cls-1" d="M337.8,176.24c50.54-45.18,110.26-59.73,144.72-63.56A113.56,113.56,0,0,1,337.8,176.24Z"/><path id="Path_151" data-name="Path 151" class="cls-2" d="M339.06,217.6A90.47,90.47,0,0,0,353,214.54c2.46-22.21-4.92-45.18-20.51-64.32a18,18,0,0,0-13.94-6.13h0c-11.48-.77-13.94,7.66-6.56,15.31C328.39,177,337.42,197.7,339.06,217.6Z"/><path id="Path_152" data-name="Path 152" class="cls-3" d="M429.35,188.89c-29.09-7.66-58.19,0-83.46,18.37-21.27-15.46-45.25-23.34-69.66-20.88a89.22,89.22,0,0,0-13.8,2.51c-60.5,15.31-93.42,90.35-74.28,167.69,19.91,77.33,84.23,127.87,144.72,113.32h0a47.33,47.33,0,0,1,25.27,0h0C418.63,485.22,483,434.68,502.86,356.58,522.77,279.24,489.85,204.2,429.35,188.89Z"/><path class="cls-4" d="M430.58,189.35a88.49,88.49,0,0,0-30.19-2.58,88.87,88.87,0,0,1,15,2.58c60.49,15.32,93.41,90.36,73.5,167.69-16.66,65.38-64.45,111.42-115.06,115.71,56,4.67,111.91-43.82,130.23-115.71C524,279.71,491.07,204.67,430.58,189.35Z"/><ellipse class="cls-5" cx="287.67" cy="232.33" rx="22.68" ry="12.42"/></svg>