<svg id="Layer_1" data-name="Layer 1" xmlns="http://www.w3.org/2000/svg" viewBox="0 0 612 792"><defs><style>.cls-1{fill:#379986;}.cls-2{fill:#24363f;}.cls-3{fill:#ea5642;}.cls-4{fill:#d34b3d;}.cls-5{fill:#ed6f62;}.cls-6{fill:#44332e;}.cls-7{fill:#2d201e;}.cls-8{fill:#28211e;}.cls-9{fill:#56423b;}.cls-10{fill:#7c6a63;}</style></defs><path class="cls-1" d="M337.8,176.24c50.54-45.18,110.26-59.73,144.72-63.56A113.56,113.56,0,0,1,337.8,176.24Z"/><path id="Path_151" data-name="Path 151" class="cls-2" d="M339.06,217.6A89.82,89.82,0,0,0,353,214.54c2.46-22.21-4.92-45.18-20.51-64.32a18,18,0,0,0-13.94-6.13h0c-11.48-.77-13.94,7.66-6.56,15.31C328.39,177,337.42,197.7,339.06,217.6Z"/><path id="Path_152" data-name="Path 152" class="cls-3" d="M429.35,188.89c-29.09-7.66-58.19,0-83.46,18.37-21.27-15.46-45.25-23.34-69.66-20.88a88.58,88.58,0,0,0-13.8,2.51c-60.5,15.31-93.42,90.35-74.28,167.69,19.91,77.33,84.23,127.87,144.72,113.32h0a47.33,47.33,0,0,1,25.27,0h0C418.63,485.22,483,434.68,502.86,356.58,522.77,279.24,489.85,204.2,429.35,188.89Z"/><path class="cls-4" d="M430.58,189.35a88.52,88.52,0,0,0-30.19-2.58,88.79,88.79,0,0,1,15,2.58c60.49,15.32,93.41,90.36,73.5,167.69-16.66,65.38-64.45,111.42-115.06,115.71,56,4.67,111.91-43.82,130.23-115.71C524,279.71,491.07,204.67,430.58,189.35Z"/><ellipse class="cls-5" cx="287.67" cy="232.33" rx="22.68" ry="12.42"/><path id="Shape" class="cls-6" d="M427,250.67c-2,26.1-10.38,113.11-36,138.61-21.53,21.53-48,33.21-76.52,22.43a76.54,76.54,0,0,1-12-5.8,72.23,72.23,0,0,1-9.89-7,71,71,0,0,1-5.4-4.87,68,68,0,0,1-5.19-5.8A71.67,71.67,0,0,1,274.84,378a74.82,74.82,0,0,1-5.8-12.07,77.41,77.41,0,0,1,18-81.39c25.67-25.63,107-38.78,133-40.78a6.4,6.4,0,0,1,6.93,5.84,5.15,5.15,0,0,1,0,1.11Z"/><path class="cls-7" d="M287,393.86q2.39,2.38,5,4.52a72,72,0,0,0,9.84,7.09,76.6,76.6,0,0,0,12,5.88c28.41,11,55-.5,76.67-21.91,9.85-9.66,17.24-28.33,22.74-49.16-5,14.35-11.1,26.5-18.53,33.76-22.93,22.63-51.38,34.52-81.45,22.91a81.06,81.06,0,0,1-12.69-6.22c-1.52-.92-5.21-3.47-6.66-4.49"/><path class="cls-7" d="M294.29,386.46c-1.28-.95-2.55-1.95-3.77-3a73.43,73.43,0,0,1-5.71-5.16,71.32,71.32,0,0,1-5.52-6.14,73.45,73.45,0,0,1-7.52-10.83,78.9,78.9,0,0,1-6.14-12.77c-.43-1.15-.77-2.33-1.14-3.49a77.49,77.49,0,0,0,4.45,20.56,75.12,75.12,0,0,0,5.8,12.06A71,71,0,0,0,281.86,388a68,68,0,0,0,5.19,5.8l.38.38"/><path class="cls-8" d="M296.26,387.85c-.74-.51-1.47-1-2.2-1.57"/><path id="Shape-2" class="cls-9" d="M414.25,267c-1.3,17.15-6.83,74.36-23.65,91.11C376.45,372.31,359,380,340.3,372.89a50.11,50.11,0,0,1-7.91-3.82,54.39,54.39,0,0,1-10.05-7.81,42.59,42.59,0,0,1-3.42-3.82,46.68,46.68,0,0,1-4.67-6.73,49.45,49.45,0,0,1-3.82-7.93,50.91,50.91,0,0,1,11.83-53.5c16.88-16.86,70.34-25.5,87.44-26.82a4.21,4.21,0,0,1,4.56,3.84v0a4.33,4.33,0,0,1,0,.72Z"/><path class="cls-10" d="M407.62,278.93c-11.56,3.46-23.4,16.74-15.6,23.1C404.73,304.91,406.17,287.3,407.62,278.93Z"/></svg>