<svg xmlns="http://www.w3.org/2000/svg" width="223.347" height="252" viewBox="0 0 223.347 252">
  <g id="apple" transform="translate(-29.126 0.001)">
    <path id="Path_149" data-name="Path 149" d="M170,56.06C135.373,25.105,94.449,15.136,70.839,12.513A77.811,77.811,0,0,0,170,56.06Z" transform="translate(-21.195 -6.358)" fill="#4cdbc4"/>
    <path id="Path_150" data-name="Path 150" d="M169.46,49.7h.525C154.769,9.827,110.172-10.11,69.773,5.1c0,.525.525.525.525,1.049C93.907,8.778,134.832,18.747,169.46,49.7Z" transform="translate(-20.654 0)" fill="#3dc9ae"/>
    <path id="Path_151" data-name="Path 151" d="M255.452,106.58a54.852,54.852,0,0,1-8.919-2.1c-1.574-15.215,3.148-30.955,13.117-44.072a11.208,11.208,0,0,1,8.919-4.2h0c7.345-.525,8.919,5.247,4.2,10.493C262.273,78.772,256.5,92.939,255.452,106.58Z" transform="translate(-110.318 -28.546)" fill="#40596b"/>
    <path id="Path_152" data-name="Path 152" d="M198.125,114.96c-19.937-5.247-39.875,0-57.189,12.592-17.314-12.592-37.251-17.839-57.189-12.592-41.449,10.494-64.01,61.911-50.893,114.9,13.641,52.991,57.713,87.62,99.163,77.651h0a32.334,32.334,0,0,1,17.314,0h0c41.449,10.493,85.521-24.135,99.162-77.651C262.135,176.871,239.574,125.453,198.125,114.96Z" transform="translate(0 -57.387)" fill="#ff7058"/>
  </g>
</svg>
