<svg id="badminton" xmlns="http://www.w3.org/2000/svg" width="188.988" height="188.977" viewBox="0 0 188.988 188.977">
  <path id="Path_220" data-name="Path 220" d="M165.743,271.734l-5.568-5.571,41.282-41.278,5.57,5.568Z" transform="translate(-101.052 -141.882)" fill="#434a54"/>
  <path id="Path_221" data-name="Path 221" d="M342.864,43.332,337.3,37.763l-3.484,3.484-5.565-5.568,11.13-11.134-5.565-5.568L322.68,30.111l-5.565-5.566,11.137-11.136L322.68,7.841,311.543,18.977l-5.565-5.568,3.484-3.484L303.89,4.357l-3.483,3.484-2.485-2.489L292.35,10.92l2.491,2.489-5.571,5.568-7.036-7.039-5.566,5.568,7.036,7.039-5.566,5.566-8.056-8.054-5.571,5.568,8.057,8.054L267,41.247l-6.978-6.975-5.568,5.568,6.975,6.975-5.565,5.568-2.492-2.488-5.565,5.568,2.486,2.488-3.93,3.93,5.568,5.568,3.933-3.93,5.565,5.568L250.3,80.221l5.571,5.568L267,74.653l5.565,5.568L261.432,91.358,267,96.926,278.14,85.789l5.566,5.568-3.87,3.869,5.571,5.565,3.864-3.867L291.7,99.35l5.565-5.568-2.422-2.425,5.565-5.568,6.978,6.975L312.95,87.2l-6.973-6.975,5.565-5.568,8.056,8.057,5.565-5.568-8.051-8.054,5.565-5.568,6.978,6.975,5.565-5.568-6.978-6.975,5.571-5.568,2.422,2.425,5.571-5.568-2.428-2.425Zm-25.75-7.653-5.571,5.568-5.565-5.568,5.565-5.568ZM294.842,46.815l5.565-5.568,5.571,5.568-5.571,5.568Zm0,11.136L289.27,63.52l-5.565-5.568,5.565-5.568Zm5.565-38.974,5.571,5.568-5.571,5.566-5.565-5.566ZM289.271,30.111l5.572,5.568-5.566,5.568-5.571-5.568ZM278.14,41.247l5.566,5.568-5.566,5.568-5.571-5.568Zm-16.707,16.7L267,52.383l5.565,5.568L267,63.52Zm11.136,11.137,5.571-5.568,5.566,5.568-5.566,5.565Zm16.7,16.7-5.565-5.568,5.565-5.568,5.572,5.568Zm11.136-11.136-5.565-5.565,5.565-5.568,5.571,5.568ZM311.543,63.52l-5.565-5.568,5.565-5.568,5.571,5.568ZM322.68,52.383l-5.565-5.568,5.565-5.568,5.565,5.568Z" transform="translate(-155.429 -2.754)" fill="#e6e9ed"/>
  <path id="Path_222" data-name="Path 222" d="M281.077,99.209c-10.866,0-20.283-3.673-27.232-10.623-8.319-8.319-11.944-20.246-10.2-33.579,1.69-12.947,8.279-25.742,18.556-36.019C274.26,6.93,289.7.015,304.566.015c10.865,0,20.277,3.673,27.227,10.623,8.322,8.319,11.949,20.246,10.208,33.579-1.69,12.95-8.282,25.741-18.558,36.019C311.383,92.295,295.944,99.212,281.077,99.209ZM304.566,7.887a47.1,47.1,0,0,0-18.784,4.193,59.461,59.461,0,0,0-18.016,12.477C249.343,42.977,245.6,69.2,259.415,83.018c5.438,5.441,12.93,8.319,21.662,8.319a47.1,47.1,0,0,0,18.777-4.192,59.488,59.488,0,0,0,18.022-12.477c18.42-18.42,22.169-44.646,8.351-58.462C320.783,10.765,313.3,7.887,304.566,7.887Z" transform="translate(-153.44 -0.015)" fill="#ed5564"/>
  <path id="Path_223" data-name="Path 223" d="M64.691,334.744a3.936,3.936,0,0,0-2.783-1.153H50.772a3.936,3.936,0,0,0-2.783,1.153L1.155,381.585a3.93,3.93,0,0,0,0,5.565l11.133,11.136a3.937,3.937,0,0,0,5.568,0l46.834-46.835a3.942,3.942,0,0,0,1.153-2.785v-11.13A3.946,3.946,0,0,0,64.691,334.744Z" transform="translate(0 -210.463)" fill="#ffd2a6"/>
  <path id="Path_224" data-name="Path 224" d="M147.867,337.535a3.938,3.938,0,0,0-3.936-3.944H132.795a3.936,3.936,0,0,0-2.783,1.153l16.7,16.708a3.941,3.941,0,0,0,1.154-2.785Z" transform="translate(-82.023 -210.463)" fill="#ed5564"/>
  <path id="Path_225" data-name="Path 225" d="M412.023,389.758l-2.786-2.786a3.93,3.93,0,0,0-5.565,0l-16.7,16.7a3.931,3.931,0,0,0,0,5.565l2.78,2.792h0a15.749,15.749,0,1,0,22.273-22.273Z" transform="translate(-243.405 -243.412)" fill="#ffce54"/>
  <path id="Path_226" data-name="Path 226" d="M362.252,340.148l-16.7-27.838a3.937,3.937,0,0,0-6.159-.755l-27.844,27.838a3.937,3.937,0,0,0-1.118,3.264,3.874,3.874,0,0,0,1.124,2.3,3.749,3.749,0,0,0,.756.594l27.838,16.707Z" transform="translate(-195.825 -195.832)" fill="#e6e9ed"/>
  <path id="Path_227" data-name="Path 227" d="M392.047,386.486,377.456,371.9a3.937,3.937,0,1,0-5.571,5.565l14.6,14.6Z" transform="translate(-233.891 -233.9)" fill="#ccd1d9"/>
</svg>
