<svg xmlns="http://www.w3.org/2000/svg" width="224.947" height="224.946" viewBox="0 0 224.947 224.946">
  <g id="bone" transform="translate(0.001 -0.001)">
    <path id="Path_153" data-name="Path 153" d="M89.054,167.43c-.114-.114-.234-.221-.349-.333L167.1,88.706c.112.116.219.235.333.349A33.693,33.693,0,1,0,193.337,31.61a33.689,33.689,0,1,0-57.445,25.907c.114.114.234.221.349.333L57.85,136.242c-.112-.116-.219-.235-.333-.349a33.693,33.693,0,1,0-25.907,57.445A33.689,33.689,0,1,0,89.054,167.43Z" fill="#fed9a8"/>
    <path id="Path_154" data-name="Path 154" d="M263.063,89.39a33.794,33.794,0,0,0-4.542-3.8A33.69,33.69,0,0,1,207.082,128.7c-.114-.114-.221-.234-.333-.349l-78.391,78.392c.116.112.235.219.349.333A33.69,33.69,0,0,1,85.588,258.52a33.692,33.692,0,1,0,51.452-43.106c-.114-.114-.234-.221-.349-.333l78.391-78.391c.112.116.219.235.333.349A33.692,33.692,0,1,0,263.063,89.39Z" transform="translate(-47.986 -47.984)" fill="#edc391"/>
  </g>
</svg>
