<svg id="boy" xmlns="http://www.w3.org/2000/svg" width="255.027" height="291.145" viewBox="0 0 255.027 291.145">
  <path id="Path_185" data-name="Path 185" d="M243.477,424.3c-12.372-32.108-41.067-42-41.067-42h-73.1s-25.611,8.823-38.879,36.875q-1.166,2.469-2.192,5.131l32.139,31.746h90.963Zm0,0" transform="translate(-38.348 -164.909)" fill="#da5b65"/>
  <path id="Path_186" data-name="Path 186" d="M105.816,424.307q1.023-2.665,2.192-5.131c13.268-28.052,38.879-36.875,38.879-36.875H129.313s-25.611,8.823-38.879,36.875q-1.166,2.469-2.192,5.131Zm0,0" transform="translate(-38.348 -164.909)" fill="#c0344a"/>
  <path id="Path_187" data-name="Path 187" d="M254.292,125.879c0-31.4-12.85-60.878-36.18-82.993C194.181,20.2,162.079,11.224,131.9,0,101.728,11.224,69.626,20.2,45.695,42.886,22.365,65,9.517,94.475,9.517,125.879Zm0,0" transform="translate(-4.39)" fill="#465059"/>
  <path id="Path_188" data-name="Path 188" d="M69.126,42.886C89.981,23.117,117.038,13.758,143.62,4.252,139.7,2.85,135.783,1.444,131.9,0,101.727,11.224,69.625,20.2,45.694,42.886,22.364,65,9.516,94.475,9.516,125.879H32.948c0-31.4,12.848-60.878,36.178-82.993Zm0,0" transform="translate(-4.389 0)" fill="#3c474d"/>
  <path id="Path_189" data-name="Path 189" d="M414.942,207.556A22.438,22.438,0,1,1,392.5,185.117,22.439,22.439,0,0,1,414.942,207.556Zm0,0" transform="translate(-159.916 -79.852)" fill="#dfb297"/>
  <path id="Path_190" data-name="Path 190" d="M230.734,377.7a24.816,24.816,0,1,1-24.816-24.816A24.816,24.816,0,0,1,230.734,377.7Zm0,0" transform="translate(-78.404 -152.221)" fill="#dfb297"/>
  <path id="Path_191" data-name="Path 191" d="M250.109,167.83A71.381,71.381,0,0,0,221.672,110.9c-21.633-16.193-51.233-19.563-74.663,2.081a2.9,2.9,0,0,1-3.947,0C119.63,91.335,90.03,94.7,68.4,110.9A71.383,71.383,0,0,0,39.96,167.83v.211c0,55.009,47.044,99.6,105.077,99.6s105.074-44.594,105.074-99.6c0-.069,0-.14,0-.211Zm0,0" transform="translate(-17.522 -42.163)" fill="#fbc4ac"/>
  <path id="Path_192" data-name="Path 192" d="M40.514,168.043v-.211A71.381,71.381,0,0,1,68.95,110.9,65.376,65.376,0,0,1,97.4,98.471c-16.16-2.715-32.624,2.392-46.029,12.428a71.077,71.077,0,0,0-25.491,36.764,17.434,17.434,0,0,0-2.945-.233,22.438,22.438,0,1,0,0,44.876,17.462,17.462,0,0,0,3.081-.251c11.335,43.408,52.7,75.592,101.993,75.592q4.441,0,8.787-.351c-53.919-4.231-96.287-47.048-96.287-99.252Zm0,0" transform="translate(-0.5 -42.165)" fill="#dfb297"/>
  <path id="Path_193" data-name="Path 193" d="M317.933,221.564a4.392,4.392,0,0,1-4.394-4.394V206.5a4.394,4.394,0,1,1,8.787,0V217.17A4.393,4.393,0,0,1,317.933,221.564Zm0,0" transform="translate(-135.532 -87.18)" fill="#3a484a"/>
  <path id="Path_194" data-name="Path 194" d="M319.685,257.244H305.151a4.394,4.394,0,0,1,0-8.787h14.534a4.394,4.394,0,1,1,0,8.787Zm0,0" transform="translate(-130.019 -107.174)" fill="#f98084"/>
  <path id="Path_195" data-name="Path 195" d="M124.89,221.564a4.392,4.392,0,0,1-4.394-4.394V206.5a4.393,4.393,0,1,1,8.785,0V217.17A4.392,4.392,0,0,1,124.89,221.564Zm0,0" transform="translate(-52.262 -87.18)" fill="#3a484a"/>
  <path id="Path_196" data-name="Path 196" d="M126.642,257.244H112.106a4.394,4.394,0,0,1,0-8.787h14.536a4.394,4.394,0,0,1,0,8.787Zm0,0" transform="translate(-46.748 -107.174)" fill="#f98084"/>
  <path id="Path_197" data-name="Path 197" d="M213.963,252.891a17.368,17.368,0,0,1-13.123-5.846,4.393,4.393,0,1,1,6.615-5.782,8.878,8.878,0,0,0,13.019,0,4.393,4.393,0,1,1,6.615,5.782A17.377,17.377,0,0,1,213.963,252.891Zm0,0" transform="translate(-86.449 -103.422)" fill="#3a484a"/>
  <path id="Path_198" data-name="Path 198" d="M82.523,462.375a8.657,8.657,0,0,1-8.656-8.656V437.945a8.656,8.656,0,0,1,17.313,0v15.773A8.657,8.657,0,0,1,82.523,462.375Zm0,0" transform="translate(-32.148 -185.178)" fill="#dfb297"/>
  <path id="Path_199" data-name="Path 199" d="M85.551,453.137a24.683,24.683,0,0,0-9.089,1.726A24.977,24.977,0,0,0,62.5,486.609h46.1a24.675,24.675,0,0,0-23.05-33.472Zm0,0" transform="translate(-26.568 -195.465)" fill="#fbc4ac"/>
  <path id="Path_200" data-name="Path 200" d="M353.828,462.375a8.656,8.656,0,0,0,8.656-8.656V437.945a8.656,8.656,0,0,0-17.312,0v15.773A8.657,8.657,0,0,0,353.828,462.375Zm0,0" transform="translate(-149.177 -185.178)" fill="#dfb297"/>
  <path id="Path_201" data-name="Path 201" d="M326.543,453.137a24.674,24.674,0,0,1,9.089,1.726,24.979,24.979,0,0,1,13.961,31.747h-46.1a24.675,24.675,0,0,1,23.05-33.472Zm0,0" transform="translate(-130.499 -195.465)" fill="#fbc4ac"/>
</svg>
