<svg xmlns="http://www.w3.org/2000/svg" viewBox="0 0 272.87 329.99"><defs><style>.cls-1{fill:#465059;}.cls-2{fill:#66cdf7;}.cls-3{fill:#fbc4ac;}.cls-4{fill:#fff;}.cls-5{fill:#efbcab;}.cls-6{fill:#89b0e0;}.cls-7{fill:#3a484a;}.cls-8{fill:#f98084;}</style></defs><g id="Layer_2" data-name="Layer 2"><g id="Layer_1-2" data-name="Layer 1"><path id="Path_187" data-name="Path 187" class="cls-1" d="M258.44,145.88c0-37.77,4-68-20.05-94.56C213.73,24,141.6,36.27,134.62,36,103.52,49.5,73.8,20.16,49.14,47.45,25.1,74,15.2,109.08,15.2,146.86Z"/><path id="Path_202" data-name="Path 202" class="cls-2" d="M15.73,328.68s-.25-13.06-.25-18.54h0V293.65c1.69-20.34,26.78-59.8,59.8-59.8H198.85c33,0,58.63,38.85,59.8,59.8h0V330H186.06L137,322.11,94.33,330Z"/><path id="Path_189" data-name="Path 189" class="cls-3" d="M49.87,150.92A24.94,24.94,0,1,1,24.93,126h0A24.94,24.94,0,0,1,49.87,150.92Z"/><path id="Path_203" data-name="Path 203" class="cls-4" d="M94.33,248.15h91.73V330H94.33Z"/><path id="Path_189-2" data-name="Path 189-2" class="cls-3" d="M272.87,149.29a24.94,24.94,0,1,1-24.94-24.93,24.94,24.94,0,0,1,24.94,24.93Z"/><path id="Path_190" data-name="Path 190" class="cls-5" d="M165.21,254.85c0,13.51-12.35,24.47-27.57,24.47s-27.58-11-27.58-24.47,12.34-24.48,27.58-24.48h0C152.86,230.37,165.21,241.33,165.21,254.85Z"/><path id="Path_315" data-name="Path 315" class="cls-6" d="M123.74,297.36l16.6-18-43.7-37L72.44,232l45.05,65.3a4.21,4.21,0,0,0,5.93.38C123.53,297.57,123.64,297.47,123.74,297.36Z"/><path id="Path_316" data-name="Path 316" class="cls-6" d="M140.26,279.32l18,17.21a3.74,3.74,0,0,0,5.3-.12l.1-.1L206.88,236l-20.27-4Z"/><path id="Path_191" data-name="Path 191" class="cls-3" d="M254.39,147a79.34,79.34,0,0,0-31.6-63.26c-24-18-56.93-21.74-83,2.31a3.22,3.22,0,0,1-4.39,0c-26-24-58.93-20.31-83-2.31A79.31,79.31,0,0,0,20.86,147v.23C20.86,208.39,73.14,258,137.63,258s116.76-49.56,116.76-110.69V147Z"/><path id="Path_193" data-name="Path 193" class="cls-7" d="M198.63,156.71a4.87,4.87,0,0,1-4.88-4.87V140a4.88,4.88,0,1,1,9.76,0v11.86a4.87,4.87,0,0,1-4.88,4.87Z"/><path id="Path_194" data-name="Path 194" class="cls-8" d="M206.69,174.15H190.54a4.89,4.89,0,0,1-.14-9.77h16.29a4.89,4.89,0,1,1,.15,9.77Z"/><path id="Path_195" data-name="Path 195" class="cls-7" d="M76.64,156.71a4.88,4.88,0,0,1-4.88-4.87V140a4.88,4.88,0,0,1,9.76,0v0h0v11.86a4.88,4.88,0,0,1-4.88,4.87Z"/><path id="Path_196" data-name="Path 196" class="cls-8" d="M84.71,174.15H68.56a4.89,4.89,0,0,1-.15-9.77h16.3a4.89,4.89,0,0,1,0,9.77Z"/><path id="Path_197" data-name="Path 197" class="cls-7" d="M138.82,186.25a19.3,19.3,0,0,1-14.58-6.5,4.88,4.88,0,0,1,7.35-6.42h0a9.88,9.88,0,0,0,13.95.53c.18-.17.35-.35.52-.53a4.88,4.88,0,0,1,7.35,6.42h0A19.31,19.31,0,0,1,138.82,186.25Z"/><path id="Path_323" data-name="Path 323" class="cls-1" d="M233.46,92.5c-8.32-7.1-36.21-9.71-47.83-6.23s-40.9,18.71-82.26,5.22-65.07,6.09-73.44,16.1S67.58,55.8,67.58,55.8L201,58Z"/><path id="Path_324" data-name="Path 324" class="cls-1" d="M209.2,43.08C186.75,16.81,139.22-9.29,96,3.23a1,1,0,0,0-.62,1.21,1,1,0,0,0,.56.6c12.14,4.68,13.14,9,12.83,10.94a.94.94,0,0,1-1.07.78.66.66,0,0,1-.2-.06C103.15,15,83.9,7.86,68.72,11.16a1,1,0,0,0-.29,1.72c6.43,4.51,8.52,8.65,9.19,10.95A.93.93,0,0,1,77,25a.89.89,0,0,1-.68,0c-6.17-2.83-28.57-12.16-41-4.41a.94.94,0,0,0-.23,1.31.92.92,0,0,0,.4.33c10.44,5,8.1,13,4.69,16.52-16.08,16.35-19.9,55.78-22.28,75.74a.94.94,0,0,0,1.78.52c20.58-43.61,47.69-60.56,50.62-62.3a.87.87,0,0,1,.57-.11l74.59,9a.88.88,0,0,0,.36,0l62.92-16.92a1,1,0,0,0,.68-1.17A1,1,0,0,0,209.2,43.08Z"/></g></g></svg>