<svg xmlns="http://www.w3.org/2000/svg" width="249.307" height="301.498" viewBox="0 0 249.307 301.498">
  <g id="Group_1175" data-name="Group 1175" transform="translate(-4269.345 -9378.514)">
    <path id="Path_187" data-name="Path 187" d="M700.164,390.052c0-34.509,3.641-62.091-18.324-86.394-22.531-24.929-88.428-13.757-94.81-13.994-28.41,12.333-55.565-14.476-78.092,10.453-21.965,24.3-31.016,56.314-31.016,90.826Z" transform="translate(3805.309 9121.748)" fill="#465059"/>
    <path id="Path_202" data-name="Path 202" d="M478.234,434.847s-.226-11.93-.226-16.937h0V402.844c1.544-18.586,24.462-54.635,54.635-54.635h112.9c30.176,0,53.57,35.493,54.638,54.635h0v33.2H633.854l-44.808-7.2-39,7.2Z" transform="translate(3805.484 9243.967)" fill="#66cdf7"/>
    <path id="Path_189" data-name="Path 189" d="M518.867,338.235a22.78,22.78,0,1,1-22.78-22.78A22.78,22.78,0,0,1,518.867,338.235Z" transform="translate(3796.038 9178.168)" fill="#fbc4ac"/>
    <path id="Path_203" data-name="Path 203" d="M501.95,352.551h83.81v74.771H501.95Z" transform="translate(3853.579 9252.689)" fill="#fff"/>
    <path id="Path_189-2" data-name="Path 189" d="M586.583,337.741a22.78,22.78,0,1,1-22.78-22.78A22.78,22.78,0,0,1,586.583,337.741Z" transform="translate(3932.07 9177.176)" fill="#fbc4ac"/>
    <path id="Path_190" data-name="Path 190" d="M557.117,369.516c0,12.351-11.28,22.362-25.193,22.362s-25.2-10.011-25.2-22.362,11.28-22.365,25.2-22.365h0C545.836,347.151,557.117,357.164,557.117,369.516Z" transform="translate(3863.175 9241.842)" fill="#efbcab"/>
    <path id="Path_343" data-name="Path 343" d="M542.176,407.367l15.162-16.48-39.925-33.826L495.3,347.644l41.167,59.66A3.838,3.838,0,0,0,542.176,407.367Z" transform="translate(3840.228 9242.832)" fill="#89b0e0"/>
    <path id="Path_344" data-name="Path 344" d="M515.9,390.855l16.468,15.728a3.426,3.426,0,0,0,4.935-.208L576.76,351.3l-18.517-3.638Z" transform="translate(3881.601 9242.863)" fill="#89b0e0"/>
    <path id="Path_191" data-name="Path 191" d="M693,369.354a72.48,72.48,0,0,0-28.867-57.8c-21.965-16.441-52.018-19.862-75.806,2.112a2.943,2.943,0,0,1-4.008,0c-23.794-21.974-53.844-18.556-75.806-2.112a72.472,72.472,0,0,0-28.873,57.8v.214c0,55.851,47.763,101.126,106.68,101.126s106.683-45.275,106.683-101.126v-.214Z" transform="translate(3808.769 9143.496)" fill="#fbc4ac"/>
    <path id="Path_193" data-name="Path 193" d="M536.6,337.972a4.459,4.459,0,0,1-4.459-4.456V322.681a4.462,4.462,0,0,1,8.924,0v10.835a4.459,4.459,0,0,1-4.459,4.456Z" transform="translate(3914.223 9183.727)" fill="#3a484a"/>
    <path id="Path_194" data-name="Path 194" d="M548.9,336.035H534.146a4.461,4.461,0,1,1,0-8.921H548.9a4.461,4.461,0,1,1,0,8.921Z" transform="translate(3909.293 9201.59)" fill="#f98084"/>
    <path id="Path_195" data-name="Path 195" d="M499.554,337.97a4.456,4.456,0,0,1-4.456-4.456V322.679a4.456,4.456,0,1,1,8.912,0h0v10.835A4.456,4.456,0,0,1,499.554,337.97Z" transform="translate(3839.814 9183.729)" fill="#3a484a"/>
    <path id="Path_196" data-name="Path 196" d="M511.864,336.035H497.105a4.461,4.461,0,1,1,0-8.921h14.758a4.461,4.461,0,0,1,0,8.921Z" transform="translate(3834.882 9201.59)" fill="#f98084"/>
    <path id="Path_197" data-name="Path 197" d="M525.093,342.655a17.637,17.637,0,0,1-13.323-5.936,4.46,4.46,0,0,1,6.716-5.87h0a9.016,9.016,0,0,0,12.74.481c.165-.153.325-.316.478-.481a4.46,4.46,0,0,1,6.716,5.87h0A17.639,17.639,0,0,1,525.093,342.655Z" transform="translate(3871.092 9206.03)" fill="#3a484a"/>
    <path id="Path_345" data-name="Path 345" d="M668.971,327.675c-7.6-6.493-33.08-8.876-43.695-5.7s-37.371,17.1-75.165,4.772-59.449,5.567-67.1,14.711,34.4-47.318,34.4-47.318l121.875,1.989Z" transform="translate(3813.677 9135.356)" fill="#465059"/>
    <path id="Path_346" data-name="Path 346" d="M653.546,316.558c-20.509-24-63.939-47.844-103.454-36.408a.878.878,0,0,0-.054,1.652c11.094,4.273,12.008,8.22,11.723,10a.852.852,0,0,1-1.161.659c-3.945-1.574-21.532-8.085-35.4-5.064a.874.874,0,0,0-.265,1.57c5.876,4.116,7.781,7.9,8.395,10a.859.859,0,0,1-1.18,1.038c-5.636-2.591-26.1-11.115-37.494-4.035a.864.864,0,0,0,.154,1.5c9.538,4.546,7.4,11.921,4.282,15.1-14.689,14.933-18.183,50.961-20.352,69.2a.857.857,0,0,0,1.625.469c18.8-39.838,43.572-55.33,46.244-56.919a.8.8,0,0,1,.527-.1l68.148,8.217a.909.909,0,0,0,.325-.024L653.1,317.955A.87.87,0,0,0,653.546,316.558Z" transform="translate(3806.936 9101.315)" fill="#465059"/>
  </g>
</svg>
