<svg id="long-hair" xmlns="http://www.w3.org/2000/svg" width="298.747" height="351.198" viewBox="0 0 298.747 351.198">
  <path id="Path_202" data-name="Path 202" d="M304.387,464.925h-58.85l-48.366-8.306-48.252,8.306H90.07a20.906,20.906,0,0,1-20.906-20.906V426.652a62.987,62.987,0,0,1,62.987-62.987H262.306a62.987,62.987,0,0,1,62.987,62.987v17.367A20.906,20.906,0,0,1,304.387,464.925Z" transform="translate(-47.854 -113.727)" fill="#66cdf7"/>
  <path id="Path_203" data-name="Path 203" d="M185.209,385.58h96.618v86.2H185.209Z" transform="translate(-84.145 -120.581)" fill="#fff"/>
  <path id="Path_204" data-name="Path 204" d="M186.727,408.848c11.757,11.349,49.8,18.92,74.156.073l28.427-23.361L223.725,372.5l-69.831,13.061Z" transform="translate(-74.352 -116.49)" fill="#f0c9bc"/>
  <path id="Path_205" data-name="Path 205" d="M112.573,351.115c-20.5,15.666-9.113,47.838,32.377,60.149a23.038,23.038,0,0,0,23.508-6.654l27.688-30.325Z" transform="translate(-58.319 -109.803)" fill="#99ddfc"/>
  <path id="Path_206" data-name="Path 206" d="M356.146,351.115c21.419,17.407,8.841,47.838-32.648,60.149a23.038,23.038,0,0,1-23.508-6.654L272.3,374.285Z" transform="translate(-111.38 -109.803)" fill="#99ddfc"/>
  <ellipse id="Ellipse_57" data-name="Ellipse 57" cx="32.563" cy="32.563" rx="32.563" ry="32.563" transform="translate(0 139.041)" fill="#f0c9bc"/>
  <ellipse id="Ellipse_58" data-name="Ellipse 58" cx="32.563" cy="32.563" rx="32.563" ry="32.563" transform="translate(233.621 139.041)" fill="#f0c9bc"/>
  <path id="Path_207" data-name="Path 207" d="M210.857,306h-24.43C124,306,73.129,257.026,73.691,193.8V141.229c0-68.185,56.326-57.741,124.511-57.741h.881c68.185,0,123.973-10.444,123.973,57.741V193.8C323.055,255.507,272.566,306,210.857,306Z" transform="translate(-49.269 -25.929)" fill="#f5dbcd"/>
  <path id="Path_208" data-name="Path 208" d="M73.72,197.308c1.188,55.7,42.388,99.637,95.647,107.451.153.024.278.044.469.065-7.979-19.036-14.025-38.266-16.963-58.764-2.6-18.115-4.306-37.289-.644-55.367a61.415,61.415,0,0,1,10.378-24.428c6.064-8.183,13.8-12.7,23.075-16.521,20.745-8.551,38.814-21.528,54.234-37.795,7.336-7.739,14.03-16.491,17.989-26.477.238-.6.677-1.653.936-2.289l-.5-.022c-.224-.01-.451-.016-.675-.025-17.472-.649-37.43.355-58.584.355h-1.419c-68.185,0-123.972-9.86-123.972,58.324V193.8c0,.328,0,.652,0,.979q0,1.27.023,2.53Z" transform="translate(-49.27 -25.93)" fill="#f0c9bc"/>
  <path id="Path_209" data-name="Path 209" d="M245.763,303.21a21.4,21.4,0,0,1-21.4-21.4V266.252a5.841,5.841,0,0,1,5.842-5.842h31.116a5.842,5.842,0,0,1,5.842,5.842v15.559A21.4,21.4,0,0,1,245.763,303.21Z" transform="translate(-96.389 -81.437)" fill="#3f4750"/>
  <path id="Path_210" data-name="Path 210" d="M372.511,473.326a5.3,5.3,0,0,0-5.3,5.3v20.593h10.6V478.625A5.3,5.3,0,0,0,372.511,473.326Z" transform="translate(-141.062 -148.021)" fill="#99ddfc"/>
  <path id="Path_211" data-name="Path 211" d="M142.363,499.218V478.625a5.3,5.3,0,0,0-10.6,0v20.593Z" transform="translate(-67.431 -148.021)" fill="#99ddfc"/>
  <path id="Path_212" data-name="Path 212" d="M267.162,496.843a21.4,21.4,0,1,0-42.8,0v3.038h42.8Z" transform="translate(-96.389 -148.683)" fill="#89b0e0"/>
  <ellipse id="Ellipse_59" data-name="Ellipse 59" cx="22.215" cy="17.691" rx="22.215" ry="17.691" transform="translate(53.113 175.599)" fill="#ec9eb0"/>
  <ellipse id="Ellipse_60" data-name="Ellipse 60" cx="22.215" cy="17.691" rx="22.215" ry="17.691" transform="translate(201.319 175.599)" fill="#ec9eb0"/>
  <path id="Path_213" data-name="Path 213" d="M163.716,232.859a5.3,5.3,0,0,0-5.3,5.3v9.705a5.3,5.3,0,1,0,10.6,0v-9.705a5.3,5.3,0,0,0-5.3-5.3Z" transform="translate(-75.766 -72.821)" fill="#3f4750"/>
  <path id="Path_214" data-name="Path 214" d="M342.461,232.859a5.3,5.3,0,0,0-5.3,5.3v9.705a5.3,5.3,0,0,0,10.6,0v-9.705a5.3,5.3,0,0,0-5.3-5.3Z" transform="translate(-131.663 -72.821)" fill="#3f4750"/>
  <path id="Path_215" data-name="Path 215" d="M237.758,110.255l35.318,21.035c17.978,12.486,37.543,16.577,51,16.583a12.032,12.032,0,0,0,11.984-12.787c-2.9-47.331-5.8-106.879-86.927-128.823A185,185,0,0,0,200.81,0l-25,0a185.126,185.126,0,0,0-50.64,6.9C47.134,29.094,43.474,86.932,40.625,133.556a12.07,12.07,0,0,0,13.609,12.682c34.787-4.386,81.93-37.8,103.928-72.3Z" transform="translate(-38.922 0)" fill="#4b555f"/>
  <path id="Path_216" data-name="Path 216" d="M147.559,104.027a161.879,161.879,0,0,1-13.609-11.39,6.248,6.248,0,0,0-9.374.707c-4.269,5.677-8.635,11.28-13.165,16.752A287.028,287.028,0,0,1,90.864,132.53c-6.8,6.633-14.131,12.572-21.363,18.709-7.4,6.283-16.333,14.35-26.163,17.919a12.111,12.111,0,0,0,11.75,5.489c32.424-4.088,75.578-33.395,99.1-65.294C152,107.558,149.793,105.775,147.559,104.027Z" transform="translate(-39.778 -28.41)" fill="#3f4750"/>
  <path id="Path_217" data-name="Path 217" d="M346.2,111.586c1.51,13.783,3.092,34.571,5.422,42.769l17.016,10.135c17.979,12.486,37.543,16.577,51,16.583a12,12,0,0,0,11.228-7.785c-1.8-1.2-3.6-2.392-5.419-3.56-8.793-5.648-42.449-21.917-71.182-62.341A4.876,4.876,0,0,0,346.2,111.586Z" transform="translate(-134.479 -33.199)" fill="#3f4750"/>
  <path id="Path_218" data-name="Path 218" d="M170.433,84.735c-1.843,46.335,74.743,85.723,120.521,86.463a13.665,13.665,0,0,0,13.818-13.733c0-12.71-2.434-34.482-14.7-63.3" transform="translate(-79.514 -26.499)" fill="#4b555f"/>
</svg>
