<svg id="boy" xmlns="http://www.w3.org/2000/svg" width="226.57" height="258.658" viewBox="0 0 226.57 258.658">
  <path id="Path_185" data-name="Path 185" d="M226.155,419.618c-10.992-28.526-36.484-37.317-36.484-37.317H124.73a65.919,65.919,0,0,0-34.541,32.761q-1.036,2.194-1.948,4.558l28.553,28.2h80.813Zm0,0" transform="translate(-43.915 -189.166)" fill="#da5b65"/>
  <path id="Path_186" data-name="Path 186" d="M103.855,419.62q.909-2.368,1.948-4.558A65.92,65.92,0,0,1,140.344,382.3H124.73A65.92,65.92,0,0,0,90.19,415.062q-1.036,2.193-1.948,4.558Zm0,0" transform="translate(-43.915 -189.166)" fill="#c0344a"/>
  <path id="Path_187" data-name="Path 187" d="M226.98,111.833c0-27.9-11.416-54.085-32.143-73.732C173.576,17.946,145.056,9.972,118.247,0,91.439,9.972,62.919,17.946,41.658,38.1,20.931,57.748,9.517,83.933,9.517,111.833Zm0,0" transform="translate(-4.962)" fill="#465059"/>
  <path id="Path_188" data-name="Path 188" d="M62.474,38.1C81,20.537,105.041,12.223,128.657,3.777c-3.485-1.245-6.962-2.494-10.41-3.777C91.438,9.972,62.918,17.946,41.657,38.1,20.931,57.748,9.516,83.933,9.516,111.833H30.334c0-27.9,11.414-54.085,32.141-73.732Zm0,0" transform="translate(-4.961 0)" fill="#3c474d"/>
  <path id="Path_189" data-name="Path 189" d="M409.935,205.052A19.934,19.934,0,1,1,390,185.117,19.936,19.936,0,0,1,409.935,205.052Zm0,0" transform="translate(-183.365 -91.597)" fill="#dfb297"/>
  <path id="Path_190" data-name="Path 190" d="M225.2,374.933a22.047,22.047,0,1,1-22.047-22.047A22.047,22.047,0,0,1,225.2,374.933Zm0,0" transform="translate(-89.863 -174.611)" fill="#dfb297"/>
  <path id="Path_191" data-name="Path 191" d="M226.66,160.01A63.416,63.416,0,0,0,201.4,109.43c-19.219-14.386-45.517-17.38-66.332,1.849a2.578,2.578,0,0,1-3.507,0C110.74,92.05,84.443,95.042,65.226,109.43A63.418,63.418,0,0,0,39.96,160.01v.188c0,48.871,41.795,88.489,93.352,88.489s93.35-39.618,93.35-88.489c0-.061,0-.124,0-.187Zm0,0" transform="translate(-20.025 -48.365)" fill="#fbc4ac"/>
  <path id="Path_192" data-name="Path 192" d="M36.049,160.2v-.187a63.417,63.417,0,0,1,25.264-50.58A58.081,58.081,0,0,1,86.592,98.391c-14.357-2.412-28.983,2.125-40.893,11.041a63.146,63.146,0,0,0-22.647,32.662,15.489,15.489,0,0,0-2.617-.207,19.934,19.934,0,1,0,0,39.869,15.515,15.515,0,0,0,2.737-.223c10.07,38.564,46.817,67.157,90.613,67.157q3.946,0,7.807-.312c-47.9-3.759-85.543-41.8-85.543-88.178Zm0,0" transform="translate(-0.5 -48.367)" fill="#dfb297"/>
  <path id="Path_193" data-name="Path 193" d="M317.443,219.392a3.9,3.9,0,0,1-3.9-3.9v-9.48a3.9,3.9,0,1,1,7.807,0v9.48A3.9,3.9,0,0,1,317.443,219.392Zm0,0" transform="translate(-155.394 -100.003)" fill="#3a484a"/>
  <path id="Path_194" data-name="Path 194" d="M317.573,256.264H304.661a3.9,3.9,0,0,1,0-7.807h12.912a3.9,3.9,0,1,1,0,7.807Zm0,0" transform="translate(-149.07 -122.938)" fill="#f98084"/>
  <path id="Path_195" data-name="Path 195" d="M124.4,219.392a3.9,3.9,0,0,1-3.9-3.9v-9.48a3.9,3.9,0,1,1,7.8,0v9.48A3.9,3.9,0,0,1,124.4,219.392Zm0,0" transform="translate(-59.875 -100.003)" fill="#3a484a"/>
  <path id="Path_196" data-name="Path 196" d="M124.53,256.264H111.616a3.9,3.9,0,0,1,0-7.807H124.53a3.9,3.9,0,0,1,0,7.807Zm0,0" transform="translate(-53.551 -122.938)" fill="#f98084"/>
  <path id="Path_197" data-name="Path 197" d="M212.377,251.426a15.43,15.43,0,0,1-11.659-5.194,3.9,3.9,0,1,1,5.877-5.137,7.887,7.887,0,0,0,11.566,0,3.9,3.9,0,1,1,5.877,5.137A15.438,15.438,0,0,1,212.377,251.426Zm0,0" transform="translate(-99.092 -118.635)" fill="#3a484a"/>
  <path id="Path_198" data-name="Path 198" d="M81.557,458.683a7.691,7.691,0,0,1-7.69-7.69V436.979a7.69,7.69,0,0,1,15.381,0v14.013A7.691,7.691,0,0,1,81.557,458.683Zm0,0" transform="translate(-36.803 -212.416)" fill="#dfb297"/>
  <path id="Path_199" data-name="Path 199" d="M82.8,453.137a21.929,21.929,0,0,0-8.075,1.533,22.19,22.19,0,0,0-12.4,28.2h40.954A21.922,21.922,0,0,0,82.8,453.137Zm0,0" transform="translate(-30.402 -224.216)" fill="#fbc4ac"/>
  <path id="Path_200" data-name="Path 200" d="M352.863,458.683a7.69,7.69,0,0,0,7.691-7.69V436.979a7.69,7.69,0,0,0-15.381,0v14.013A7.691,7.691,0,0,0,352.863,458.683Zm0,0" transform="translate(-171.047 -212.416)" fill="#dfb297"/>
  <path id="Path_201" data-name="Path 201" d="M323.79,453.137a21.921,21.921,0,0,1,8.075,1.533,22.192,22.192,0,0,1,12.4,28.2H303.312a21.922,21.922,0,0,1,20.478-29.737Zm0,0" transform="translate(-149.621 -224.216)" fill="#fbc4ac"/>
</svg>
