<svg xmlns="http://www.w3.org/2000/svg" width="668.771" height="465.288" viewBox="0 0 668.771 465.288">
  <g id="Group_1165" data-name="Group 1165" transform="translate(-15458 -8323.067)">
    <g id="purse_1_" data-name="purse (1)" transform="translate(15371.04 8205.283)">
      <path id="Path_329" data-name="Path 329" d="M405.456,146.451A334.085,334.085,0,0,1,688.224,302.308a15.192,15.192,0,0,0,19.733,5.442h0a15.192,15.192,0,0,0,5.91-21.669,366.706,366.706,0,0,0-617.687,1.4,15.192,15.192,0,0,0,5.075,21.335h0a15.158,15.158,0,0,0,20.467-5.142A334.085,334.085,0,0,1,405.456,146.451Z" transform="translate(15.889 0)" fill="#f2df81"/>
      <path id="Path_330" data-name="Path 330" d="M755.731,460.756c0-184.676-149.71-334.386-334.386-334.386S86.96,276.08,86.96,460.756v55.926a46.41,46.41,0,0,0,46.343,46.31H709.422a46.41,46.41,0,0,0,46.31-46.31V469.2C755.7,466.4,755.731,463.594,755.731,460.756Z" transform="translate(0 20.081)" fill="#c65555"/>
      <path id="Path_331" data-name="Path 331" d="M247.942,231.54H376.688V197.017H282.466V148.67H247.942v48.347H153.72V325.763H342.165v59.7H153.72v34.524h94.222v48.347h34.524V419.985h94.222V291.239H188.244v-59.7Z" transform="translate(156.142 72.237)" fill="#a55151"/>
    </g>
    <g id="coin_1_" data-name="coin (1)" transform="translate(15520 8637.466)">
      <ellipse id="Ellipse_67" data-name="Ellipse 67" cx="60.698" cy="60.698" rx="60.698" ry="60.698" transform="translate(11.475 11.498)" fill="#f2df81"/>
      <ellipse id="Ellipse_68" data-name="Ellipse 68" cx="52.46" cy="52.46" rx="52.46" ry="52.46" transform="matrix(0.526, -0.851, 0.851, 0.526, 0, 89.247)" fill="none" stroke="#c9b871" stroke-miterlimit="10" stroke-width="4"/>
      <text id="_" data-name="$" transform="translate(48.51 99.219)" fill="#c9b871" font-size="83" font-family="Helvetica"><tspan x="0" y="0">$</tspan></text>
    </g>
    <g id="coin_1_2" data-name="coin (1)" transform="translate(15664.45 8637.466)">
      <ellipse id="Ellipse_67-2" data-name="Ellipse 67" cx="60.698" cy="60.698" rx="60.698" ry="60.698" transform="translate(11.475 11.498)" fill="#f2df81"/>
      <ellipse id="Ellipse_68-2" data-name="Ellipse 68" cx="52.46" cy="52.46" rx="52.46" ry="52.46" transform="matrix(0.526, -0.851, 0.851, 0.526, 0, 89.247)" fill="none" stroke="#c9b871" stroke-miterlimit="10" stroke-width="4"/>
      <text id="_2" data-name="$" transform="translate(48.51 99.219)" fill="#c9b871" font-size="83" font-family="Helvetica"><tspan x="0" y="0">$</tspan></text>
    </g>
    <g id="coin_1_3" data-name="coin (1)" transform="translate(15808.634 8637.466)">
      <ellipse id="Ellipse_67-3" data-name="Ellipse 67" cx="60.698" cy="60.698" rx="60.698" ry="60.698" transform="translate(11.475 11.498)" fill="#f2df81"/>
      <ellipse id="Ellipse_68-3" data-name="Ellipse 68" cx="52.46" cy="52.46" rx="52.46" ry="52.46" transform="matrix(0.526, -0.851, 0.851, 0.526, 0, 89.247)" fill="none" stroke="#c9b871" stroke-miterlimit="10" stroke-width="4"/>
      <text id="_3" data-name="$" transform="translate(48.51 99.219)" fill="#c9b871" font-size="83" font-family="Helvetica"><tspan x="0" y="0">$</tspan></text>
    </g>
    <g id="coin_1_4" data-name="coin (1)" transform="translate(15952.634 8637.466)">
      <ellipse id="Ellipse_67-4" data-name="Ellipse 67" cx="60.698" cy="60.698" rx="60.698" ry="60.698" transform="translate(11.475 11.498)" fill="#f2df81"/>
      <ellipse id="Ellipse_68-4" data-name="Ellipse 68" cx="52.46" cy="52.46" rx="52.46" ry="52.46" transform="matrix(0.526, -0.851, 0.851, 0.526, 0, 89.247)" fill="none" stroke="#c9b871" stroke-miterlimit="10" stroke-width="4"/>
      <text id="_4" data-name="$" transform="translate(48.51 99.219)" fill="#c9b871" font-size="83" font-family="Helvetica"><tspan x="0" y="0">$</tspan></text>
    </g>
    <g id="coin_1_5" data-name="coin (1)" transform="translate(15586.384 8540.079)">
      <ellipse id="Ellipse_67-5" data-name="Ellipse 67" cx="46.732" cy="46.733" rx="46.732" ry="46.733" transform="translate(8.835 8.853)" fill="#f2df81"/>
      <ellipse id="Ellipse_68-5" data-name="Ellipse 68" cx="40.39" cy="40.39" rx="40.39" ry="40.39" transform="matrix(0.526, -0.851, 0.851, 0.526, 0, 68.713)" fill="none" stroke="#c9b871" stroke-miterlimit="10" stroke-width="4"/>
      <text id="_5" data-name="$" transform="translate(37.349 76.115)" fill="#c9b871" font-size="63" font-family="Helvetica"><tspan x="0" y="0">$</tspan></text>
    </g>
    <g id="coin_1_6" data-name="coin (1)" transform="translate(15697.599 8540.079)">
      <ellipse id="Ellipse_67-6" data-name="Ellipse 67" cx="46.732" cy="46.733" rx="46.732" ry="46.733" transform="translate(8.835 8.853)" fill="#f2df81"/>
      <ellipse id="Ellipse_68-6" data-name="Ellipse 68" cx="40.39" cy="40.39" rx="40.39" ry="40.39" transform="matrix(0.526, -0.851, 0.851, 0.526, 0, 68.713)" fill="none" stroke="#c9b871" stroke-miterlimit="10" stroke-width="4"/>
      <text id="_6" data-name="$" transform="translate(37.349 76.115)" fill="#c9b871" font-size="63" font-family="Helvetica"><tspan x="0" y="0">$</tspan></text>
    </g>
    <g id="coin_1_7" data-name="coin (1)" transform="translate(15808.608 8540.079)">
      <ellipse id="Ellipse_67-7" data-name="Ellipse 67" cx="46.732" cy="46.733" rx="46.732" ry="46.733" transform="translate(8.835 8.853)" fill="#f2df81"/>
      <ellipse id="Ellipse_68-7" data-name="Ellipse 68" cx="40.39" cy="40.39" rx="40.39" ry="40.39" transform="matrix(0.526, -0.851, 0.851, 0.526, 0, 68.713)" fill="none" stroke="#c9b871" stroke-miterlimit="10" stroke-width="4"/>
      <text id="_7" data-name="$" transform="translate(37.349 76.115)" fill="#c9b871" font-size="63" font-family="Helvetica"><tspan x="0" y="0">$</tspan></text>
    </g>
    <g id="coin_1_8" data-name="coin (1)" transform="translate(15919.477 8540.079)">
      <ellipse id="Ellipse_67-8" data-name="Ellipse 67" cx="46.732" cy="46.733" rx="46.732" ry="46.733" transform="translate(8.835 8.853)" fill="#f2df81"/>
      <ellipse id="Ellipse_68-8" data-name="Ellipse 68" cx="40.39" cy="40.39" rx="40.39" ry="40.39" transform="matrix(0.526, -0.851, 0.851, 0.526, 0, 68.713)" fill="none" stroke="#c9b871" stroke-miterlimit="10" stroke-width="4"/>
      <text id="_8" data-name="$" transform="translate(37.349 76.115)" fill="#c9b871" font-size="63" font-family="Helvetica"><tspan x="0" y="0">$</tspan></text>
    </g>
  </g>
</svg>
