<svg id="coin_1_" data-name="coin (1)" xmlns="http://www.w3.org/2000/svg" width="189.668" height="189.668" viewBox="0 0 189.668 189.668">
  <ellipse id="Ellipse_53" data-name="Ellipse 53" cx="94.834" cy="94.834" rx="94.834" ry="94.834" transform="translate(0 0)" fill="#fcd462"/>
  <g id="Group_69" data-name="Group 69" transform="translate(13.195 13.195)">
    <path id="Path_161" data-name="Path 161" d="M110.135,28.5a81.639,81.639,0,1,0,81.638,81.639A81.639,81.639,0,0,0,110.135,28.5Zm0,154.246a72.607,72.607,0,1,1,72.607-72.607A72.688,72.688,0,0,1,110.135,182.742Z" transform="translate(-28.496 -28.496)" fill="#f6c358"/>
    <path id="Path_162" data-name="Path 162" d="M162.264,196.344v-9.332a55.485,55.485,0,0,1-31.451-13.941l9.333-11.122q10.737,9.333,22.119,11.122v-24.8q-14.45-3.449-21.162-9.072t-6.711-16.688q0-11.049,7.73-18.082t20.143-7.678V90.359h8.178v6.523a53.427,53.427,0,0,1,26.593,9.582l-8.313,11.767a41.178,41.178,0,0,0-18.279-7.418v24.033h.384q14.7,3.449,21.6,9.332t6.907,17.073q0,11.189-7.927,18.217t-20.964,7.667v9.208h-8.178Zm-9.021-82.524a9.152,9.152,0,0,0-3.256,7.158,9.012,9.012,0,0,0,2.56,6.774q2.542,2.5,9.717,4.8V110.428Q156.505,110.942,153.244,113.82Zm26.915,56.056a9.88,9.88,0,0,0,.77-14.514q-2.825-2.606-10.487-4.921v23.013A17.886,17.886,0,0,0,180.159,169.876Z" transform="translate(-83.435 -61.713)" fill="#f6c358"/>
  </g>
</svg>
