<svg xmlns="http://www.w3.org/2000/svg" width="268.96" height="299.465" viewBox="0 0 268.96 299.465">
  <g id="corgi" transform="translate(0.407 0)">
    <path id="Path_40" data-name="Path 40" d="M151.257.031A9.524,9.524,0,0,1,159.871,4.1c10.353,14.962,39.562,67.977-1.755,143.786l-84.5-90.031S101.243,4.063,151.257.031Zm0,0" transform="translate(88.974 0)" fill="#ffa83f"/>
    <path id="Path_41" data-name="Path 41" d="M82.717,57.053l40.93,66.974C150,75.68,142.725,39.405,134.37,19.892a6.953,6.953,0,0,0-9-3.709C99.535,26.648,83.722,55.2,82.717,57.053Zm-.053.1c.007-.009.026-.046.053-.1l0,0Zm0,0" transform="translate(99.847 18.839)" fill="#ffb2c1"/>
    <path id="Path_42" data-name="Path 42" d="M27.916.031A9.527,9.527,0,0,0,19.3,4.1C8.949,19.059-20.263,72.073,21.054,147.883l84.5-90.031S77.929,4.063,27.916.031Zm0,0" transform="translate(0 0)" fill="#ffa83f"/>
    <path id="Path_43" data-name="Path 43" d="M169.151,101.3c-7.013-17.826-17.066-35.592-31.469-50.452a117.33,117.33,0,0,0-53.6-31.858,121.451,121.451,0,0,0-10.46,16.032l84.5,90.031A197.419,197.419,0,0,0,169.151,101.3Zm0,0" transform="translate(88.974 22.828)" fill="#f39c18"/>
    <path id="Path_44" data-name="Path 44" d="M15.36,125.055l84.5-90.031A121.531,121.531,0,0,0,89.4,18.992,117.314,117.314,0,0,0,35.8,50.851C21.392,65.707,11.341,83.477,4.33,101.3A197.371,197.371,0,0,0,15.36,125.055Zm0,0" transform="translate(5.694 22.828)" fill="#f39c18"/>
    <path id="Path_45" data-name="Path 45" d="M28.386,16.183a6.957,6.957,0,0,0-9,3.709C11.025,39.405,3.754,75.68,30.1,124.027L71.037,57.053C70.032,55.2,54.216,26.648,28.386,16.183ZM71.037,57.051v0c.027.053.046.086.049.1Zm0,0" transform="translate(14.547 18.839)" fill="#ffb2c1"/>
    <g id="Group_45" data-name="Group 45" transform="translate(27.141 52.865)">
      <path id="Path_46" data-name="Path 46" d="M82.664,34.562c.007-.009.026-.046.053-.1l0,0Zm0,0" transform="translate(72.707 -11.44)" fill="#ff889e"/>
      <path id="Path_47" data-name="Path 47" d="M141.132,62.487A133.11,133.11,0,0,0,126.78,44.821,118.564,118.564,0,0,0,99.966,24.008,114.113,114.113,0,0,0,82.688,47.035l40.933,66.974c10.446-19.17,15.6-36.441,17.51-51.521Zm0,0" transform="translate(72.736 -24.008)" fill="#ff889e"/>
      <path id="Path_48" data-name="Path 48" d="M38.645,34.465v0c.027.049.046.086.049.1Zm0,0" transform="translate(19.798 -11.44)" fill="#ff889e"/>
      <path id="Path_49" data-name="Path 49" d="M26.453,44.821A132.9,132.9,0,0,0,12.1,62.487c1.9,15.081,7.063,32.352,17.51,51.521L70.547,47.035a114.08,114.08,0,0,0-17.28-23.026A118.562,118.562,0,0,0,26.453,44.821Zm0,0" transform="translate(-12.103 -24.008)" fill="#ff889e"/>
    </g>
    <path id="Path_50" data-name="Path 50" d="M63.608,262.524C29.335,252.782,5.273,230.748,5.273,183.88c0,0-4.93-158.975,122-158.975s122,158.975,122,158.975c0,46.866-24.063,68.9-58.338,78.644Zm0,0" transform="translate(6.796 29.934)" fill="#f8b459"/>
    <path id="Path_51" data-name="Path 51" d="M63.607,262.524H81.684C47.411,252.782,23.35,230.748,23.35,183.88c0,0-4.69-151.322,112.959-158.694q-4.51-.285-9.033-.281c-126.934,0-122,158.975-122,158.975,0,.733,0,1.457.016,2.179.737,45.373,24.58,66.875,58.317,76.465Zm0,0" transform="translate(6.797 29.934)" fill="#ffa83f"/>
    <path id="Path_52" data-name="Path 52" d="M206.4,141.573c0,24.757-7.1,53.578-30.606,74.535-18.894,5.372-40.9,7.006-63.671,7.006s-44.779-1.634-63.669-7.006c-23.507-20.957-30.606-49.774-30.606-74.535,0-29.256,36.773-37.579,54.6-39.9a12.316,12.316,0,0,0,10.482-9.945c2.113-11.036,8.7-28.2,29.188-28.2s27.075,17.167,29.19,28.2A12.308,12.308,0,0,0,151.8,101.67c17.834,2.323,54.609,10.647,54.609,39.9Zm0,0" transform="translate(21.947 76.351)" fill="#f9e09d"/>
    <path id="Path_53" data-name="Path 53" d="M57.193,141.135c-11.967-3.4-22.683-8.306-31.571-15.236a86.124,86.124,0,0,0,13.5,15.236q5.311,1.511,10.939,2.641c16.231,3.286,34.225,4.365,52.73,4.365q4.543,0,9.038-.1c-19.534-.408-38.252-2.252-54.633-6.911Zm0,0" transform="translate(31.286 151.323)" fill="#f8b459"/>
    <path id="Path_54" data-name="Path 54" d="M85.784,85.711a2.918,2.918,0,0,0-2.943-2.86H56.229a2.914,2.914,0,0,0-2.941,2.86v.027c0,7.112,7.275,12.879,16.247,12.879S85.784,92.85,85.784,85.738v-.027Zm0,0" transform="translate(64.539 99.581)" fill="#423e4f"/>
    <path id="Path_55" data-name="Path 55" d="M39.675,66.885a4.517,4.517,0,0,0-4.516,4.52v9.653a4.518,4.518,0,0,0,9.037,0V71.405A4.518,4.518,0,0,0,39.675,66.885Zm0,0" transform="translate(42.748 80.393)" fill="#423e4f"/>
    <path id="Path_56" data-name="Path 56" d="M32.878,76.627H23.15a4.519,4.519,0,0,0,0,9.038h9.727a4.519,4.519,0,0,0,0-9.038Zm0,0" transform="translate(22.884 92.102)" fill="#ff889e"/>
    <path id="Path_57" data-name="Path 57" d="M86.588,66.885a4.518,4.518,0,0,0-4.518,4.52v9.653a4.519,4.519,0,0,0,9.038,0V71.405A4.518,4.518,0,0,0,86.588,66.885Zm0,0" transform="translate(99.133 80.393)" fill="#423e4f"/>
    <path id="Path_58" data-name="Path 58" d="M108.425,76.627H98.7a4.519,4.519,0,1,0,0,9.038h9.726a4.519,4.519,0,1,0,0-9.038Zm0,0" transform="translate(113.688 92.102)" fill="#ff889e"/>
    <path id="Path_79" data-name="Path 79" d="M110.251,95.721a5.277,5.277,0,0,0-7.446.5,12.714,12.714,0,0,1-18.674,0,5.292,5.292,0,0,0-7.948,0,12.714,12.714,0,0,1-18.674,0,5.276,5.276,0,0,0-7.943,6.947,22.883,22.883,0,0,0,17.28,7.692,23.211,23.211,0,0,0,13.313-4.142,23.2,23.2,0,0,0,13.309,4.142,22.884,22.884,0,0,0,17.283-7.692,5.278,5.278,0,0,0-.5-7.444Zm0,0" transform="translate(54.418 116.131)" fill="#423e4f"/>
  </g>
</svg>
