<svg xmlns="http://www.w3.org/2000/svg" width="364.605" height="359.284" viewBox="0 0 364.605 359.284">
  <g id="Group_1166" data-name="Group 1166" transform="translate(4471.148 -8294.703)">
    <g id="Group_1146" data-name="Group 1146" transform="translate(-4471.148 8294.703)">
      <path id="Path_20" data-name="Path 20" d="M71.482,191.214a12.09,12.09,0,0,1,8.584,6.8C88.31,216.486,109.32,279.625,48.478,344.4L-25.38,226.448S15.941,179.974,71.482,191.214Z" transform="translate(274.268 -189.461)" fill="#e28d30"/>
      <path id="Path_21" data-name="Path 21" d="M-20.43,227.021l30.955,81c38.8-41.306,38.328-80.6,33.222-103.108a8.7,8.7,0,0,0-9.081-6.554c-30.421,2.753-53.61,27.072-55.092,28.658Zm-.078.082.078-.082h0Z" transform="translate(287.447 -165.466)" fill="#ffb2c1"/>
      <path id="Path_23" data-name="Path 23" d="M65.45,306.123c-3.994-20.37-11.322-41.61-24.012-61.217A149.279,149.279,0,0,0-10.627,195.89,113.417,113.417,0,0,0-25.38,209.057L48.478,327A181.361,181.361,0,0,0,65.45,306.127Z" transform="translate(274.268 -172.07)" fill="#c6782a"/>
      <path id="Path_26" data-name="Path 26" d="M-30.1,197.558l.059-.1h0Z" transform="translate(261.509 -167.828)" fill="#ff889e"/>
      <path id="Path_27" data-name="Path 27" d="M40.255,253.124A158.533,158.533,0,0,0,28.2,230.661,148.667,148.667,0,0,0,3.165,201.155a107.835,107.835,0,0,0-23.652,18.232l30.955,81c15.383-16.38,24.59-32.444,29.788-47.268Z" transform="translate(287.504 -157.828)" fill="#ff889e"/>
      <path id="Path_20-2" data-name="Path 20" d="M23.157,226.448-50.7,344.4C-111.54,279.625-90.529,216.486-82.29,198.017a12.1,12.1,0,0,1,8.584-6.8C-18.161,179.974,23.157,226.448,23.157,226.448Z" transform="translate(92.557 -189.461)" fill="#e28d30"/>
      <path id="Path_21-2" data-name="Path 21" d="M-17.585,227.021c-1.482-1.586-24.671-25.9-55.089-28.658a8.7,8.7,0,0,0-9.085,6.554c-5.105,22.5-5.576,61.8,33.226,103.108l30.955-81Zm.007,0h0l.078.082Z" transform="translate(115.167 -165.466)" fill="#ffb2c1"/>
      <path id="Path_23-2" data-name="Path 23" d="M-85.837,306.127A181.326,181.326,0,0,0-68.869,327L4.989,209.057A113.385,113.385,0,0,0-9.76,195.89a149.247,149.247,0,0,0-52.066,49.016c-12.689,19.607-20.021,40.847-24.015,61.217Z" transform="translate(110.725 -172.07)" fill="#c6782a"/>
      <path id="Path_27-2" data-name="Path 27" d="M-82.609,253.124c5.2,14.823,14.4,30.888,29.784,47.268l30.958-81a107.835,107.835,0,0,0-23.652-18.232,148.42,148.42,0,0,0-25.038,29.506,158.556,158.556,0,0,0-12.056,22.463Z" transform="translate(119.456 -157.828)" fill="#ff889e"/>
      <path id="Path_26-2" data-name="Path 26" d="M-57.3,197.458h0l.059.1Z" transform="translate(187.929 -167.828)" fill="#ff889e"/>
      <path id="Path_28" data-name="Path 28" d="M-59.382,200.785h0l.063.133Z" transform="translate(182.295 -158.829)" fill="#ff889e"/>
      <path id="Path_30" data-name="Path 30" d="M-2.037,529.978c-41.254-13.827-85.3-54.57-85.3-121.089,0,0,9.151-216.168,161.943-216.168S234.742,416.855,234.742,416.855c0,66.518-42.251,99.292-83.506,113.123Z" transform="translate(106.681 -180.642)" fill="#e28d30"/>
      <path id="Path_31" data-name="Path 31" d="M-2.034,529.978H19.725C-21.53,516.151-56.367,480.721-56.367,414.2c0,0,.233-210.615,141.851-221.081q-5.43-.406-10.874-.4c-152.8-.007-161.947,216.168-161.947,216.168,0,1.041,0,2.067.019,3.09.893,64.4,44.674,104.39,85.284,118Z" transform="translate(106.678 -180.642)" fill="#c6782a"/>
      <path id="Path_33" data-name="Path 33" d="M-30.7,299.539c-14.4-4.827-27.3-11.785-38-21.626a118.153,118.153,0,0,0,16.246,21.626q6.391,2.145,13.167,3.753c19.536,4.665,41.2,6.195,63.469,6.195q5.474,0,10.881-.137c-23.512-.578-46.045-3.194-65.763-9.807Z" transform="translate(157.096 49.798)" fill="#f8b459"/>
      <path id="Path_32" data-name="Path 32" d="M-4.46,288.437c7.354-12.756,22.515-36.145,33.018-52.143,5.613-8.551,16.591-8.41,22.063.263L83.977,289.4a13.572,13.572,0,0,0,9.159,6.417c22.719,3.7,60.105,14.631,60.105,46.552h0c0,28.513-8.04,61.561-34.352,86.232a12.777,12.777,0,0,1-5.528,3.079c-22.048,5.728-47.4,7.5-73.6,7.5s-51.565-1.778-73.613-7.5a12.785,12.785,0,0,1-5.5-3.057c-26.553-24.69-38.287-58.1-34.363-86.251,5.191-37.253,43.566-45.215,59.164-46.912A13.507,13.507,0,0,0-4.46,288.437Z" transform="translate(141.522 -79.899)" fill="#fff2d4"/>
      <path id="Path_34" data-name="Path 34" d="M-9.548,245.661c-.041-2.267-1.619-4.079-3.546-4.061H-45.127c-1.923-.019-3.5,1.793-3.538,4.061v.041c0,10.092,8.755,18.276,19.555,18.276S-9.548,255.794-9.548,245.7Z" transform="translate(211.284 -48.427)" fill="#423e4f"/>
      <path id="Path_35" data-name="Path 35" d="M-58.519,228.133c-3,0-5.435,2.871-5.435,6.41v13.712c0,3.542,2.434,6.413,5.439,6.413s5.439-2.871,5.439-6.413v-13.7c0-3.542-2.434-6.417-5.435-6.417Z" transform="translate(169.928 -84.854)" fill="#423e4f"/>
      <path id="Path_37" data-name="Path 37" d="M-20.132,228.133c-3,0-5.439,2.871-5.439,6.413h0v13.708c.044,3.542,2.519,6.369,5.524,6.313,2.938-.052,5.309-2.849,5.354-6.313v-13.7c0-3.542-2.43-6.417-5.435-6.417Z" transform="translate(273.752 -84.854)" fill="#423e4f"/>
    </g>
    <path id="Path_120" data-name="Path 120" d="M-54.5,257.531H28.569" transform="translate(-4275.637 8289.369)" fill="none" stroke="#707070" stroke-linecap="round" stroke-width="0.746"/>
  </g>
</svg>
