<svg id="Layer_1" data-name="Layer 1" xmlns="http://www.w3.org/2000/svg" viewBox="0 0 612 792"><defs><style>.cls-1{fill:#e28d30;}.cls-2{fill:#ffb2c1;}.cls-3{fill:#c6782a;}.cls-4{fill:#ff889e;}.cls-5{fill:#f8b459;}.cls-6{fill:#fff2d4;}.cls-7{fill:#423e4f;}.cls-8{fill:none;stroke:#707070;stroke-linecap:round;stroke-width:0.9px;}</style></defs><g id="Group_1146" data-name="Group 1146"><path id="Path_20-3" data-name="Path 20-3" class="cls-1" d="M463.91,327.19a14.55,14.55,0,0,1,10.34,8.19c9.94,22.26,35.25,98.32-38.05,176.36l-89-142.1S397,313.65,463.91,327.19Z"/><path id="Path_21-3" data-name="Path 21-3" class="cls-2" d="M369.06,399.24l37.29,97.58c46.75-49.76,46.18-97.1,40-124.22a10.48,10.48,0,0,0-10.94-7.89c-36.65,3.31-64.59,32.61-66.38,34.52Zm-.09.09.09-.09h0Z"/><path id="Path_23-3" data-name="Path 23-3" class="cls-3" d="M456.65,486.58C451.83,462,443,436.45,427.72,412.83A179.9,179.9,0,0,0,365,353.77a136.53,136.53,0,0,0-17.77,15.87l89,142.09a218.44,218.44,0,0,0,20.45-25.15Z"/><path id="Path_26-3" data-name="Path 26-3" class="cls-4" d="M326.16,360.89l.07-.12h0Z"/><path id="Path_27-3" data-name="Path 27-3" class="cls-4" d="M442.24,439.89a191.35,191.35,0,0,0-14.52-27.07,179.3,179.3,0,0,0-30.17-35.54,129.6,129.6,0,0,0-28.49,22l37.29,97.59c18.54-19.74,29.63-39.09,35.89-56.95Z"/><path id="Path_20-4" data-name="Path 20-4" class="cls-1" d="M186.78,369.64l-89,142.1c-73.3-78-48-154.1-38.06-176.35a14.57,14.57,0,0,1,10.34-8.2C137,313.65,186.78,369.64,186.78,369.64Z"/><path id="Path_21-4" data-name="Path 21-4" class="cls-2" d="M164.93,399.24c-1.78-1.91-29.72-31.21-66.37-34.53a10.47,10.47,0,0,0-10.94,7.9c-6.15,27.1-6.72,74.45,40,124.22l37.29-97.59Zm0,0h0l.09.09Z"/><path id="Path_23-4" data-name="Path 23-4" class="cls-3" d="M77.35,486.58A218.44,218.44,0,0,0,97.8,511.73l89-142.09A136.53,136.53,0,0,0,169,353.77a179.81,179.81,0,0,0-62.73,59.06C91,436.45,82.16,462,77.35,486.58Z"/><path id="Path_27-4" data-name="Path 27-4" class="cls-4" d="M91.76,439.89c6.27,17.85,17.35,37.21,35.88,56.94l37.3-97.58a129.94,129.94,0,0,0-28.49-22,178.41,178.41,0,0,0-30.17,35.55,190.76,190.76,0,0,0-14.52,27.06Z"/><path id="Path_26-4" data-name="Path 26-4" class="cls-4" d="M204.75,360.77h0l.07.12Z"/><path id="Path_28-2" data-name="Path 28-2" class="cls-4" d="M195.45,375.62h0l.08.16Z"/><path id="Path_30-2" data-name="Path 30-2" class="cls-1" d="M173.44,745.94C123.74,729.28,70.67,680.2,70.67,600.06c0,0,11-260.43,195.11-260.43s192.92,270,192.92,270c0,80.13-50.9,119.62-100.6,136.28Z"/><path id="Path_31-2" data-name="Path 31-2" class="cls-3" d="M173.44,745.94h26.21C150,729.28,108,686.6,108,606.46c0,0,.28-253.74,170.9-266.35q-6.54-.5-13.1-.48c-184.09,0-195.11,260.43-195.11,260.43,0,1.25,0,2.49,0,3.72,1.08,77.59,53.82,125.76,102.75,142.16Z"/><path id="Path_33-2" data-name="Path 33-2" class="cls-5" d="M199.65,745.94c-17.35-5.81-32.89-14.2-45.78-26.05a142,142,0,0,0,19.57,26.05q7.69,2.59,15.86,4.52c23.54,5.62,49.64,7.47,76.47,7.47q6.59,0,13.1-.17c-28.32-.69-55.47-3.85-79.22-11.81Z"/><path id="Path_32-2" data-name="Path 32-2" class="cls-6" d="M212.5,576.31c8.86-15.36,27.12-43.54,39.77-62.82,6.77-10.3,20-10.13,26.58.32L319,577.47a16.39,16.39,0,0,0,11,7.74c27.38,4.45,72.42,17.62,72.42,56.08h0c0,34.35-9.69,74.16-41.39,103.89a15.42,15.42,0,0,1-6.66,3.71c-26.56,6.9-57.1,9-88.67,9s-62.12-2.14-88.68-9a15.44,15.44,0,0,1-6.63-3.69c-32-29.74-46.13-70-41.4-103.91,6.25-44.88,52.49-54.47,71.28-56.51A16.3,16.3,0,0,0,212.5,576.31Z"/><path id="Path_34-2" data-name="Path 34-2" class="cls-7" d="M290.41,562.7c-.05-2.74-2-4.92-4.27-4.9H247.55c-2.32,0-4.22,2.16-4.26,4.9v0c0,12.15,10.54,22,23.55,22s23.57-9.86,23.57-22Z"/><path id="Path_35-2" data-name="Path 35-2" class="cls-7" d="M181.59,497.69c-3.61,0-6.55,3.46-6.55,7.73v16.52c0,4.26,2.93,7.72,6.56,7.72s6.55-3.46,6.55-7.72V505.43c0-4.27-2.93-7.73-6.55-7.73Z"/><path id="Path_37-2" data-name="Path 37-2" class="cls-7" d="M352.92,497.69c-3.61,0-6.55,3.46-6.55,7.73h0v16.51c.05,4.27,3,7.68,6.65,7.61s6.4-3.43,6.45-7.61v-16.5c0-4.27-2.93-7.73-6.55-7.73Z"/></g><path id="Path_120" data-name="Path 120" class="cls-8" d="M217.25,628.91H317.33"/></svg>