<svg xmlns="http://www.w3.org/2000/svg" width="254.525" height="283.393" viewBox="0 0 254.525 283.393">
  <g id="corgi" transform="translate(0.407 0)">
    <path id="Path_20" data-name="Path 20" d="M147.09.03a9.013,9.013,0,0,1,8.152,3.847c9.8,14.159,37.439,64.329-1.661,136.07l-79.964-85.2S99.76,3.845,147.09.03Zm0,0" transform="translate(80.226 0)" fill="#ffa83f"/>
    <path id="Path_21" data-name="Path 21" d="M82.714,54.832l38.733,63.379C146.384,72.459,139.5,38.132,131.6,19.666a6.58,6.58,0,0,0-8.519-3.51c-24.447,9.9-39.411,36.919-40.362,38.676Zm-.05.09c.007-.009.024-.043.05-.09l0,0Zm0,0" transform="translate(90.03 16.986)" fill="#ffb2c1"/>
    <path id="Path_22" data-name="Path 22" d="M26.4.03a9.016,9.016,0,0,0-8.154,3.847C8.447,18.036-19.2,68.205,19.9,139.946l79.965-85.2S73.725,3.845,26.4.03Zm0,0" transform="translate(0 0)" fill="#ffa83f"/>
    <path id="Path_23" data-name="Path 23" d="M164.024,96.885c-6.637-16.87-16.15-33.682-29.78-47.745A111.033,111.033,0,0,0,83.517,18.992a114.932,114.932,0,0,0-9.9,15.171l79.964,85.2a186.832,186.832,0,0,0,10.442-22.477Zm0,0" transform="translate(80.226 20.583)" fill="#f39c18"/>
    <path id="Path_24" data-name="Path 24" d="M14.768,119.363l79.965-85.2a115.007,115.007,0,0,0-9.9-15.171A111.017,111.017,0,0,0,34.108,49.141C20.476,63.2,10.965,80.016,4.33,96.885a186.779,186.779,0,0,0,10.439,22.477Zm0,0" transform="translate(5.134 20.583)" fill="#f39c18"/>
    <path id="Path_25" data-name="Path 25" d="M27.49,16.156a6.584,6.584,0,0,0-8.52,3.51C11.061,38.132,4.181,72.459,29.116,118.211L67.852,54.832C66.9,53.075,51.934,26.059,27.49,16.156ZM67.852,54.83v0c.026.05.043.081.047.09Zm0,0" transform="translate(13.117 16.987)" fill="#ffb2c1"/>
    <g id="Group_44" data-name="Group 44" transform="translate(25.662 50.028)">
      <path id="Path_26" data-name="Path 26" d="M82.664,34.557c.007-.009.024-.043.05-.09l0,0Zm0,0" transform="translate(64.368 -12.676)" fill="#ff889e"/>
      <path id="Path_27" data-name="Path 27" d="M137.995,60.422A125.965,125.965,0,0,0,124.413,43.7a112.2,112.2,0,0,0-25.375-19.7A107.989,107.989,0,0,0,82.688,45.8l38.736,63.379c9.885-18.141,14.766-34.485,16.57-48.756Zm0,0" transform="translate(64.394 -24.008)" fill="#ff889e"/>
      <path id="Path_28" data-name="Path 28" d="M38.645,34.465v0c.026.047.043.081.047.09Zm0,0" transform="translate(16.662 -12.676)" fill="#ff889e"/>
      <path id="Path_29" data-name="Path 29" d="M25.683,43.7A125.764,125.764,0,0,0,12.1,60.422c1.8,14.272,6.684,30.616,16.57,48.756L67.41,45.8A107.958,107.958,0,0,0,51.058,24.008,112.2,112.2,0,0,0,25.683,43.7Zm0,0" transform="translate(-12.103 -24.008)" fill="#ff889e"/>
    </g>
    <path id="Path_30" data-name="Path 30" d="M60.476,249.771c-32.433-9.219-55.2-30.071-55.2-74.423,0,0-4.665-150.443,115.457-150.443S236.185,175.348,236.185,175.348c0,44.351-22.771,65.2-55.207,74.423Zm0,0" transform="translate(6.128 26.991)" fill="#f8b459"/>
    <path id="Path_31" data-name="Path 31" d="M60.475,249.771H77.582c-32.433-9.219-55.2-30.071-55.2-74.423,0,0-4.438-143.2,106.9-150.177q-4.268-.27-8.548-.266C.605,24.9,5.272,175.348,5.272,175.348c0,.694,0,1.379.016,2.062.7,42.938,23.261,63.286,55.188,72.362Zm0,0" transform="translate(6.129 26.991)" fill="#ffa83f"/>
    <path id="Path_32" data-name="Path 32" d="M196.285,137.384c0,23.429-6.718,50.7-28.964,70.535-17.88,5.084-38.7,6.63-60.254,6.63S64.692,213,46.816,207.919c-22.246-19.833-28.964-47.1-28.964-70.535,0-27.685,34.8-35.562,51.674-37.761a11.655,11.655,0,0,0,9.92-9.411c2-10.444,8.233-26.689,27.621-26.689s25.622,16.245,27.623,26.689a11.648,11.648,0,0,0,9.916,9.411c16.877,2.2,51.678,10.075,51.678,37.761Zm0,0" transform="translate(19.789 68.844)" fill="#f9e09d"/>
    <path id="Path_33" data-name="Path 33" d="M55.5,140.317c-11.324-3.219-21.465-7.86-29.877-14.419a81.5,81.5,0,0,0,12.772,14.419q5.026,1.43,10.352,2.5c15.36,3.11,32.388,4.131,49.9,4.131q4.3,0,8.553-.09c-18.485-.386-36.2-2.131-51.7-6.54Zm0,0" transform="translate(28.21 136.445)" fill="#f8b459"/>
    <path id="Path_34" data-name="Path 34" d="M84.04,85.557a2.762,2.762,0,0,0-2.785-2.707H56.071a2.758,2.758,0,0,0-2.783,2.707v.026c0,6.73,6.884,12.187,15.375,12.187S84.04,92.313,84.04,85.583v-.026Zm0,0" transform="translate(58.193 89.791)" fill="#423e4f"/>
    <path id="Path_35" data-name="Path 35" d="M39.433,66.885a4.274,4.274,0,0,0-4.274,4.277V80.3a4.276,4.276,0,1,0,8.552,0V71.163A4.276,4.276,0,0,0,39.433,66.885Zm0,0" transform="translate(38.545 72.488)" fill="#423e4f"/>
    <path id="Path_36" data-name="Path 36" d="M32.113,76.627H22.908a4.277,4.277,0,0,0,0,8.553h9.205a4.277,4.277,0,0,0,0-8.553Zm0,0" transform="translate(20.634 83.046)" fill="#ff889e"/>
    <path id="Path_37" data-name="Path 37" d="M86.346,66.885a4.276,4.276,0,0,0-4.276,4.277V80.3a4.277,4.277,0,0,0,8.553,0V71.163A4.276,4.276,0,0,0,86.346,66.885Zm0,0" transform="translate(89.386 72.488)" fill="#423e4f"/>
    <path id="Path_38" data-name="Path 38" d="M107.66,76.627h-9.2a4.277,4.277,0,1,0,0,8.553h9.2a4.277,4.277,0,1,0,0-8.553Zm0,0" transform="translate(102.51 83.046)" fill="#ff889e"/>
    <path id="Path_120" data-name="Path 120" d="M48.133,112.958h65.305" transform="translate(43.609 101.482)" fill="none" stroke="#707070" stroke-linecap="round" stroke-width="2"/>
  </g>
</svg>
