<svg xmlns="http://www.w3.org/2000/svg" width="972.879" height="508.45" viewBox="0 0 972.879 508.45">
  <g id="Group_1163" data-name="Group 1163" transform="translate(-12290.039 -8335.69)">
    <g id="Group_1155" data-name="Group 1155" transform="translate(3206 5)">
      <g id="Group_1151" data-name="Group 1151" transform="translate(9084.039 8330.69)">
        <path id="Path_20" data-name="Path 20" d="M100.605,191.742a15.726,15.726,0,0,1,11.165,8.847c10.722,24.022,38.05,106.146-41.086,190.395L-25.38,237.569S28.365,177.121,100.605,191.742Z" transform="translate(349.101 -189.461)" fill="#e28d30"/>
        <path id="Path_21" data-name="Path 21" d="M-20.407,235.648l40.262,105.36c50.468-53.726,49.852-104.84,43.211-134.11a11.315,11.315,0,0,0-11.811-8.525c-39.568,3.58-69.729,35.212-71.657,37.274Zm-.1.106.1-.106h0Z" transform="translate(367.707 -155.585)" fill="#ffb2c1"/>
        <path id="Path_23" data-name="Path 23" d="M92.76,339.267c-5.195-26.494-14.727-54.121-31.231-79.623A194.162,194.162,0,0,0-6.191,195.89,147.518,147.518,0,0,0-25.38,213.016l96.065,153.41A235.891,235.891,0,0,0,92.76,339.272Z" transform="translate(349.101 -164.908)" fill="#c6782a"/>
        <path id="Path_26" data-name="Path 26" d="M-30.1,197.588l.077-.13h0Z" transform="translate(331.088 -158.92)" fill="#ff889e"/>
        <path id="Path_27" data-name="Path 27" d="M58.519,268.75a206.2,206.2,0,0,0-15.676-29.217,193.366,193.366,0,0,0-32.566-38.378,140.258,140.258,0,0,0-30.764,23.714l40.262,105.36c20.008-21.3,31.983-42.2,38.744-61.479Z" transform="translate(367.787 -144.801)" fill="#ff889e"/>
        <path id="Path_20-2" data-name="Path 20" d="M57.948,237.569-38.116,390.984c-79.131-84.249-51.8-166.372-41.086-190.395a15.735,15.735,0,0,1,11.165-8.847C4.208,177.121,57.948,237.569,57.948,237.569Z" transform="translate(92.557 -189.461)" fill="#e28d30"/>
        <path id="Path_21-2" data-name="Path 21" d="M2.443,235.648c-1.928-2.062-32.089-33.694-71.652-37.274A11.321,11.321,0,0,0-81.025,206.9c-6.64,29.27-7.252,80.384,43.216,134.11L2.453,235.648Zm.01,0h0l.1.106Z" transform="translate(124.479 -155.585)" fill="#ffb2c1"/>
        <path id="Path_23-2" data-name="Path 23" d="M-85.836,339.272a235.846,235.846,0,0,0,22.071,27.155L32.3,213.016A147.477,147.477,0,0,0,13.115,195.89,194.121,194.121,0,0,0-54.6,259.644c-16.5,25.5-26.041,53.128-31.236,79.623Z" transform="translate(118.207 -164.908)" fill="#c6782a"/>
        <path id="Path_27-2" data-name="Path 27" d="M-82.608,268.75c6.761,19.28,18.731,40.175,38.739,61.479L-3.6,224.869a140.258,140.258,0,0,0-30.764-23.714,193.045,193.045,0,0,0-32.566,38.378A206.228,206.228,0,0,0-82.613,268.75Z" transform="translate(130.534 -144.801)" fill="#ff889e"/>
        <path id="Path_26-2" data-name="Path 26" d="M-57.3,197.458h0l.077.13Z" transform="translate(227.206 -158.92)" fill="#ff889e"/>
        <path id="Path_28" data-name="Path 28" d="M-59.382,200.785h0l.082.174Z" transform="translate(219.251 -146.214)" fill="#ff889e"/>
        <path id="Path_30" data-name="Path 30" d="M23.61,631.381C-30.049,613.4-87.336,560.4-87.336,473.885c0,0,11.9-281.163,210.634-281.163S331.581,484.245,331.581,484.245c0,86.518-54.955,129.146-108.613,147.135Z" transform="translate(112.497 -177.01)" fill="#e28d30"/>
        <path id="Path_31" data-name="Path 31" d="M23.613,631.381h28.3C-1.744,613.4-47.056,567.313-47.056,480.79c0,0,.3-273.94,184.5-287.553q-7.062-.528-14.143-.516c-198.736-.01-210.639,281.164-210.639,281.164,0,1.354,0,2.689.024,4.019,1.161,83.762,58.106,135.777,110.926,153.482Z" transform="translate(112.494 -177.01)" fill="#c6782a"/>
        <path id="Path_33" data-name="Path 33" d="M-19.271,306.041C-38,299.762-54.781,290.712-68.7,277.913a153.678,153.678,0,0,0,21.131,28.128q8.313,2.79,17.126,4.882c25.41,6.067,53.581,8.057,82.553,8.057q7.12,0,14.153-.178c-30.581-.752-59.889-4.154-85.535-12.756Z" transform="translate(183.674 148.33)" fill="#f8b459"/>
        <path id="Path_32" data-name="Path 32" d="M16.585,306.017C26.151,289.426,45.87,259,59.532,238.2c7.3-11.122,21.579-10.939,28.7.342l43.385,68.737a17.652,17.652,0,0,0,11.912,8.346c29.55,4.819,78.177,19.03,78.177,60.549h0c0,37.086-10.457,80.071-44.681,112.16a16.617,16.617,0,0,1-7.19,4c-28.677,7.45-61.648,9.753-95.732,9.753S7.03,499.775-21.648,492.33a16.63,16.63,0,0,1-7.151-3.976c-34.537-32.113-49.8-75.565-44.7-112.184,6.751-48.454,56.665-58.81,76.953-61.017C8.779,314.576,13.583,311.231,16.585,306.017Z" transform="translate(161.687 -34.779)" fill="#fff2d4"/>
        <path id="Path_34" data-name="Path 34" d="M2.213,246.882C2.16,243.932.107,241.576-2.4,241.6H-44.063c-2.5-.024-4.554,2.332-4.6,5.281v.053c0,13.127,11.387,23.772,25.434,23.772S2.213,260.061,2.213,246.935Z" transform="translate(260.178 9.654)" fill="#423e4f"/>
        <path id="Path_35" data-name="Path 35" d="M-56.885,228.133c-3.9,0-7.069,3.735-7.069,8.337V254.3c0,4.607,3.166,8.342,7.074,8.342s7.074-3.735,7.074-8.342V236.479c0-4.607-3.166-8.346-7.069-8.346Z" transform="translate(201.791 -41.775)" fill="#423e4f"/>
        <path id="Path_37" data-name="Path 37" d="M-18.5,228.133c-3.908,0-7.074,3.735-7.074,8.342h0V254.3c.058,4.607,3.277,8.284,7.185,8.211,3.821-.067,6.905-3.706,6.963-8.211V236.479c0-4.607-3.161-8.346-7.069-8.346Z" transform="translate(348.372 -41.775)" fill="#423e4f"/>
      </g>
      <path id="Path_120" data-name="Path 120" d="M-54.5,257.531H53.544" transform="translate(9321.95 8401.185)" fill="none" stroke="#707070" stroke-linecap="round" stroke-width="3"/>
    </g>
    <path id="bone_1_" data-name="bone (1)" d="M264.386,366.529a57.7,57.7,0,0,0-9.083-5.654l100-132.7a56.314,56.314,0,0,0,8.356,7.7,57.086,57.086,0,1,0,28.815-102.409,57.086,57.086,0,1,0-90.533,55.882,58.763,58.763,0,0,0,8.651,5.382L210.684,327.337a57.086,57.086,0,1,0-36.763,95.143A57.086,57.086,0,1,0,264.454,366.6Z" transform="matrix(0.985, 0.174, -0.174, 0.985, 12829.782, 8302.991)" fill="#d6d6d6"/>
    <g id="Group_1157" data-name="Group 1157" transform="translate(1425)">
      <line id="Line_71" data-name="Line 71" x2="48.784" y2="75.393" transform="translate(11516.947 8372.422)" fill="none" stroke="#fff" stroke-width="3"/>
      <line id="Line_72" data-name="Line 72" y2="66.523" transform="translate(11676.603 8345.813)" fill="none" stroke="#fff" stroke-width="3"/>
      <line id="Line_73" data-name="Line 73" x1="26.609" y2="53.219" transform="translate(11796.345 8345.813)" fill="none" stroke="#fff" stroke-width="3"/>
    </g>
  </g>
</svg>
