<svg id="Layer_1" data-name="Layer 1" xmlns="http://www.w3.org/2000/svg" viewBox="0 0 612 792"><defs><style>.cls-1{fill:#e28d30;}.cls-2{fill:#ffb2c1;}.cls-3{fill:#c6782a;}.cls-4{fill:#ff889e;}.cls-5{fill:#f8b459;}.cls-6{fill:#fff2d4;}.cls-7{fill:#423e4f;}</style></defs><g id="Group_1145" data-name="Group 1145"><path id="Path_20" data-name="Path 20" class="cls-1" d="M465.92,147.1a14.7,14.7,0,0,1,10.45,8.27c10,22.48,35.6,99.32-38.45,178.15L348,190S398.33,133.42,465.92,147.1Z"/><path id="Path_21" data-name="Path 21" class="cls-2" d="M370.1,219.87l37.67,98.58C455,268.18,454.42,220.36,448.21,193a10.58,10.58,0,0,0-11.06-8c-37,3.35-65.24,32.94-67,34.87Zm-.09.1.09-.1h0Z"/><path id="Path_23" data-name="Path 23" class="cls-3" d="M458.58,308.1c-4.86-24.79-13.78-50.64-29.22-74.5A181.71,181.71,0,0,0,366,174,137.9,137.9,0,0,0,348,190l89.88,143.54a220.94,220.94,0,0,0,20.66-25.42Z"/><path id="Path_26" data-name="Path 26" class="cls-4" d="M326.77,181.14l.07-.12h0Z"/><path id="Path_27" data-name="Path 27" class="cls-4" d="M444,260.94a192.12,192.12,0,0,0-14.68-27.34,180.71,180.71,0,0,0-30.46-35.91,131.23,131.23,0,0,0-28.79,22.19l37.67,98.58C426.49,298.52,437.7,279,444,260.93Z"/><path id="Path_20-2" data-name="Path 20-2" class="cls-1" d="M186,190,96.09,333.52C22,254.69,47.61,177.85,57.64,155.37a14.73,14.73,0,0,1,10.45-8.27C135.68,133.42,186,190,186,190Z"/><path id="Path_21-2" data-name="Path 21-2" class="cls-2" d="M163.9,219.87c-1.8-1.93-30-31.52-67-34.87a10.59,10.59,0,0,0-11.06,8c-6.21,27.38-6.78,75.21,40.44,125.48l37.67-98.57Zm0,0h0l.1.1Z"/><path id="Path_23-2" data-name="Path 23-2" class="cls-3" d="M75.43,308.1a220.85,220.85,0,0,0,20.65,25.42L186,190a138,138,0,0,0-18-16,181.77,181.77,0,0,0-63.36,59.65C89.21,257.47,80.29,283.31,75.43,308.1Z"/><path id="Path_27-2" data-name="Path 27-2" class="cls-4" d="M90,260.94c6.32,18,17.52,37.59,36.24,57.52l37.68-98.57a131.45,131.45,0,0,0-28.78-22.2,180.81,180.81,0,0,0-30.48,35.91A193.07,193.07,0,0,0,90,260.94Z"/><path id="Path_26-2" data-name="Path 26-2" class="cls-4" d="M204.12,181h0l.07.12Z"/><path id="Path_28" data-name="Path 28" class="cls-4" d="M194.73,196h0l.07.16Z"/><path id="Path_30" data-name="Path 30" class="cls-1" d="M172.5,570.1C122.29,553.27,68.69,503.69,68.69,422.73c0,0,11.13-263.07,197.08-263.07S460.65,432.43,460.65,432.43c0,80.95-51.41,120.84-101.62,137.67Z"/><path id="Path_31" data-name="Path 31" class="cls-3" d="M172.5,570.1H199c-50.21-16.83-92.62-59.94-92.62-140.9,0,0,.29-256.32,172.64-269q-6.62-.5-13.23-.49c-186,0-197.09,263.07-197.09,263.07,0,1.27,0,2.52,0,3.77,1.08,78.37,54.36,127,103.79,143.6Z"/><path id="Path_33" data-name="Path 33" class="cls-5" d="M199,570.1c-17.52-5.87-33.22-14.34-46.25-26.31A143.79,143.79,0,0,0,172.5,570.1q7.77,2.63,16,4.57c23.78,5.67,50.14,7.54,77.24,7.54q6.66,0,13.24-.16c-28.61-.71-56-3.89-80-11.94Z"/><path id="Path_32" data-name="Path 32" class="cls-6" d="M212,398.75c9-15.52,27.4-44,40.18-63.46,6.83-10.4,20.19-10.23,26.85.32l40.6,64.32a16.53,16.53,0,0,0,11.14,7.81c27.65,4.5,73.15,17.8,73.15,56.65h0c0,34.7-9.79,74.92-41.81,105a15.48,15.48,0,0,1-6.72,3.74c-26.84,7-57.69,9.13-89.57,9.13s-62.76-2.16-89.59-9.13a15.44,15.44,0,0,1-6.69-3.72c-32.32-30-46.6-70.7-41.82-105,6.31-45.34,53-55,72-57.09A16.45,16.45,0,0,0,212,398.75Z"/><path id="Path_34" data-name="Path 34" class="cls-7" d="M290.65,385c0-2.75-2-5-4.31-4.94h-39c-2.34,0-4.26,2.18-4.31,4.94V385c0,12.29,10.66,22.25,23.8,22.25s23.8-10,23.8-22.25Z"/><path id="Path_35" data-name="Path 35" class="cls-7" d="M180.73,319.33c-3.65,0-6.62,3.49-6.62,7.8v16.69c0,4.31,3,7.8,6.62,7.8s6.62-3.49,6.62-7.8V327.14c0-4.31-3-7.81-6.62-7.81Z"/><path id="Path_37" data-name="Path 37" class="cls-7" d="M353.8,319.33c-3.65,0-6.62,3.5-6.62,7.81h0v16.67c.05,4.31,3.07,7.75,6.72,7.69s6.46-3.47,6.52-7.69V327.14c0-4.31-3-7.81-6.62-7.81Z"/><path id="Path_247-2" data-name="Path 247-2" class="cls-7" d="M294,436.35a6.71,6.71,0,0,0-9.49.07,7.09,7.09,0,0,0-.57.66h0a7.57,7.57,0,0,1-10.65,1.05,7.72,7.72,0,0,1-.72-.68,3.92,3.92,0,0,1-.34-.37,6.74,6.74,0,0,0-9.43-1.29,6.28,6.28,0,0,0-.67.59,6.13,6.13,0,0,0-.65.7,7.57,7.57,0,0,1-10.65,1.05,9.33,9.33,0,0,1-.73-.68c-.11-.12-.23-.24-.33-.37a6.71,6.71,0,0,0-9.42-1.14,7.32,7.32,0,0,0-.66.59,8.35,8.35,0,0,0-.67,10.84,21.22,21.22,0,0,0,16.6,8.11,20.87,20.87,0,0,0,11.23-3.28A20.87,20.87,0,0,0,278,455.48a21.22,21.22,0,0,0,16.6-8.11A8.35,8.35,0,0,0,294,436.35Z"/></g></svg>