<svg xmlns="http://www.w3.org/2000/svg" width="980.774" height="516.778" viewBox="0 0 980.774 516.778">
  <g id="Group_1162" data-name="Group 1162" transform="translate(-10909.144 -8316.362)">
    <path id="bone_1_" data-name="bone (1)" d="M264.386,366.529a57.7,57.7,0,0,0-9.083-5.654l100-132.7a56.314,56.314,0,0,0,8.356,7.7,57.086,57.086,0,1,0,28.815-102.409,57.086,57.086,0,1,0-90.533,55.882,58.763,58.763,0,0,0,8.651,5.382L210.684,327.337a57.086,57.086,0,1,0-36.763,95.143A57.086,57.086,0,1,0,264.454,366.6Z" transform="matrix(0.985, 0.174, -0.174, 0.985, 11456.782, 8291.991)" fill="#d6d6d6"/>
    <g id="Group_1156" data-name="Group 1156">
      <line id="Line_71" data-name="Line 71" x2="48.784" y2="75.393" transform="translate(11516.947 8372.422)" fill="none" stroke="#fff" stroke-width="3"/>
      <line id="Line_72" data-name="Line 72" y2="66.523" transform="translate(11676.603 8345.813)" fill="none" stroke="#fff" stroke-width="3"/>
      <line id="Line_73" data-name="Line 73" x1="26.609" y2="53.219" transform="translate(11796.345 8345.813)" fill="none" stroke="#fff" stroke-width="3"/>
    </g>
    <g id="Group_1153" data-name="Group 1153" transform="translate(10909.144 8316.362)">
      <path id="Path_20" data-name="Path 20" d="M234,195.081a16.1,16.1,0,0,1,11.431,9.058c10.977,24.594,38.956,108.673-42.064,194.927L105.018,242S160.043,180.112,234,195.081Z" transform="translate(226.409 -192.746)" fill="#e28d30"/>
      <path id="Path_21" data-name="Path 21" d="M109.994,239.821l41.215,107.868c51.675-55,51.043-107.336,44.245-137.3a11.585,11.585,0,0,0-12.092-8.728c-40.51,3.666-71.389,36.05-73.363,38.161Zm-.1.109.1-.109h0Z" transform="translate(245.574 -157.852)" fill="#ffb2c1"/>
      <path id="Path_23" data-name="Path 23" d="M225.97,345.965c-5.318-27.125-15.077-55.409-31.975-81.518a198.783,198.783,0,0,0-69.332-65.272,150.7,150.7,0,0,0-19.646,17.534L203.369,373.77a241.125,241.125,0,0,0,22.6-27.806Z" transform="translate(226.409 -167.455)" fill="#c6782a"/>
      <path id="Path_26" data-name="Path 26" d="M100.3,200.871l.079-.128h0Z" transform="translate(207.854 -161.287)" fill="#ff889e"/>
      <path id="Path_27" data-name="Path 27" d="M190.8,273.644a210.635,210.635,0,0,0-16.054-29.912,197.781,197.781,0,0,0-33.336-39.291,143.628,143.628,0,0,0-31.5,24.278l41.225,107.868c20.484-21.811,32.744-43.2,39.666-62.943Z" transform="translate(245.652 -146.745)" fill="#ff889e"/>
      <path id="Path_20-2" data-name="Path 20" d="M191.929,242,93.578,399.066C12.563,312.812,40.541,228.733,51.514,204.139a16.11,16.11,0,0,1,11.431-9.058C136.91,180.112,191.929,242,191.929,242Z" transform="translate(-37.841 -192.746)" fill="#e28d30"/>
      <path id="Path_21-2" data-name="Path 21" d="M134.9,239.821c-1.973-2.112-32.853-34.5-73.358-38.161a11.587,11.587,0,0,0-12.1,8.728c-6.8,29.967-7.425,82.3,44.245,137.3l41.22-107.868Zm.01,0h0l.1.109Z" transform="translate(-4.96 -157.852)" fill="#ffb2c1"/>
      <path id="Path_23-2" data-name="Path 23" d="M44.557,345.965a241.129,241.129,0,0,0,22.6,27.806l98.351-157.061a150.7,150.7,0,0,0-19.646-17.534,198.726,198.726,0,0,0-69.327,65.272c-16.9,26.109-26.661,54.393-31.98,81.518Z" transform="translate(-11.421 -167.455)" fill="#c6782a"/>
      <path id="Path_27-2" data-name="Path 27" d="M47.79,273.644c6.917,19.739,19.177,41.132,39.661,62.943l41.225-107.868a143.6,143.6,0,0,0-31.5-24.278,197.641,197.641,0,0,0-33.341,39.291,210.638,210.638,0,0,0-16.054,29.912Z" transform="translate(1.277 -146.745)" fill="#ff889e"/>
      <path id="Path_26-2" data-name="Path 26" d="M73.1,200.743h0l.079.128Z" transform="translate(100.852 -161.287)" fill="#ff889e"/>
      <path id="Path_28" data-name="Path 28" d="M71.016,204.07h0l.079.178Z" transform="translate(92.659 -148.2)" fill="#ff889e"/>
      <path id="Path_30" data-name="Path 30" d="M156.648,645.107C101.713,626.7,43.062,572.44,43.062,483.857c0,0,12.186-287.851,215.648-287.851S471.945,494.47,471.945,494.47c0,88.578-56.258,132.221-111.194,150.638Z" transform="translate(-17.302 -179.921)" fill="#e28d30"/>
      <path id="Path_31" data-name="Path 31" d="M156.652,645.108h28.975C130.692,626.7,84.3,579.515,84.3,490.932c0,0,.316-280.461,188.9-294.4q-7.23-.54-14.48-.528C55.242,196,43.061,483.858,43.061,483.858c0,1.386,0,2.758.025,4.12,1.184,85.756,59.489,139.009,113.567,157.136Z" transform="translate(-17.305 -179.921)" fill="#c6782a"/>
      <path id="Path_33" data-name="Path 33" d="M112.3,310c-19.177-6.428-36.356-15.694-50.6-28.8A157.338,157.338,0,0,0,83.334,310q8.51,2.856,17.534,4.993c26.015,6.211,54.857,8.254,84.518,8.254q7.282,0,14.49-.182c-31.314-.77-61.315-4.253-87.572-13.059Z" transform="translate(56.013 155.191)" fill="#f8b459"/>
      <path id="Path_32" data-name="Path 32" d="M149.151,311.113c9.793-16.986,29.982-48.132,43.968-69.436,7.474-11.387,22.088-11.2,29.38.35L266.916,312.4a18.071,18.071,0,0,0,12.2,8.545c30.253,4.929,80.038,19.483,80.038,61.991h0c0,37.969-10.706,81.977-45.744,114.83a17.015,17.015,0,0,1-7.361,4.1c-29.36,7.627-63.116,9.986-98.011,9.986s-68.671-2.368-98.026-9.99a17.08,17.08,0,0,1-7.321-4.07C67.327,464.913,51.7,420.422,56.927,382.936c6.912-49.607,58.014-60.21,78.785-62.469C141.158,319.875,146.072,316.451,149.151,311.113Z" transform="translate(33.365 -33.418)" fill="#fff2d4"/>
      <path id="Path_34" data-name="Path 34" d="M133.817,250.292c-.049-3.019-2.151-5.432-4.716-5.407H86.445c-2.561-.025-4.667,2.388-4.712,5.407v.054c0,13.439,11.658,24.337,26.04,24.337s26.044-10.9,26.044-24.337Z" transform="translate(134.815 12.35)" fill="#423e4f"/>
      <path id="Path_35" data-name="Path 35" d="M73.682,231.418c-4,0-7.238,3.819-7.238,8.535v18.255c0,4.716,3.241,8.54,7.243,8.54s7.243-3.823,7.243-8.54V239.963c0-4.717-3.241-8.545-7.243-8.545Z" transform="translate(74.674 -40.624)" fill="#423e4f"/>
      <path id="Path_37" data-name="Path 37" d="M112.069,231.418c-4,0-7.243,3.824-7.243,8.54h0v18.249c.059,4.721,3.355,8.486,7.351,8.412,3.917-.069,7.075-3.794,7.134-8.412V239.963c0-4.717-3.236-8.545-7.238-8.545Z" transform="translate(225.658 -40.624)" fill="#423e4f"/>
      <path id="Path_247" data-name="Path 247" d="M142.455,259.058a7.341,7.341,0,0,0-11.012.8v0a8.275,8.275,0,0,1-12.443.4c-.128-.133-.252-.267-.37-.4a7.365,7.365,0,0,0-11.051-.775,7.507,7.507,0,0,0-.706.775,8.277,8.277,0,0,1-12.447.4q-.192-.192-.37-.4a7.34,7.34,0,0,0-11.027-.607,9.14,9.14,0,0,0-.73,11.86,23.19,23.19,0,0,0,18.166,8.871,22.827,22.827,0,0,0,12.285-3.582,22.827,22.827,0,0,0,12.285,3.582,23.19,23.19,0,0,0,18.166-8.871A9.131,9.131,0,0,0,142.455,259.058Z" transform="translate(129.799 59.783)" fill="#423e4f"/>
    </g>
  </g>
</svg>
