<svg xmlns="http://www.w3.org/2000/svg" width="307.113" height="273.101" viewBox="0 0 307.113 273.101">
  <g id="dog" transform="translate(0 2)">
    <path id="Path_228" data-name="Path 228" d="M514.534,2.733a8.612,8.612,0,0,1,5.7,6.191c4.081,17.035,14.627,76.634-29.364,103.786L417.641,30.818s36.314-47.7,96.893-28.085Zm0,0" transform="translate(-217.23)" fill="#ffb25a"/>
    <path id="Path_229" data-name="Path 229" d="M440.265,79.732l44.97,50.725c14.649-9.042,22.469-25.024,23.249-47.5A122.272,122.272,0,0,0,507.272,61.8a6.581,6.581,0,0,0-5.464-5.593,66.973,66.973,0,0,0-10.49-.84,63.037,63.037,0,0,0-29.534,7.376,73.776,73.776,0,0,0-21.519,16.988Zm-.109.131c.006-.006.043-.052.109-.131l0,0Zm0,0" transform="translate(-228.941 -29.839)" fill="#ffb2c1"/>
    <path id="Path_230" data-name="Path 230" d="M9.809,2.733a8.612,8.612,0,0,0-5.7,6.191C.026,25.96-10.52,85.558,33.471,112.71L106.7,30.818S70.388-16.883,9.809,2.733Zm0,0" fill="#ffb25a"/>
    <path id="Path_231" data-name="Path 231" d="M472.069,65.611a143.437,143.437,0,0,0-39.926-28.224A84.646,84.646,0,0,0,417.64,51.3L490.872,133.2a65.778,65.778,0,0,0,15.375-13.039A142.71,142.71,0,0,0,472.069,65.61Zm0,0" transform="translate(-217.23 -20.486)" fill="#ff9c20"/>
    <path id="Path_232" data-name="Path 232" d="M111.817,37.387a144.11,144.11,0,0,0-74.105,82.771A65.776,65.776,0,0,0,53.086,133.2L126.317,51.3a84.49,84.49,0,0,0-14.5-13.918Zm0,0" transform="translate(-19.615 -20.486)" fill="#ff9c20"/>
    <path id="Path_233" data-name="Path 233" d="M104.087,62.747a63.01,63.01,0,0,0-29.536-7.38,66.975,66.975,0,0,0-10.49.84A6.58,6.58,0,0,0,58.6,61.8a122.268,122.268,0,0,0-1.213,21.153c.78,22.479,8.6,38.46,23.249,47.5l44.972-50.725a73.786,73.786,0,0,0-21.519-16.985Zm21.521,16.979,0,.006c.066.079.1.124.107.131Zm0,0" transform="translate(-29.815 -29.839)" fill="#ffb2c1"/>
    <g id="Group_110" data-name="Group 110" transform="translate(30.546 30.556)">
      <path id="Path_234" data-name="Path 234" d="M440.156,106.27c.006-.006.043-.052.109-.131l0,0Zm0,0" transform="translate(-259.487 -86.801)" fill="#ff889e"/>
      <path id="Path_235" data-name="Path 235" d="M505.626,108.2a145.042,145.042,0,0,0-38.743-42.359q-2.514,1.063-4.98,2.349a73.817,73.817,0,0,0-21.519,16.986l44.97,50.725c9.9-6.109,16.673-15.389,20.272-27.7Zm0,0" transform="translate(-259.605 -65.844)" fill="#ff889e"/>
      <path id="Path_236" data-name="Path 236" d="M107.382,68.2c-1.646-.862-3.307-1.64-4.982-2.351a145.163,145.163,0,0,0-38.743,42.361c3.6,12.308,10.375,21.59,20.272,27.7L128.9,85.183A73.784,73.784,0,0,0,107.382,68.2Zm0,0" transform="translate(-63.656 -65.846)" fill="#ff889e"/>
      <path id="Path_237" data-name="Path 237" d="M199.623,106.129l0,.006c.066.079.1.124.107.131Zm0,0" transform="translate(-134.376 -86.797)" fill="#ff889e"/>
    </g>
    <path id="Path_238" data-name="Path 238" d="M101.916,265.222l.006.019a124.691,124.691,0,1,1,165.848,0v-.019Zm0,0" transform="translate(-31.286 -25.704)" fill="#ffb25a"/>
    <path id="Path_239" data-name="Path 239" d="M60.148,172.108a124.382,124.382,0,0,0,41.773,93.129l-.006-.019h18.522A124.7,124.7,0,0,1,194.111,47.759c-.038-.006-.073-.006-.107-.008-3.033-.2-6.109-.336-9.162-.337A124.676,124.676,0,0,0,60.148,172.108Zm0,0" transform="translate(-31.285 -25.702)" fill="#ff9c20"/>
    <path id="Path_240" data-name="Path 240" d="M313.041,409.448v.019a124.709,124.709,0,0,1-165.848,0l-.006-.019c16.263-48.037,39.559-41.3,57.481-70.405a29.747,29.747,0,0,1,24.321-14.34h2.249a29.744,29.744,0,0,1,24.321,14.34c17.922,29.1,41.218,22.368,57.481,70.405Zm0,0" transform="translate(-76.557 -169.93)" fill="#e7e7e7"/>
    <path id="Path_241" data-name="Path 241" d="M233.825,518.1c1.35,0,2.692-.122,4.04-.184.5-.032,1.008-.062,1.516-.1a124.676,124.676,0,0,1-86.775-44.828,128.661,128.661,0,0,0-5.419,13.588l.006.019q3.1,2.761,6.379,5.316c3.659,2.849,7.488,5.414,11.4,7.9a124.09,124.09,0,0,0,65.145,18.349c.887,0,3.363-.062,3.711-.062Zm0,0" transform="translate(-76.557 -247.056)" fill="#c7c5cb"/>
    <path id="Path_242" data-name="Path 242" d="M319.076,359.924a1.976,1.976,0,0,0-1.994-1.936H299.047a1.977,1.977,0,0,0-1.993,1.936v.021c0,4.819,4.928,8.728,11.011,8.728s11.011-3.91,11.011-8.728Zm0,0" transform="translate(-154.508 -187.242)" fill="#423e4f"/>
    <path id="Path_243" data-name="Path 243" d="M209.932,308.555a4.635,4.635,0,0,0-4.636,4.635v8.353a4.635,4.635,0,1,0,9.269,0v-8.353A4.635,4.635,0,0,0,209.932,308.555Zm0,0" transform="translate(-106.782 -161.531)" fill="#423e4f"/>
    <path id="Path_244" data-name="Path 244" d="M192.758,352.9h-9.646a4.635,4.635,0,1,0,0,9.269h9.646a4.635,4.635,0,0,0,0-9.269Zm0,0" transform="translate(-92.832 -184.597)" fill="#ff889e"/>
    <path id="Path_245" data-name="Path 245" d="M424.656,321.543v-8.354a4.635,4.635,0,0,0-9.269,0v8.354a4.635,4.635,0,1,0,9.269,0Zm0,0" transform="translate(-216.057 -161.53)" fill="#423e4f"/>
    <path id="Path_246" data-name="Path 246" d="M436.389,352.9h-9.65a4.635,4.635,0,0,0,0,9.269h9.65a4.635,4.635,0,0,0,0-9.269Zm0,0" transform="translate(-219.552 -184.597)" fill="#ff889e"/>
    <path id="Path_247" data-name="Path 247" d="M316.8,393.25a4.634,4.634,0,0,0-6.54.439,5.226,5.226,0,0,1-7.607,0,4.648,4.648,0,0,0-6.98,0,5.228,5.228,0,0,1-7.608,0,4.636,4.636,0,0,0-6.981,6.1,14.286,14.286,0,0,0,10.784,4.81,14.528,14.528,0,0,0,7.294-1.942,14.543,14.543,0,0,0,7.294,1.942,14.283,14.283,0,0,0,10.784-4.81A4.635,4.635,0,0,0,316.8,393.25Zm0,0" transform="translate(-145.609 -204.988)" fill="#423e4f"/>
  </g>
</svg>
