<svg xmlns="http://www.w3.org/2000/svg" width="313.256" height="239.491" viewBox="0 0 313.256 239.491">
  <g id="dog_1_" data-name="dog (1)" transform="translate(-0.001 4.664)">
    <path id="Path_248" data-name="Path 248" d="M463.816,28.248C548.708-34.082,582.473,146,511.772,106.754Zm0,0" transform="translate(-236.795 -10.041)" fill="#f8b459"/>
    <path id="Path_249" data-name="Path 249" d="M86.236,28.248C1.346-34.082-32.421,146,38.28,106.752Zm0,0" transform="translate(0 -10.041)" fill="#f8b459"/>
    <path id="Path_250" data-name="Path 250" d="M491.47,30.444q-4.678-4.675-9.718-8.847a75.751,75.751,0,0,0-17.934,10.017l47.952,78.505c7.835,4.348,14.385,6,19.726,5.591A137.607,137.607,0,0,0,491.47,30.445Zm0,0" transform="translate(-236.795 -13.408)" fill="#f39c18"/>
    <path id="Path_251" data-name="Path 251" d="M87.656,21.6q-5.03,4.173-9.719,8.847A137.6,137.6,0,0,0,37.91,115.71c5.342.407,11.892-1.243,19.724-5.592L105.59,31.612A75.808,75.808,0,0,0,87.656,21.6Zm0,0" transform="translate(-19.354 -13.407)" fill="#f39c18"/>
    <path id="Path_252" data-name="Path 252" d="M104.9,193.847a119.748,119.748,0,1,1,180.4,0Zm0,0" transform="translate(-38.468)" fill="#f8b459"/>
    <path id="Path_253" data-name="Path 253" d="M104.909,193.848h18.909A119.751,119.751,0,0,1,204.561-4.295a8.071,8.071,0,0,1-1.193-.08c-2.719-.187-5.508-.289-8.26-.289A119.473,119.473,0,0,0,151.2,3.64a119.741,119.741,0,0,0-46.291,190.208Zm0,0" transform="translate(-38.479 0)" fill="#f39c18"/>
    <path id="Path_254" data-name="Path 254" d="M313.84,291.922a119.757,119.757,0,0,1-180.4,0c-6.587-22.97,1.3-43.371,29.544-59.151,46.595-26.024,22.67-45.335,60.655-45.335S237.7,206.748,284.3,232.772c28.24,15.779,36.13,36.18,29.544,59.151Zm0,0" transform="translate(-67.012 -98.075)" fill="#de8957"/>
    <path id="Path_255" data-name="Path 255" d="M227.678,411.8c1.809-.071,3.615-.161,5.42-.3a119.9,119.9,0,0,1-99.388-69.378c-3.254,8.971-3.178,18.621-.266,28.773a119.443,119.443,0,0,0,90.2,40.979q2.019,0,4.034-.073Zm0,0" transform="translate(-67.015 -177.046)" fill="#c76d33"/>
    <g id="Group_111" data-name="Group 111" transform="translate(97.865 88.425)">
      <path id="Path_256" data-name="Path 256" d="M319.326,231.11a2.81,2.81,0,0,0-2.833-2.755H290.843a2.812,2.812,0,0,0-2.836,2.755v.029c0,6.854,7.009,12.412,15.659,12.412s15.659-5.558,15.659-12.412Zm0,0" transform="translate(-244.903 -207.39)" fill="#423e4f"/>
      <path id="Path_257" data-name="Path 257" d="M317.361,278.552a4.727,4.727,0,0,0-6.669.446,8.11,8.11,0,0,1-11.877,0,4.737,4.737,0,0,0-7.116,0,8.108,8.108,0,0,1-11.875,0,4.727,4.727,0,1,0-7.118,6.222,17.279,17.279,0,0,0,13.055,5.82,17.549,17.549,0,0,0,9.5-2.759,17.551,17.551,0,0,0,9.5,2.759,17.282,17.282,0,0,0,13.055-5.82,4.721,4.721,0,0,0-.449-6.667Zm0,0" transform="translate(-236.493 -232.42)" fill="#423e4f"/>
      <path id="Path_258" data-name="Path 258" d="M204.67,185.523a4.728,4.728,0,0,0-4.728,4.728v9.235a4.727,4.727,0,0,0,9.455,0v-9.235A4.726,4.726,0,0,0,204.67,185.523Zm0,0" transform="translate(-199.942 -185.523)" fill="#423e4f"/>
    </g>
    <path id="Path_259" data-name="Path 259" d="M190.091,229.023h-9.938a4.726,4.726,0,1,0,0,9.453h9.938a4.726,4.726,0,1,0,0-9.453Zm0,0" transform="translate(-89.561 -119.306)" fill="#ff889e"/>
    <path id="Path_260" data-name="Path 260" d="M430.2,199.487v-9.235a4.727,4.727,0,1,0-9.455,0v9.235a4.727,4.727,0,0,0,9.455,0Zm0,0" transform="translate(-214.804 -97.098)" fill="#423e4f"/>
    <path id="Path_261" data-name="Path 261" d="M439.622,229.023h-9.938a4.726,4.726,0,1,0,0,9.453h9.938a4.726,4.726,0,1,0,0-9.453Zm0,0" transform="translate(-216.956 -119.306)" fill="#ff889e"/>
  </g>
</svg>
