<svg id="Layer_1" data-name="Layer 1" xmlns="http://www.w3.org/2000/svg" viewBox="0 0 612 792"><defs><style>.cls-1{fill:#f39c18;}.cls-2{fill:#f9e8c2;}.cls-3{fill:#685949;}.cls-4{fill:#ead8b2;}.cls-5{fill:#6d5f52;}.cls-6{fill:#423e4f;}.cls-7{fill:#cccbca;}.cls-8{fill:#ff889e;}.cls-9{fill:#727271;}.cls-10{fill:#636363;}.cls-11{fill:#e7e7e7;}.cls-12{fill:#c7c5cb;}.cls-13{fill:#565652;}.cls-14{fill:#e28d30;}.cls-15{fill:#ffb2c1;}.cls-16{fill:#c6782a;}.cls-17{fill:#f8b459;}.cls-18{fill:#fff2d4;}.cls-19{fill:none;stroke:#707070;stroke-linecap:round;stroke-width:0.51px;}</style></defs><path id="Path_253" data-name="Path 253" class="cls-1" d="M415.48,363.18h13.73c-31.58-33.45-27.86-84.23,8.3-113.44a90.69,90.69,0,0,1,50.31-19.58,6.36,6.36,0,0,1-.87-.06c-2-.12-4-.19-6-.19a93.16,93.16,0,0,0-31.88,5.57c-44.66,16.27-66.61,63-49,104.25a79.51,79.51,0,0,0,15.42,23.45Z"/><g id="Group_1143" data-name="Group 1143"><path id="Path_319" data-name="Path 319" class="cls-2" d="M546.39,257.42c-31.58-33.44-86.49-36.88-122.65-7.67s-39.88,80-8.31,113.42h0a83.69,83.69,0,0,0,8.3,7.67,88,88,0,0,0,18.45,11.44c-1.57-2.87-2.4-4.75-2.4-4.75-2-13.37-1.08-25.74,3.64-36.59,4.25-9.77,10.75-15,17.44-15h41c6.69,0,13.19,5.25,17.44,15,4.72,10.84,3.64,36.59,3.64,36.59s-.8,1.66-2.31,4.26a86.07,86.07,0,0,0,25.75-18.62h0C575,332.89,575,287.71,546.39,257.42Z"/></g><path id="Path_248" data-name="Path 248" class="cls-3" d="M521.47,240.58c61.63-41.85,86.14,79,34.81,52.7Z"/><path id="Path_253-2" data-name="Path 253-2" class="cls-4" d="M446,383.69c3.28,1,14.52,4.84,14.52,4.84-86.85-52.59-59.13-109.58-23-138.79a90.83,90.83,0,0,1,50.31-19.59,5,5,0,0,1-.86-.05c-2-.12-4-.19-6-.19a93.14,93.14,0,0,0-31.87,5.57c-44.66,16.27-66.61,63-49,104.25a79.51,79.51,0,0,0,15.42,23.45S431.16,379.27,446,383.69Z"/><path id="Path_249" data-name="Path 249" class="cls-3" d="M440.9,239.87c-61.62-41.84-86.13,79.05-34.81,52.71Z"/><path id="Path_320" data-name="Path 320" class="cls-5" d="M519.3,341c-4.25-9.77-10.75-15-17.44-15h-41c-6.69,0-13.19,5.25-17.44,15-4.58,10.51-5.61,22.46-3.82,35.35a8.1,8.1,0,0,0,.75,2.45c.12.26.27.56.44.9a8,8,0,0,0,4,3.79,93.59,93.59,0,0,0,73.42-.53,8,8,0,0,0,3.82-3.57l0-.06a7.92,7.92,0,0,0,1-3.62C523.14,369.53,523.25,350,519.3,341Z"/><path id="Path_256" data-name="Path 256" class="cls-6" d="M492.28,312.67a2,2,0,0,0-2.06-2H471.6a2,2,0,0,0-2.06,2v0c0,5,5.09,9,11.37,9s11.37-4,11.37-9Z"/><path id="Path_257" data-name="Path 257" class="cls-6" d="M497,330.46a3.43,3.43,0,0,0-4.84.32,5.88,5.88,0,0,1-8.32.3q-.15-.13-.3-.3a3.43,3.43,0,0,0-4.85-.31h0a3,3,0,0,0-.31.31,5.88,5.88,0,0,1-8.32.3,2.13,2.13,0,0,1-.3-.3,3.43,3.43,0,0,0-5.17,4.52,12.53,12.53,0,0,0,9.48,4.22,12.75,12.75,0,0,0,6.89-2,12.76,12.76,0,0,0,6.9,2,12.51,12.51,0,0,0,9.47-4.22,3.42,3.42,0,0,0-.32-4.84h0Z"/><path id="Path_258" data-name="Path 258" class="cls-6" d="M450.86,303.52a3.42,3.42,0,0,0-3.43,3.43v6.7a3.43,3.43,0,1,0,6.86.08V307a3.43,3.43,0,0,0-3.43-3.43Z"/><path id="Path_260" data-name="Path 260" class="cls-6" d="M513.84,313.65V307a3.44,3.44,0,0,0-6.87-.08v6.78a3.44,3.44,0,0,0,6.87.08Z"/><path id="Path_317" data-name="Path 317" class="cls-7" d="M172.22,288.89c2.09-6.23,2.52-11,3.84-20.64l-.36-5a99.14,99.14,0,0,1-20.28-7.2l-.37,2.49-1.24,31.19A131.61,131.61,0,0,0,172.22,288.89Z"/><path id="Path_234" data-name="Path 234" class="cls-8" d="M161.1,239.54l.08-.09h0Z"/><path id="Path_237" data-name="Path 237" class="cls-8" d="M79,239.45h0l.08.09Z"/><path id="Path_238" data-name="Path 238" class="cls-9" d="M58.48,374.38h0c-33.41-32.59-36.38-88.67-6.63-125.26s81-39.85,114.37-7.26,36.37,88.67,6.62,125.26a82.69,82.69,0,0,1-6.62,7.26H58.48Z"/><path id="Path_239" data-name="Path 239" class="cls-10" d="M31.35,308.12c0,25.32,9.85,49.45,27.14,66.27v0h12c-33.41-32.6-36.36-88.68-6.6-125.27,14-17.18,33.51-27.75,54.46-29.46h-.07c-2-.15-4-.24-6-.24-44.74,0-81,39.7-81,88.7Z"/><path id="Path_240" data-name="Path 240" class="cls-11" d="M166.23,373.94h0c-30.71,33.1-77,33.1-107.74,0h0c10.57-37.78,25.7-52,37.35-74.9,3.36-6.74,9.31-28.7,15.81-29h1.46c6.5.3,12.42,22.26,15.79,29,11.64,22.88,26.77,37.12,37.34,74.9Z"/><path id="Path_241" data-name="Path 241" class="cls-12" d="M114.71,398.73c.87,0,1.74-.1,2.62-.15l1-.07c-22-2-42.33-14.63-56.38-35.05q-2,5.19-3.52,10.62v0c1.34,1.44,2.72,2.82,4.14,4.16q3.56,3.27,7.41,6.17a70.84,70.84,0,0,0,42.32,14.35c.58,0,2.18-.06,2.41-.06Z"/><path id="Path_242" data-name="Path 242" class="cls-6" d="M122.7,318.57a2,2,0,0,0-1.88-2H103.89a1.94,1.94,0,0,0-1.87,2v0c0,4.95,4.62,9,10.34,9s10.34-4,10.34-9Z"/><path id="Path_243" data-name="Path 243" class="cls-6" d="M78,280.33a3.29,3.29,0,0,0-3.29,3.3h0v5.94a3.3,3.3,0,1,0,6.59.1h0v-6A3.3,3.3,0,0,0,78,280.33Z"/><path id="Path_245" data-name="Path 245" class="cls-6" d="M150.41,291V285a3.3,3.3,0,0,0-6.6,0V291a3.3,3.3,0,1,0,6.6.1Z"/><path id="Path_247" data-name="Path 247" class="cls-6" d="M123.81,330.74a2.82,2.82,0,0,0-4,0,3.33,3.33,0,0,0-.25.28h0a3.19,3.19,0,0,1-4.49.44,2.81,2.81,0,0,1-.31-.29l-.14-.15a2.85,2.85,0,0,0-4-.55l-.28.25a1.93,1.93,0,0,0-.27.3,3.19,3.19,0,0,1-4.49.44,2.13,2.13,0,0,1-.31-.29l-.15-.15a2.82,2.82,0,0,0-4-.48,2.18,2.18,0,0,0-.28.25,3.51,3.51,0,0,0-.28,4.57,9,9,0,0,0,7,3.42,8.81,8.81,0,0,0,4.73-1.38,8.85,8.85,0,0,0,4.74,1.38,9,9,0,0,0,7-3.42A3.53,3.53,0,0,0,123.81,330.74Z"/><path id="Path_325" data-name="Path 325" class="cls-13" d="M150.74,233.77c-1.35-12.47,22.49-18.48,30.68-13.72s34.25,20.58,34.25,29.56-19.43,48-24.54,45.39S152.27,248,150.74,233.77Z"/><path id="Path_326" data-name="Path 326" class="cls-13" d="M75.9,233.27c1.38-12.47-23.07-18.47-31.46-13.72S9.3,240.13,9.3,249.11s19.93,48,25.17,45.4S74.33,247.53,75.9,233.27Z"/><g id="Group_1146" data-name="Group 1146"><path id="Path_20-3" data-name="Path 20-3" class="cls-14" d="M417.78,416.49a8.23,8.23,0,0,1,5.85,4.63c5.61,12.58,19.92,55.57-21.51,99.68l-50.29-80.32S380,408.84,417.78,416.49Z"/><path id="Path_21-3" data-name="Path 21-3" class="cls-15" d="M364.17,457.21l21.08,55.16c26.42-28.13,26.1-54.89,22.62-70.21a5.91,5.91,0,0,0-6.18-4.46c-20.72,1.87-36.51,18.43-37.52,19.51Zm-.05.06.05-.06h0Z"/><path id="Path_23-3" data-name="Path 23-3" class="cls-16" d="M413.67,506.58a118,118,0,0,0-16.35-41.69,101.56,101.56,0,0,0-35.45-33.37,77.63,77.63,0,0,0-10,9l50.29,80.31a122.09,122.09,0,0,0,11.55-14.21Z"/><path id="Path_26-3" data-name="Path 26-3" class="cls-8" d="M339.92,435.54l0-.07h0Z"/><path id="Path_27-3" data-name="Path 27-3" class="cls-8" d="M405.53,480.19a107.16,107.16,0,0,0-8.21-15.3,101.36,101.36,0,0,0-17-20.09,73.33,73.33,0,0,0-16.11,12.42l21.08,55.15c10.47-11.15,16.74-22.09,20.28-32.19Z"/><path id="Path_20-4" data-name="Path 20-4" class="cls-14" d="M261.14,440.48,210.85,520.8c-41.42-44.11-27.12-87.1-21.51-99.68a8.28,8.28,0,0,1,5.85-4.63C233,408.84,261.14,440.48,261.14,440.48Z"/><path id="Path_21-4" data-name="Path 21-4" class="cls-15" d="M248.8,457.21c-1-1.08-16.8-17.63-37.51-19.51a5.92,5.92,0,0,0-6.19,4.46c-3.48,15.32-3.8,42.08,22.62,70.21l21.08-55.15Zm0,0h0l.06.06Z"/><path id="Path_23-4" data-name="Path 23-4" class="cls-16" d="M199.3,506.58a122.09,122.09,0,0,0,11.55,14.21l50.29-80.31a77.63,77.63,0,0,0-10-9,101.65,101.65,0,0,0-35.45,33.37,118.23,118.23,0,0,0-16.35,41.69Z"/><path id="Path_27-4" data-name="Path 27-4" class="cls-8" d="M207.44,480.19c3.54,10.09,9.81,21,20.28,32.18l21.08-55.15a73.34,73.34,0,0,0-16.1-12.42,100.85,100.85,0,0,0-17,20.1,108.06,108.06,0,0,0-8.21,15.29Z"/><path id="Path_26-4" data-name="Path 26-4" class="cls-8" d="M271.3,435.47h0l0,.07Z"/><path id="Path_28-2" data-name="Path 28-2" class="cls-8" d="M266.05,443.87h0l0,.09Z"/><path id="Path_30-2" data-name="Path 30-2" class="cls-14" d="M253.61,653.17c-28.09-9.41-58.09-37.16-58.09-82.45,0,0,6.23-147.2,110.27-147.2s109,152.62,109,152.62c0,45.3-28.77,67.61-56.87,77Z"/><path id="Path_31-2" data-name="Path 31-2" class="cls-16" d="M253.61,653.17h14.81c-28.09-9.41-51.81-33.54-51.81-78.84,0,0,.16-143.41,96.59-150.54-2.47-.18-4.93-.27-7.4-.27-104,0-110.28,147.2-110.28,147.2,0,.7,0,1.4,0,2.1.61,43.85,30.42,71.08,58.08,80.35Z"/><path id="Path_33-2" data-name="Path 33-2" class="cls-17" d="M268.42,653.17c-9.81-3.29-18.59-8-25.88-14.72a81,81,0,0,0,11.06,14.72c2.91,1,5.89,1.83,9,2.56,13.3,3.17,28.05,4.21,43.22,4.21q3.72,0,7.41-.09c-16-.39-31.36-2.17-44.78-6.68Z"/><path id="Path_32-2" data-name="Path 32-2" class="cls-18" d="M275.68,557.3c5-8.69,15.33-24.62,22.48-35.51,3.83-5.82,11.3-5.73,15,.18l22.71,36a9.22,9.22,0,0,0,6.24,4.37c15.47,2.52,40.92,10,40.92,31.7h0c0,19.42-5.47,41.92-23.39,58.72a8.82,8.82,0,0,1-3.76,2.1c-15,3.9-32.28,5.1-50.12,5.1s-35.11-1.21-50.12-5.1a8.76,8.76,0,0,1-3.75-2.09c-18.08-16.81-26.07-39.56-23.4-58.73,3.54-25.36,29.67-30.79,40.29-31.94A9.22,9.22,0,0,0,275.68,557.3Z"/><path id="Path_34-2" data-name="Path 34-2" class="cls-6" d="M319.72,549.6a2.63,2.63,0,0,0-2.42-2.77H295.49a2.63,2.63,0,0,0-2.41,2.77v0c0,6.87,6,12.44,13.32,12.44s13.32-5.57,13.32-12.44Z"/><path id="Path_35-2" data-name="Path 35-2" class="cls-6" d="M258.21,512.86c-2,0-3.7,2-3.7,4.37v9.33c0,2.41,1.66,4.37,3.71,4.37s3.7-2,3.7-4.37v-9.33c0-2.41-1.66-4.37-3.7-4.37Z"/><path id="Path_37-2" data-name="Path 37-2" class="cls-6" d="M355.05,512.86c-2,0-3.71,2-3.71,4.37h0v9.33c0,2.41,1.72,4.34,3.77,4.3s3.61-1.94,3.64-4.3v-9.33c0-2.41-1.65-4.37-3.7-4.37Z"/></g><path id="Path_120" data-name="Path 120" class="cls-19" d="M278.37,587h56.56"/></svg>