<svg id="girl" xmlns="http://www.w3.org/2000/svg" width="278.469" height="308.406" viewBox="0 0 278.469 308.406">
  <path id="Path_267" data-name="Path 267" d="M9.316,127.948c0-34.372,14.061-66.628,39.593-90.831C74.161,13.181,107.66,0,143.241,0c35.56,0,69.047,13.169,94.294,37.082,25.527,24.177,39.6,56.41,39.628,90.758v.224Zm0,0" transform="translate(-4.006 0)" fill="#465059"/>
  <path id="Path_268" data-name="Path 268" d="M44.067,127.948c0-34.372,14.061-66.628,39.593-90.831a135.464,135.464,0,0,1,76.956-36.05A142.241,142.241,0,0,0,143.242,0C107.661,0,74.161,13.181,48.91,37.118,23.378,61.32,9.317,93.577,9.317,127.948l267.848.115v-.014Zm0,0" transform="translate(-4.006 0)" fill="#3c474d"/>
  <path id="Path_269" data-name="Path 269" d="M18.016,257.266c0,69.1,60.817,90.558,60.817,90.558h32.259V302.546L50.214,253.473Zm0,0" transform="translate(-7.465 -100.793)" fill="#465059"/>
  <path id="Path_270" data-name="Path 270" d="M42.837,257.266l10.541-1.243-3.165-2.551-32.2,3.793c0,69.1,60.817,90.558,60.817,90.558h24.821S42.837,326.363,42.837,257.266Zm0,0" transform="translate(-7.465 -100.793)" fill="#3c474d"/>
  <path id="Path_271" data-name="Path 271" d="M383.841,257.266c0,69.1-60.814,90.558-60.814,90.558H290.766V302.546l60.877-49.073Zm0,0" transform="translate(-115.923 -100.793)" fill="#465059"/>
  <path id="Path_272" data-name="Path 272" d="M260.45,424.171c-13.508-35.061-44.843-45.866-44.843-45.866H135.793s-27.965,9.635-42.452,40.267q-1.278,2.692-2.4,5.6l35.092,34.664h99.325Zm0,0" transform="translate(-36.465 -150.431)" fill="#b9a8ff"/>
  <path id="Path_273" data-name="Path 273" d="M109.562,424.173q1.116-2.912,2.4-5.6c14.487-30.634,42.452-40.267,42.452-40.267H135.793s-27.965,9.633-42.452,40.267q-1.278,2.692-2.4,5.6Zm0,0" transform="translate(-36.465 -150.431)" fill="#a394e0"/>
  <path id="Path_274" data-name="Path 274" d="M430.453,210.165a24.5,24.5,0,1,1-24.5-24.5A24.5,24.5,0,0,1,430.453,210.165Zm0,0" transform="translate(-151.984 -73.828)" fill="#dfb297"/>
  <path id="Path_275" data-name="Path 275" d="M240.861,375.08a27.1,27.1,0,1,1-27.1-27.1A27.1,27.1,0,0,1,240.861,375.08Zm0,0" transform="translate(-74.529 -138.375)" fill="#dfb297"/>
  <path id="Path_276" data-name="Path 276" d="M270.644,160.013a103.719,103.719,0,0,0-2.44-22.37c-65.739,0-136.389-56.96-136.389-56.96-36.647,51.563-88.132,56.953-88.2,56.96a103.676,103.676,0,0,0-2.438,22.367v.042C41.187,220.11,92.55,268.79,155.908,268.79s114.725-48.682,114.735-108.741v-.035Zm0,0" transform="translate(-16.674 -32.084)" fill="#fbc4ac"/>
  <path id="Path_277" data-name="Path 277" d="M43.618,194.934v-.04c0-5.21.391-17.12,1.139-26.485a94.106,94.106,0,0,1-17.318,4.117q-.688,3.12-1.181,6.308c-.4-.021-.824-.033-1.256-.033a24.5,24.5,0,1,0,0,49,16.372,16.372,0,0,0,5.106-.71c14.475,44.355,58.08,76.579,109.628,76.579q4.7,0,9.308-.355C90.037,298.824,43.629,252.022,43.618,194.934Zm0,0" transform="translate(-0.5 -66.968)" fill="#dfb297"/>
  <path id="Path_278" data-name="Path 278" d="M328.075,213.757a4.655,4.655,0,0,1-4.654-4.654V197.451a4.654,4.654,0,0,1,9.309,0V209.1A4.656,4.656,0,0,1,328.075,213.757Zm0,0" transform="translate(-128.908 -76.665)" fill="#3a484a"/>
  <path id="Path_279" data-name="Path 279" d="M330.771,249.882H314.9a4.654,4.654,0,1,1,0-9.308h15.871a4.654,4.654,0,0,1,0,9.308Zm0,0" transform="translate(-123.669 -95.663)" fill="#f98084"/>
  <path id="Path_280" data-name="Path 280" d="M129.083,213.757a4.654,4.654,0,0,1-4.654-4.654V197.451a4.654,4.654,0,1,1,9.308,0V209.1A4.655,4.655,0,0,1,129.083,213.757Zm0,0" transform="translate(-49.78 -76.665)" fill="#3a484a"/>
  <path id="Path_281" data-name="Path 281" d="M131.778,249.882H115.908a4.654,4.654,0,0,1,0-9.308h15.871a4.654,4.654,0,1,1,0,9.308Zm0,0" transform="translate(-44.541 -95.663)" fill="#f98084"/>
  <path id="Path_282" data-name="Path 282" d="M221.5,245.662a18.83,18.83,0,0,1-14.224-6.334,4.654,4.654,0,1,1,7.007-6.127,9.833,9.833,0,0,0,14.431,0,4.655,4.655,0,0,1,7.009,6.127A18.833,18.833,0,0,1,221.5,245.662Zm0,0" transform="translate(-82.267 -92.099)" fill="#3a484a"/>
  <path id="Path_283" data-name="Path 283" d="M85.577,462.868a9.453,9.453,0,0,1-9.452-9.452V436.193a9.452,9.452,0,1,1,18.9,0v17.223A9.452,9.452,0,0,1,85.577,462.868Zm0,0" transform="translate(-30.572 -169.691)" fill="#dfb297"/>
  <path id="Path_284" data-name="Path 284" d="M89.675,451.324a26.922,26.922,0,0,0-9.925,1.884,27.273,27.273,0,0,0-15.242,34.664h50.337a26.945,26.945,0,0,0-25.17-36.548Zm0,0" transform="translate(-25.27 -179.467)" fill="#fbc4ac"/>
  <path id="Path_285" data-name="Path 285" d="M365.245,462.868a9.452,9.452,0,0,0,9.451-9.452V436.193a9.452,9.452,0,1,0-18.9,0v17.223A9.452,9.452,0,0,0,365.245,462.868Zm0,0" transform="translate(-141.781 -169.691)" fill="#dfb297"/>
  <path id="Path_286" data-name="Path 286" d="M338.1,451.324a26.92,26.92,0,0,1,9.925,1.884,27.27,27.27,0,0,1,15.242,34.664H312.928A26.94,26.94,0,0,1,338.1,451.324Zm0,0" transform="translate(-124.031 -179.467)" fill="#fbc4ac"/>
</svg>
