<svg xmlns="http://www.w3.org/2000/svg" width="99.575" height="88.29" viewBox="0 0 99.575 88.29">
  <g id="Group_1245" data-name="Group 1245" transform="translate(-16 -434)">
    <g id="Group_117" data-name="Group 117" transform="translate(-89 345.135)">
      <g id="Layer_2" data-name="Layer 2" transform="translate(105.028 88.865)">
        <g id="Layer_9" data-name="Layer 9" transform="translate(0)">
          <path id="Path_132" data-name="Path 132" d="M55.7,11.956C55.6,8.307,55.483,4.2,55.39.547a32.186,32.186,0,0,0,6.094,3.623C61.669,4.14,64.817,1.125,66.316,0L69.25,4.449,75.421.309A71.921,71.921,0,0,1,75.792,11.5c-6.6.022-13.492.173-20.1.458" transform="translate(-38.264)" fill="#f7f47c"/>
          <path id="Path_133" data-name="Path 133" d="M14.529,36.619a5.3,5.3,0,0,0-5.615-3.744c-2.634.346-4.638,2.739-5.336,5.3s-.037,5.611.309,8.246A12.868,12.868,0,0,0,.082,54.264,13.386,13.386,0,0,0,1.2,61.609c1.833,3.555,5.735,5.522,9.544,6.746,10.478,3.37,21.951,2.832,32.537-.192,3.71-1.057,7.346-2.514,9.513-6.016,2.016-3.259,1.942-5.809,1.8-8.709a15.053,15.053,0,0,0-3.812-8.366c1.938-2.739,1.685-6.391,1.252-8.27a5.827,5.827,0,0,0-2.007-2.783,5.431,5.431,0,0,0-4.2-1.132A7.086,7.086,0,0,0,42.07,35.33a2.214,2.214,0,0,0-.352.569h-.012c-9.213-.547-17.984.142-27.207.733" transform="translate(0.002 -22.654)" fill="#9ed679"/>
          <path id="Path_135" data-name="Path 135" d="M77.921,82.53l.448.454a.352.352,0,0,0,.148.1.421.421,0,0,0,.359,0,.334.334,0,0,0,.148-.1l.074-.093a.476.476,0,0,0,.062-.235v-.124a.461.461,0,0,0-.121-.2l-.448-.454a.309.309,0,0,0-.148-.1.328.328,0,0,0-.179-.04.334.334,0,0,0-.179.04.352.352,0,0,0-.148.1l-.071.093a.458.458,0,0,0-.065.235l.019.124a.485.485,0,0,0,.117.2Z" transform="translate(-53.746 -56.467)" fill="#423e4f"/>
          <path id="Path_136" data-name="Path 136" d="M93.344,81.911l-.448.454a.532.532,0,0,0-.136.328.392.392,0,0,0,.04.179.343.343,0,0,0,.1.148l.1.074a.464.464,0,0,0,.232.062h.124a.455.455,0,0,0,.207-.121L94,82.581a.353.353,0,0,0,.1-.148.421.421,0,0,0,0-.359.334.334,0,0,0-.1-.148l-.093-.074a.476.476,0,0,0-.235-.062l-.124.015a.461.461,0,0,0-.2.121Z" transform="translate(-64.081 -56.503)" fill="#423e4f"/>
          <path id="Path_35" data-name="Path 35" d="M27.344,50.42a.634.634,0,0,0-.634.618h0v1.354a.634.634,0,0,0,1.268,0V51.057a.634.634,0,0,0-.634-.637Z" transform="translate(-18.451 -34.832)" fill="#423e4f"/>
          <path id="Path_37" data-name="Path 37" d="M150.524,50.42a.618.618,0,0,0-.634.618h0v1.354a.634.634,0,1,0,1.268,0V51.056a.634.634,0,0,0-.634-.637Z" transform="translate(-103.548 -34.831)" fill="#423e4f"/>
          <path id="Path_79" data-name="Path 79" d="M61.31,94.691a1.111,1.111,0,0,0-1.568.1,2.676,2.676,0,0,1-3.931,0,1.114,1.114,0,0,0-1.673,0,2.676,2.676,0,0,1-3.931,0,1.111,1.111,0,0,0-1.672,1.462,4.817,4.817,0,0,0,3.638,1.619,4.886,4.886,0,0,0,2.8-.872,4.883,4.883,0,0,0,2.8.872,4.817,4.817,0,0,0,3.638-1.619,1.111,1.111,0,0,0-.105-1.567Zm0,0" transform="translate(-27.807 -64.198)" fill="#423e4f"/>
        </g>
      </g>
      <path id="Path_266" data-name="Path 266" d="M92.656,664.321c-3.922-1.244-7.94-3.238-9.83-6.845a12.852,12.852,0,0,1-1.2-6.763c-.061.327-.109.652-.139.975a12.928,12.928,0,0,0,1.112,7.206c1.83,3.493,5.721,5.424,9.519,6.628,10.449,3.313,21.9,2.785,32.452-.187a18.93,18.93,0,0,0,7.443-3.538,24.158,24.158,0,0,1-5.845,2.331C115.27,667.2,103.446,667.742,92.656,664.321Z" transform="translate(23.597 -530.917)" fill="#8ec669"/>
    </g>
    <g id="Group_126" data-name="Group 126" transform="translate(-43 40.999)">
      <g id="Layer_2-2" data-name="Layer 2" transform="translate(101.322 431.001)">
        <g id="Layer_10" data-name="Layer 10" transform="translate(0)">
          <path id="Path_137" data-name="Path 137" d="M55.714,12.523c-.1-3.821-.227-8.129-.324-11.95a33.713,33.713,0,0,0,6.383,3.8c.194-.032,3.491-3.19,5.062-4.369l3.073,4.66L76.372.324a75.333,75.333,0,0,1,.389,11.72c-6.917.023-14.133.181-21.05.479" transform="translate(-37.451)" fill="#ede256"/>
          <path id="Path_138" data-name="Path 138" d="M73.029,143.63l-28.369.784" transform="translate(-30.196 -97.116)" fill="#6ba068"/>
          <path id="Path_139" data-name="Path 139" d="M15.219,36.8a5.547,5.547,0,0,0-5.881-3.922c-2.759.363-4.858,2.869-5.59,5.551s-.039,5.878.324,8.637A13.478,13.478,0,0,0,.086,55.283a14.022,14.022,0,0,0,1.169,7.695c1.92,3.724,6.007,5.784,10,7.066,10.975,3.53,22.993,2.966,34.082-.2,3.886-1.108,7.695-2.633,9.965-6.3,2.111-3.413,2.034-6.085,1.888-9.123-.13-2.649-1.561-5.865-3.993-8.763,2.031-2.869,1.765-6.694,1.312-8.663a6.1,6.1,0,0,0-2.1-2.915A5.689,5.689,0,0,0,48,32.892a7.423,7.423,0,0,0-3.935,2.558,2.319,2.319,0,0,0-.369.6h-.013c-9.651-.573-18.838.149-28.5.768" transform="translate(0.002 -22.173)" fill="#90c170"/>
          <path id="Path_140" data-name="Path 140" d="M77.926,82.568l.47.476a.369.369,0,0,0,.155.1.44.44,0,0,0,.376,0,.35.35,0,0,0,.155-.1l.078-.1a.5.5,0,0,0,.065-.246v-.13a.482.482,0,0,0-.126-.214l-.47-.476a.324.324,0,0,0-.155-.1.343.343,0,0,0-.188-.042.35.35,0,0,0-.188.042.369.369,0,0,0-.155.1l-.074.1a.479.479,0,0,0-.068.246l.019.13a.508.508,0,0,0,.123.214Z" transform="translate(-52.604 -55.267)" fill="#6b4e55"/>
          <path id="Path_141" data-name="Path 141" d="M93.372,81.916l-.47.476a.557.557,0,0,0-.142.343.411.411,0,0,0,.042.188.359.359,0,0,0,.1.155l.1.078a.486.486,0,0,0,.243.065h.13a.476.476,0,0,0,.217-.126l.466-.476a.369.369,0,0,0,.1-.155.44.44,0,0,0,0-.376.35.35,0,0,0-.1-.155l-.1-.078a.5.5,0,0,0-.246-.065l-.13.016a.482.482,0,0,0-.214.126Z" transform="translate(-62.719 -55.303)" fill="#6b4e55"/>
          <path id="Path_142" data-name="Path 142" d="M88.49,97.788a3.345,3.345,0,0,1,4.534-.573,15.727,15.727,0,0,1,1.746,2.037c1.943,2.15,5.337,2.422,8.041,1.393a5.078,5.078,0,0,0,2.2-1.441,2.52,2.52,0,0,0,.486-2.487,4.589,4.589,0,0,1,2.72,6.636,6.694,6.694,0,0,1-1.687,1.9,12.387,12.387,0,0,1-9.032,2.662,14.854,14.854,0,0,1-9.006-5.081" transform="translate(-60.591 -65.303)" fill="#6b4e55"/>
          <path id="Path_143" data-name="Path 143" d="M46.116,97.788a3.345,3.345,0,0,0-4.534-.573,15.984,15.984,0,0,0-1.746,2.037c-1.943,2.15-5.337,2.422-8.041,1.393A5.049,5.049,0,0,1,29.6,99.2a2.513,2.513,0,0,1-.483-2.487,4.6,4.6,0,0,0-2.72,6.636,6.743,6.743,0,0,0,1.687,1.9,12.4,12.4,0,0,0,9.035,2.662,14.855,14.855,0,0,0,9-5.081" transform="translate(-17.458 -65.303)" fill="#6b4e55"/>
          <path id="Path_35-2" data-name="Path 35" d="M27.548,51.76a.664.664,0,0,0-.648.664h0v1.422a.664.664,0,1,0,1.328,0V52.427a.664.664,0,0,0-.68-.667Z" transform="translate(-18.188 -34.997)" fill="#423e4f"/>
          <path id="Path_37-2" data-name="Path 37" d="M150.674,51.76a.664.664,0,0,0-.674.664h0v1.422a.664.664,0,0,0,1.328,0V52.427a.667.667,0,0,0-.654-.667Z" transform="translate(-101.422 -34.998)" fill="#423e4f"/>
        </g>
      </g>
      <path id="Path_297" data-name="Path 297" d="M93,663.595c-4.04-1.177-8.18-3.065-10.127-6.48a11.31,11.31,0,0,1-1.236-6.4c-.063.309-.112.617-.143.923a11.36,11.36,0,0,0,1.146,6.822c1.885,3.306,5.894,5.135,9.806,6.274,10.764,3.136,22.558,2.636,33.43-.177a20.283,20.283,0,0,0,7.667-3.35,26.2,26.2,0,0,1-6.021,2.206C116.291,666.317,104.111,666.834,93,663.595Z" transform="translate(19.919 -185.591)" fill="#85b268"/>
    </g>
  </g>
</svg>
