<svg id="Layer_1" data-name="Layer 1" xmlns="http://www.w3.org/2000/svg" viewBox="0 0 360 360"><defs><style>.cls-1{fill:#4c4c4c;}.cls-2{fill:#eac6a9;}.cls-3{fill:#c59ed8;}.cls-4{fill:#ddbea8;}.cls-5{fill:#e8c0aa;}.cls-6,.cls-7{fill:none;stroke-linecap:round;stroke-miterlimit:10;stroke-width:2px;}.cls-6{stroke:#000;}.cls-7{stroke:#e07070;}</style></defs><path class="cls-1" d="M187.27,215.7c-24.9,0-45.71-14.7-45.71-44,0-14.75,25.17-21.72,45.71-21.72,20.11,0,46.95,7.4,46.95,21.88C234.22,204.7,212.16,215.7,187.27,215.7Z"/><ellipse class="cls-2" cx="142.19" cy="166.94" rx="4.15" ry="5.87"/><path class="cls-3" d="M187.82,198.37c-20,0-36.28,14.31-36.28,32H224.1C224.1,212.68,207.86,198.37,187.82,198.37Z"/><ellipse class="cls-2" cx="233.45" cy="166.94" rx="4.15" ry="5.87"/><circle class="cls-4" cx="187.82" cy="201.89" r="16.59"/><path class="cls-5" d="M228.71,161.07c-3.11-6.07-21.78-28.85-40.89-18.18-22.37-9.33-37.61,12.28-41.48,18.18l-3-.72a34.91,34.91,0,0,0-1.2,9.06c0,22,20.43,39.74,45.63,39.74s45.63-17.79,45.63-39.74a35.23,35.23,0,0,0-1.1-8.68Z"/><path class="cls-1" d="M228.71,161.07l3.64-.34c-4.55-17.77-22.75-31.06-44.53-31.06-21.62,0-39.72,13.1-44.43,30.68l3,.72c1.69-2.58,24.81-7,31.33-18.63C194.93,156.7,226,161.07,228.71,161.07Z"/><path class="cls-6" d="M183.28,173.65c.93,2.95,7.77,3,9.08,0"/><ellipse cx="170.04" cy="163.07" rx="1.9" ry="3.04"/><ellipse cx="204.62" cy="163.07" rx="1.9" ry="3.04"/><line class="cls-7" x1="172.92" y1="172.81" x2="167.17" y2="172.81"/><line class="cls-7" x1="207.5" y1="172.81" x2="201.75" y2="172.81"/></svg>