<svg id="Layer_1" data-name="Layer 1" xmlns="http://www.w3.org/2000/svg" viewBox="0 0 360 360"><defs><style>.cls-1{fill:#eac6a9;}.cls-2{fill:#c64a36;}.cls-3{fill:#ddbea8;}.cls-4{fill:#e8c0aa;}.cls-5{fill:#44413d;}.cls-6,.cls-7{fill:none;stroke-linecap:round;stroke-miterlimit:10;stroke-width:2px;}.cls-6{stroke:#000;}.cls-7{stroke:#e07070;}</style></defs><ellipse class="cls-1" cx="140.26" cy="163.87" rx="4.15" ry="5.87"/><path class="cls-2" d="M185.89,195.29c-20,0-36.28,14.31-36.28,32h72.56C222.17,209.6,205.93,195.29,185.89,195.29Z"/><ellipse class="cls-1" cx="231.52" cy="163.87" rx="4.15" ry="5.87"/><circle class="cls-3" cx="185.89" cy="198.81" r="16.59"/><path class="cls-4" d="M226.78,158c-3.11-6.07-21.78-28.85-40.89-18.19-22.37-9.33-37.61,12.28-41.48,18.19l-2.95-.72a34.89,34.89,0,0,0-1.2,9.05c0,21.95,20.43,39.74,45.63,39.74s45.63-17.79,45.63-39.74a35.09,35.09,0,0,0-1.1-8.67Z"/><path class="cls-5" d="M185.89,144.56c22-13.05,37.78,7.37,40.89,13.44l3.64-.34c-4.55-17.77-22.75-31.07-44.53-31.07-21.62,0-39.72,13.1-44.43,30.69l2.95.72C148.28,152.09,161.48,132.76,185.89,144.56Z"/><path class="cls-6" d="M181.35,170.57c.93,3,7.77,3,9.08,0"/><ellipse cx="168.11" cy="160" rx="1.9" ry="3.04"/><ellipse cx="202.69" cy="160" rx="1.9" ry="3.04"/><line class="cls-7" x1="170.99" y1="168.74" x2="165.24" y2="168.74"/><line class="cls-7" x1="205.56" y1="168.74" x2="199.81" y2="168.74"/></svg>