<svg id="Layer_9" data-name="Layer 9" xmlns="http://www.w3.org/2000/svg" viewBox="0 0 171.6 150.73"><defs><style>.cls-1{fill:#f7f47c;}.cls-2{fill:#9ed679;}.cls-3{fill:#423e4f;}</style></defs><path id="Path_132" data-name="Path 132" class="cls-1" d="M54.74,37.54c-.31-11.46-.68-24.37-1-35.82C59.1,6.26,72.32,13.19,72.9,13.09S83.36,3.53,88.07,0l9.21,14L116.66,1a225.26,225.26,0,0,1,1.16,35.13c-20.73.07-42.36.54-63.09,1.44" transform="translate(0)"/><path id="Path_133" data-name="Path 133" class="cls-2" d="M45.62,43.84A16.62,16.62,0,0,0,28,32.09c-8.27,1.09-14.56,8.6-16.76,16.64s-.11,17.61,1,25.88a40.47,40.47,0,0,0-12,24.63c-.71,7.84-.1,16,3.5,23.06,5.76,11.16,18,17.34,30,21.18,32.9,10.58,68.92,8.89,102.15-.6C147.53,139.56,159,135,165.75,124c6.33-10.23,6.1-18.24,5.66-27.34-.39-7.94-4.68-17.58-12-26.27,6.09-8.6,5.29-20.06,3.93-26-.66-2.91-3.76-6.92-6.3-8.73-3.9-2.68-8.56-4.62-13.19-3.55a22.23,22.23,0,0,0-11.79,7.66A7,7,0,0,0,131,41.58h0C102,39.86,74.48,42,45.52,43.88" transform="translate(0)"/><path id="Path_135" data-name="Path 135" class="cls-3" d="M75.9,81.83l1.41,1.43a1.12,1.12,0,0,0,.46.3,1.39,1.39,0,0,0,1.13,0,1.12,1.12,0,0,0,.47-.3l.23-.3a1.45,1.45,0,0,0,.19-.73v-.39a1.39,1.39,0,0,0-.38-.64L78,79.77a1,1,0,0,0-.47-.3,1.1,1.1,0,0,0-.56-.13,1.61,1.61,0,0,0-1,.43l-.23.29a1.47,1.47,0,0,0-.2.74l.06.39a1.48,1.48,0,0,0,.37.64Z" transform="translate(0)"/><path id="Path_136" data-name="Path 136" class="cls-3" d="M91.88,79.77,90.47,81.2a1.67,1.67,0,0,0-.43,1,1.18,1.18,0,0,0,.13.56,1.12,1.12,0,0,0,.3.47l.3.23a1.43,1.43,0,0,0,.73.2h.38a1.47,1.47,0,0,0,.65-.38l1.4-1.43a1.15,1.15,0,0,0,.3-.46,1.32,1.32,0,0,0,0-1.13,1,1,0,0,0-.3-.47l-.29-.23a1.46,1.46,0,0,0-.74-.19l-.38,0a1.37,1.37,0,0,0-.65.37Z" transform="translate(0)"/><path id="Path_35" data-name="Path 35" class="cls-3" d="M27.92,48.94a2,2,0,0,0-2,1.94h0v4.25a2,2,0,1,0,4,0h0V50.94a2,2,0,0,0-2-2Z" transform="translate(0)"/><path id="Path_37" data-name="Path 37" class="cls-3" d="M147.49,48.94a1.94,1.94,0,0,0-2,1.89v.05h0v4.25a2,2,0,1,0,4,0h0V50.94a2,2,0,0,0-2-2Z" transform="translate(0)"/><path id="Path_79" data-name="Path 79" class="cls-3" d="M105.19,95.74a3.48,3.48,0,0,0-4.92.33,8.41,8.41,0,0,1-11.87.47c-.17-.15-.32-.31-.47-.47A3.49,3.49,0,0,0,83,95.75a3.22,3.22,0,0,0-.32.32,8.41,8.41,0,0,1-11.87.47c-.16-.15-.32-.31-.47-.47a3.49,3.49,0,1,0-5.25,4.59A15.43,15.43,0,0,0,85.3,103a15.32,15.32,0,0,0,8.8,2.74,15.14,15.14,0,0,0,11.42-5.08,3.48,3.48,0,0,0-.33-4.92Z" transform="translate(0)"/></svg>