<svg xmlns="http://www.w3.org/2000/svg" width="343" height="448.329" viewBox="0 0 343 448.329">
  <g id="Group_1130" data-name="Group 1130" transform="translate(-149 -63)">
    <g id="Group_14" data-name="Group 14" transform="translate(149 63)">
      <path id="Path_1" data-name="Path 1" d="M-36.555,1972.314V2150.2l86.105-54.7,75.7,54.7V1972.314Z" transform="translate(121.848 -1701.87)" fill="#74d9dd"/>
      <path id="Path_3" data-name="Path 3" d="M-20.5,2082.81l.467-91.267H55.769l-.141,92.3-36.386-26.429Z" transform="translate(152.108 -1662.737)" fill="#aef4f7"/>
      <path id="Polygon_1" data-name="Polygon 1" d="M171.5,0l93.673,26.9,63.933,72.15L343,193.544l-40.556,86.841L220.314,332H122.686l-82.13-51.614L0,193.544l13.894-94.5L77.827,26.9Z" fill="#ffd355"/>
      <path id="Polygon_2" data-name="Polygon 2" d="M136.5,0l74.556,21.631,50.885,58.025,11.058,76-32.279,69.839L175.352,267h-77.7L32.279,225.491,0,155.651l11.058-76L61.944,21.631Z" transform="translate(32 32)" fill="#edbd35"/>
      <path id="Path_2" data-name="Path 2" d="M-27.855,2009.081H102.285v-92.03l-33.23,30.207-29.423-30.207-27.424,30.207-40.062-30.207Z" transform="translate(132.142 -1794.518)" fill="#faf7a7"/>
    </g>
  </g>
</svg>
