<svg xmlns="http://www.w3.org/2000/svg" width="311.696" height="292.372" viewBox="0 0 311.696 292.372">
  <g id="Group_1181" data-name="Group 1181" transform="translate(5582 -8340)">
    <g id="Group_1127" data-name="Group 1127" transform="translate(-5683.055 8257.409)">
      <g id="Group_98" data-name="Group 98" transform="translate(101.055 82.591)">
        <g id="panda" transform="translate(4.476 0)">
          <path id="Path_168" data-name="Path 168" d="M363.3,60.3c9.84-17.786,27.646-29.737,44.309-29.737,12.426,0,25.05,6.571,34.634,18.026,9.063,10.833,14.261,24.368,14.261,37.131,0,15.725-9.27,30.54-24.8,39.629a5.059,5.059,0,0,1-6.9-1.766,149.787,149.787,0,0,0-59.408-56.341,5.06,5.06,0,0,1-2.1-6.942Z" transform="translate(-155.337 -30.566)" fill="#525256"/>
          <ellipse id="Ellipse_56" data-name="Ellipse 56" cx="26.5" cy="24" rx="26.5" ry="24" transform="translate(215.469 22.071)" fill="#353535"/>
          <path id="Path_166" data-name="Path 166" d="M95.611,60.3C85.771,42.517,67.965,30.566,51.3,30.566c-12.426,0-25.05,6.571-34.634,18.026C7.6,59.426,2.407,72.96,2.407,85.723c0,15.725,9.27,30.54,24.8,39.629a5.059,5.059,0,0,0,6.9-1.766A149.786,149.786,0,0,1,93.509,67.246a5.06,5.06,0,0,0,2.1-6.942Z" transform="translate(-2.407 -30.566)" fill="#525256"/>
          <g id="Group_92" data-name="Group 92" transform="translate(260.069 7.139)">
            <path id="Path_169" data-name="Path 169" d="M441.243,112.892c15.528-9.089,24.8-23.9,24.8-39.629,0-10.862-3.776-22.276-10.484-32.115a55.578,55.578,0,0,1,12.127,10.888c9.063,10.833,14.261,24.368,14.261,37.131,0,15.725-9.27,30.54-24.8,39.629a5.059,5.059,0,0,1-6.9-1.766,155.856,155.856,0,0,0-9.408-13.938C440.978,113.028,441.113,112.969,441.243,112.892Z" transform="translate(-440.843 -41.148)" fill="#454549"/>
          </g>
          <path id="Path_175" data-name="Path 175" d="M263.812,277.708a38.147,38.147,0,0,1-49.99,0,11.447,11.447,0,0,0-2.521,7.561c0,5.226,4.282,10.524,13.475,16.674a115.711,115.711,0,0,0,11.807,6.853,5.056,5.056,0,0,0,4.47,0,115.646,115.646,0,0,0,11.807-6.853c9.193-6.149,13.474-11.447,13.474-16.673A11.454,11.454,0,0,0,263.812,277.708Z" transform="translate(-88.333 -121.03)" fill="#454549"/>
          <g id="Group_91" data-name="Group 91" transform="translate(0 7.139)">
            <path id="Path_167" data-name="Path 167" d="M43.109,112.892c-15.528-9.089-24.8-23.9-24.8-39.629,0-10.862,3.776-22.276,10.484-32.115A55.577,55.577,0,0,0,16.668,52.036C7.6,62.869,2.407,76.4,2.407,89.167c0,15.725,9.27,30.54,24.8,39.629a5.059,5.059,0,0,0,6.9-1.766,155.828,155.828,0,0,1,9.408-13.938C43.375,113.028,43.239,112.969,43.109,112.892Z" transform="translate(-2.407 -41.148)" fill="#454549"/>
          </g>
          <ellipse id="Ellipse_55" data-name="Ellipse 55" cx="26.5" cy="26" rx="26.5" ry="26" transform="translate(28.469 18.071)" fill="#353535"/>
        </g>
        <g id="Group_96" data-name="Group 96" transform="translate(0 17.593)">
          <path id="Path_183" data-name="Path 183" d="M272.606,95.891C252.458,72.242,215.912,44.065,156.156,43.9h-.617c-59.756.168-96.3,28.345-116.45,51.993C14.247,125.049,0,164.108,0,203.054c0,35.609,16.056,65.426,46.434,86.23,27.566,18.878,66.3,29.308,109.121,29.392h.587c42.819-.084,81.555-10.514,109.121-29.392,30.377-20.8,46.434-50.62,46.434-86.23C311.7,164.108,297.448,125.049,272.606,95.891Z" transform="translate(0 -43.897)" fill="#e0e0e0"/>
          <path id="Path_184" data-name="Path 184" d="M265.262,350.643c-27.566,19.366-66.3,30.066-109.121,30.152h-.587C112.735,380.709,74,370.009,46.433,350.643,19.012,331.379,3.265,304.578.459,272.674Q.011,278.842,0,285.029c0,36.53,16.056,67.119,46.434,88.461,27.566,19.366,66.3,30.066,109.121,30.152h.587c42.819-.086,81.555-10.786,109.121-30.152,30.377-21.341,46.434-51.93,46.434-88.461q0-6.182-.459-12.355C308.43,304.578,292.683,331.379,265.262,350.643Z" transform="translate(0 -128.863)" fill="#c4c4c4"/>
        </g>
        <g id="panda-2" data-name="panda" transform="translate(67.672 85.037)">
          <g id="Group_97" data-name="Group 97" transform="translate(0 0)">
            <path id="Path_174" data-name="Path 174" d="M238.817,268.243c-9.616,0-27.516,0-27.516,13.946,0,5.226,4.282,10.524,13.475,16.674a115.744,115.744,0,0,0,11.807,6.853,5.056,5.056,0,0,0,4.47,0,115.666,115.666,0,0,0,11.807-6.853c9.193-6.149,13.474-11.447,13.474-16.673C266.332,268.243,248.433,268.243,238.817,268.243Z" transform="translate(-151.529 -202.841)" fill="#525256"/>
            <g id="Group_94" data-name="Group 94">
              <path id="Path_172" data-name="Path 172" d="M137.521,184.237c-4.766-5.921-12.328-9.318-20.748-9.318a37.529,37.529,0,0,0-23.607,8.365c-7.634,6.205-12.7,15.379-14.652,26.531-1.835,10.486.194,20.168,5.566,26.562a22.169,22.169,0,0,0,17.564,7.884c7.865,0,16.948-4.037,24.92-11.076s13.645-16.079,15.551-24.793C144.161,199.037,142.53,190.459,137.521,184.237Z" transform="translate(-77.853 -174.919)" fill="#525256"/>
              <path id="Path_177" data-name="Path 177" d="M126.564,236.06c-7.973,7.039-17.056,11.076-24.92,11.076a22.169,22.169,0,0,1-17.564-7.884,26.339,26.339,0,0,1-5.329-11.087c-.08.405-.165.807-.237,1.217-1.835,10.486.194,20.168,5.566,26.562a22.169,22.169,0,0,0,17.564,7.884c7.865,0,16.948-4.037,24.92-11.076s13.645-16.079,15.551-24.793a31.887,31.887,0,0,0-.245-15.693C139.763,220.668,134.237,229.286,126.564,236.06Z" transform="translate(-77.853 -194.486)" fill="#454549"/>
            </g>
            <g id="Group_95" data-name="Group 95" transform="translate(115.934 0)">
              <path id="Path_176" data-name="Path 176" d="M349.3,209.814c-1.952-11.152-7.018-20.325-14.653-26.531a37.529,37.529,0,0,0-23.607-8.365c-8.42,0-15.982,3.4-20.749,9.318-5.009,6.222-6.639,14.8-4.594,24.154,1.906,8.714,7.574,17.751,15.551,24.793s17.056,11.076,24.921,11.076a22.169,22.169,0,0,0,17.564-7.883C349.1,229.982,351.133,220.3,349.3,209.814Z" transform="translate(-284.836 -174.919)" fill="#525256"/>
              <path id="Path_178" data-name="Path 178" d="M349.065,228.163a26.343,26.343,0,0,1-5.329,11.088,22.17,22.17,0,0,1-17.564,7.883c-7.865,0-16.948-4.037-24.921-11.076-7.672-6.773-13.2-15.392-15.306-23.794a31.88,31.88,0,0,0-.245,15.693c1.906,8.714,7.574,17.751,15.551,24.793s17.056,11.076,24.921,11.076a22.169,22.169,0,0,0,17.564-7.883c5.372-6.395,7.4-16.076,5.566-26.562C349.23,228.971,349.145,228.568,349.065,228.163Z" transform="translate(-284.841 -194.486)" fill="#454549"/>
            </g>
            <path id="Path_181" data-name="Path 181" d="M3.4,0A3.4,3.4,0,0,0,0,3.4v7.266a3.4,3.4,0,1,0,6.8,0V3.4A3.4,3.4,0,0,0,3.4,0Zm0,0" transform="translate(38.34 12.476) rotate(11)" fill="#fff"/>
            <path id="Path_182" data-name="Path 182" d="M3.4,0A3.4,3.4,0,0,0,0,3.4v7.266a3.4,3.4,0,0,0,6.8,0V3.4A3.4,3.4,0,0,0,3.4,0Zm0,0" transform="matrix(0.978, -0.208, 0.208, 0.978, 133.564, 15.24)" fill="#fff"/>
          </g>
        </g>
      </g>
      <path id="Path_120" data-name="Path 120" d="M48.133,112.958H88.784" transform="translate(188.299 184.302)" fill="none" stroke="#707070" stroke-linecap="round" stroke-width="2"/>
    </g>
  </g>
</svg>
