<svg xmlns="http://www.w3.org/2000/svg" width="295.818" height="277.479" viewBox="0 0 295.818 277.479">
  <g id="Group_1128" data-name="Group 1128" transform="translate(4566.224 -590.323)">
    <g id="Group_116" data-name="Group 116" transform="translate(-4566.224 590.323)">
      <g id="panda" transform="translate(4.248 0)">
        <path id="Path_168" data-name="Path 168" d="M363.272,58.789c9.338-16.88,26.238-28.223,42.052-28.223,11.793,0,23.774,6.236,32.869,17.108,8.6,10.281,13.534,23.126,13.534,35.24,0,14.924-8.8,28.984-23.535,37.61a4.8,4.8,0,0,1-6.545-1.676,142.156,142.156,0,0,0-56.382-53.471,4.8,4.8,0,0,1-1.994-6.589Z" transform="translate(-165.898 -30.566)" fill="#525256"/>
        <ellipse id="Ellipse_56" data-name="Ellipse 56" cx="25" cy="22" rx="25" ry="22" transform="translate(204.976 21.677)" fill="#353535"/>
        <path id="Path_166" data-name="Path 166" d="M90.863,58.789c-9.338-16.88-26.237-28.223-42.052-28.223-11.793,0-23.774,6.236-32.869,17.108C7.34,57.956,2.407,70.8,2.407,82.914c0,14.924,8.8,28.984,23.535,37.61a4.8,4.8,0,0,0,6.545-1.676A142.156,142.156,0,0,1,88.869,65.377a4.8,4.8,0,0,0,1.994-6.589Z" transform="translate(-2.407 -30.566)" fill="#525256"/>
        <g id="Group_92" data-name="Group 92" transform="translate(246.821 6.775)">
          <path id="Path_169" data-name="Path 169" d="M441.223,109.238c14.737-8.626,23.535-22.686,23.535-37.61,0-10.309-3.583-21.142-9.95-30.479a52.746,52.746,0,0,1,11.509,10.333c8.6,10.281,13.534,23.126,13.534,35.24,0,14.924-8.8,28.984-23.535,37.61a4.8,4.8,0,0,1-6.545-1.676,147.909,147.909,0,0,0-8.929-13.228C440.971,109.366,441.1,109.31,441.223,109.238Z" transform="translate(-440.843 -41.148)" fill="#454549"/>
        </g>
        <path id="Path_175" data-name="Path 175" d="M261.137,277.708a36.2,36.2,0,0,1-47.444,0,10.864,10.864,0,0,0-2.393,7.176c0,4.96,4.064,9.988,12.789,15.824a109.829,109.829,0,0,0,11.205,6.5,4.8,4.8,0,0,0,4.242,0,109.768,109.768,0,0,0,11.205-6.5c8.724-5.836,12.788-10.864,12.788-15.824A10.871,10.871,0,0,0,261.137,277.708Z" transform="translate(-94.597 -129.011)" fill="#454549"/>
        <g id="Group_91" data-name="Group 91" transform="translate(0 6.775)">
          <path id="Path_167" data-name="Path 167" d="M41.035,109.238C26.3,100.612,17.5,86.552,17.5,71.627c0-10.309,3.583-21.142,9.95-30.479A52.746,52.746,0,0,0,15.941,51.481C7.34,61.763,2.407,74.608,2.407,86.721c0,14.924,8.8,28.984,23.535,37.61a4.8,4.8,0,0,0,6.545-1.676,147.89,147.89,0,0,1,8.929-13.228C41.288,109.366,41.159,109.31,41.035,109.238Z" transform="translate(-2.407 -41.148)" fill="#454549"/>
        </g>
        <ellipse id="Ellipse_55" data-name="Ellipse 55" cx="25.5" cy="24" rx="25.5" ry="24" transform="translate(26.976 17.677)" fill="#353535"/>
      </g>
      <g id="Group_96" data-name="Group 96" transform="translate(0 16.696)">
        <path id="Path_183" data-name="Path 183" d="M258.719,93.242C239.6,70.8,204.913,44.057,148.2,43.9h-.585C90.9,44.057,56.22,70.8,37.1,93.242,13.522,120.915,0,157.984,0,194.947c0,33.8,15.238,62.094,44.068,81.837C70.23,294.7,106.993,304.6,147.631,304.678h.557c40.638-.079,77.4-9.978,103.562-27.894,28.83-19.743,44.068-48.042,44.068-81.837C295.818,157.984,282.3,120.915,258.719,93.242Z" transform="translate(0 -43.897)" fill="#e0e0e0"/>
        <path id="Path_184" data-name="Path 184" d="M251.749,346.671c-26.161,18.379-62.925,28.535-103.562,28.616h-.557c-40.638-.081-77.4-10.237-103.562-28.616C18.044,328.389,3.1,302.952.436,272.674Q.01,278.528,0,284.4c0,34.67,15.238,63.7,44.068,83.954,26.161,18.38,62.925,28.535,103.562,28.616h.557c40.638-.081,77.4-10.236,103.562-28.616,28.83-20.254,44.068-49.285,44.068-83.954q0-5.867-.436-11.726C292.719,302.952,277.774,328.389,251.749,346.671Z" transform="translate(0 -136.189)" fill="#c4c4c4"/>
      </g>
      <g id="panda-2" data-name="panda" transform="translate(64.225 80.705)">
        <g id="Group_97" data-name="Group 97" transform="translate(0 0)">
          <path id="Path_174" data-name="Path 174" d="M237.415,268.243c-9.126,0-26.114,0-26.114,13.236,0,4.96,4.064,9.988,12.789,15.825a109.828,109.828,0,0,0,11.205,6.5,4.8,4.8,0,0,0,4.242,0,109.755,109.755,0,0,0,11.205-6.5c8.724-5.836,12.788-10.864,12.788-15.824C263.529,268.243,246.542,268.243,237.415,268.243Z" transform="translate(-154.574 -206.172)" fill="#525256"/>
          <g id="Group_94" data-name="Group 94">
            <path id="Path_172" data-name="Path 172" d="M134.482,183.762c-4.523-5.62-11.7-8.843-19.691-8.843a35.617,35.617,0,0,0-22.4,7.939c-7.245,5.889-12.054,14.6-13.906,25.179-1.742,9.952.184,19.14,5.282,25.209a21.039,21.039,0,0,0,16.669,7.482c7.464,0,16.085-3.831,23.651-10.512s12.95-15.26,14.759-23.53C140.784,197.809,139.235,189.668,134.482,183.762Z" transform="translate(-77.853 -174.919)" fill="#525256"/>
            <path id="Path_177" data-name="Path 177" d="M124.083,234.847c-7.567,6.68-16.187,10.512-23.651,10.512a21.04,21.04,0,0,1-16.669-7.482,25,25,0,0,1-5.058-10.522c-.076.384-.157.766-.225,1.155-1.742,9.952.184,19.14,5.282,25.209a21.039,21.039,0,0,0,16.669,7.482c7.465,0,16.085-3.831,23.651-10.512s12.95-15.26,14.759-23.53a30.263,30.263,0,0,0-.232-14.893C136.61,220.24,131.365,228.419,124.083,234.847Z" transform="translate(-77.853 -195.392)" fill="#454549"/>
          </g>
          <g id="Group_95" data-name="Group 95" transform="translate(110.028 0)">
            <path id="Path_176" data-name="Path 176" d="M346.014,208.037c-1.852-10.583-6.661-19.29-13.906-25.179a35.617,35.617,0,0,0-22.4-7.939c-7.991,0-15.168,3.223-19.692,8.843-4.753,5.905-6.3,14.047-4.36,22.924,1.809,8.27,7.189,16.846,14.759,23.53s16.187,10.512,23.651,10.512a21.04,21.04,0,0,0,16.669-7.482C345.83,227.177,347.756,217.989,346.014,208.037Z" transform="translate(-284.836 -174.919)" fill="#525256"/>
            <path id="Path_178" data-name="Path 178" d="M345.794,227.353a25,25,0,0,1-5.058,10.523,21.04,21.04,0,0,1-16.669,7.482c-7.464,0-16.085-3.831-23.651-10.512-7.281-6.428-12.527-14.608-14.526-22.582a30.256,30.256,0,0,0-.232,14.893c1.809,8.27,7.188,16.846,14.759,23.53S316.6,261.2,324.067,261.2a21.04,21.04,0,0,0,16.669-7.482c5.1-6.069,7.024-15.257,5.283-25.209C345.95,228.12,345.87,227.738,345.794,227.353Z" transform="translate(-284.841 -195.391)" fill="#454549"/>
          </g>
          <path id="Path_181" data-name="Path 181" d="M3.226,0A3.226,3.226,0,0,0,0,3.229v6.9a3.228,3.228,0,1,0,6.455,0v-6.9A3.228,3.228,0,0,0,3.226,0Zm0,0" transform="translate(36.387 11.84) rotate(11)" fill="#fff"/>
          <path id="Path_182" data-name="Path 182" d="M3.228,0A3.228,3.228,0,0,0,0,3.229v6.9a3.228,3.228,0,0,0,6.457,0v-6.9A3.228,3.228,0,0,0,3.228,0Zm0,0" transform="matrix(0.978, -0.208, 0.208, 0.978, 126.76, 14.464)" fill="#fff"/>
        </g>
      </g>
    </g>
    <path id="Path_287" data-name="Path 287" d="M112.006,95.758a5.426,5.426,0,0,0-7.657.511,13.074,13.074,0,0,1-19.2,0,5.442,5.442,0,0,0-8.173,0,13.074,13.074,0,0,1-19.2,0,5.426,5.426,0,0,0-8.168,7.143,23.531,23.531,0,0,0,17.77,7.909,23.869,23.869,0,0,0,13.69-4.26,23.855,23.855,0,0,0,13.686,4.26,23.532,23.532,0,0,0,17.772-7.909,5.427,5.427,0,0,0-.514-7.655Zm0,0" transform="translate(-4499.666 673.488)" fill="#423e4f"/>
  </g>
</svg>
