<svg xmlns="http://www.w3.org/2000/svg" width="373.273" height="261.974" viewBox="0 0 373.273 261.974">
  <g id="Group_1193" data-name="Group 1193" transform="translate(-5702.026 -8339.656)">
    <g id="purse" transform="translate(5615.066 8221.872)">
      <path id="Path_348" data-name="Path 348" d="M267.73,133.784a186.469,186.469,0,0,1,157.826,86.992,8.479,8.479,0,0,0,11.014,3.038h0a8.479,8.479,0,0,0,3.3-12.095,204.676,204.676,0,0,0-344.761.783A8.479,8.479,0,0,0,97.94,224.41h0a8.461,8.461,0,0,0,11.424-2.87A186.469,186.469,0,0,1,267.73,133.785Z" transform="translate(5.867 0)" fill="#f2df81"/>
      <path id="Path_349" data-name="Path 349" d="M460.234,313.007c0-103.077-83.56-186.637-186.637-186.637S86.96,209.93,86.96,313.007c0,1.584,0,3.149,0,4.715v26.5a25.9,25.9,0,0,0,25.866,25.848h321.56a25.9,25.9,0,0,0,25.848-25.848v-26.5C460.215,316.156,460.234,314.591,460.234,313.007Z" transform="translate(0 7.414)" fill="#c65555"/>
      <path id="Path_350" data-name="Path 350" d="M206.31,194.924h71.859V175.655h-52.59V148.67H206.31v26.985H153.72v71.859H258.9v33.321H153.72V300.1h52.59v26.985h19.269V300.1h52.59V228.245H172.989V194.924Z" transform="translate(57.652 26.672)" fill="#a55151"/>
    </g>
    <g id="coin" transform="translate(5917.998 8482.909)" opacity="0.7">
      <circle id="Ellipse_74" data-name="Ellipse 74" cx="17.187" cy="17.187" r="17.187" transform="translate(75.252 78.332)" fill="#f2df81"/>
      <circle id="Ellipse_75" data-name="Ellipse 75" cx="14.854" cy="14.854" r="14.854" transform="matrix(0.526, -0.851, 0.851, 0.526, 72.002, 100.347)" fill="none" stroke="#c9b871" stroke-miterlimit="10" stroke-width="4"/>
      <text id="_" data-name="$" transform="translate(85.738 102.921)" fill="#c9b871" font-size="23" font-family="Helvetica"><tspan x="0" y="0">$</tspan></text>
    </g>
    <g id="coin-2" data-name="coin" transform="translate(5896.998 8450.909)" opacity="0.7">
      <circle id="Ellipse_74-2" data-name="Ellipse 74" cx="17.187" cy="17.187" r="17.187" transform="translate(75.252 78.332)" fill="#f2df81"/>
      <circle id="Ellipse_75-2" data-name="Ellipse 75" cx="14.854" cy="14.854" r="14.854" transform="matrix(0.526, -0.851, 0.851, 0.526, 72.002, 100.347)" fill="none" stroke="#c9b871" stroke-miterlimit="10" stroke-width="4"/>
      <text id="_2" data-name="$" transform="translate(85.738 102.921)" fill="#c9b871" font-size="23" font-family="Helvetica"><tspan x="0" y="0">$</tspan></text>
    </g>
    <g id="coin-3" data-name="coin" transform="translate(5856.998 8450.909)" opacity="0.7">
      <circle id="Ellipse_74-3" data-name="Ellipse 74" cx="17.187" cy="17.187" r="17.187" transform="translate(75.252 78.332)" fill="#f2df81"/>
      <circle id="Ellipse_75-3" data-name="Ellipse 75" cx="14.854" cy="14.854" r="14.854" transform="matrix(0.526, -0.851, 0.851, 0.526, 72.002, 100.347)" fill="none" stroke="#c9b871" stroke-miterlimit="10" stroke-width="4"/>
      <text id="_3" data-name="$" transform="translate(85.738 102.921)" fill="#c9b871" font-size="23" font-family="Helvetica"><tspan x="0" y="0">$</tspan></text>
    </g>
    <g id="coin-4" data-name="coin" transform="translate(5876.998 8419.909)" opacity="0.7">
      <circle id="Ellipse_74-4" data-name="Ellipse 74" cx="17.187" cy="17.187" r="17.187" transform="translate(75.252 78.332)" fill="#f2df81"/>
      <circle id="Ellipse_75-4" data-name="Ellipse 75" cx="14.854" cy="14.854" r="14.854" transform="matrix(0.526, -0.851, 0.851, 0.526, 72.002, 100.347)" fill="none" stroke="#c9b871" stroke-miterlimit="10" stroke-width="4"/>
      <text id="_4" data-name="$" transform="translate(85.738 102.921)" fill="#c9b871" font-size="23" font-family="Helvetica"><tspan x="0" y="0">$</tspan></text>
    </g>
    <g id="coin-5" data-name="coin" transform="translate(5814.998 8450.909)" opacity="0.7">
      <circle id="Ellipse_74-5" data-name="Ellipse 74" cx="17.187" cy="17.187" r="17.187" transform="translate(75.252 78.332)" fill="#f2df81"/>
      <circle id="Ellipse_75-5" data-name="Ellipse 75" cx="14.854" cy="14.854" r="14.854" transform="matrix(0.526, -0.851, 0.851, 0.526, 72.002, 100.347)" fill="none" stroke="#c9b871" stroke-miterlimit="10" stroke-width="4"/>
      <text id="_5" data-name="$" transform="translate(85.738 102.921)" fill="#c9b871" font-size="23" font-family="Helvetica"><tspan x="0" y="0">$</tspan></text>
    </g>
    <g id="coin-6" data-name="coin" transform="translate(5834.998 8419.909)" opacity="0.7">
      <circle id="Ellipse_74-6" data-name="Ellipse 74" cx="17.187" cy="17.187" r="17.187" transform="translate(75.252 78.332)" fill="#f2df81"/>
      <circle id="Ellipse_75-6" data-name="Ellipse 75" cx="14.854" cy="14.854" r="14.854" transform="matrix(0.526, -0.851, 0.851, 0.526, 72.002, 100.347)" fill="none" stroke="#c9b871" stroke-miterlimit="10" stroke-width="4"/>
      <text id="_6" data-name="$" transform="translate(85.738 102.921)" fill="#c9b871" font-size="23" font-family="Helvetica"><tspan x="0" y="0">$</tspan></text>
    </g>
    <g id="coin-7" data-name="coin" transform="translate(5773.998 8450.909)" opacity="0.7">
      <circle id="Ellipse_74-7" data-name="Ellipse 74" cx="17.187" cy="17.187" r="17.187" transform="translate(75.252 78.332)" fill="#f2df81"/>
      <circle id="Ellipse_75-7" data-name="Ellipse 75" cx="14.854" cy="14.854" r="14.854" transform="matrix(0.526, -0.851, 0.851, 0.526, 72.002, 100.347)" fill="none" stroke="#c9b871" stroke-miterlimit="10" stroke-width="4"/>
      <text id="_7" data-name="$" transform="translate(85.738 102.921)" fill="#c9b871" font-size="23" font-family="Helvetica"><tspan x="0" y="0">$</tspan></text>
    </g>
    <g id="coin-8" data-name="coin" transform="translate(5793.998 8419.909)" opacity="0.7">
      <circle id="Ellipse_74-8" data-name="Ellipse 74" cx="17.187" cy="17.187" r="17.187" transform="translate(75.252 78.332)" fill="#f2df81"/>
      <circle id="Ellipse_75-8" data-name="Ellipse 75" cx="14.854" cy="14.854" r="14.854" transform="matrix(0.526, -0.851, 0.851, 0.526, 72.002, 100.347)" fill="none" stroke="#c9b871" stroke-miterlimit="10" stroke-width="4"/>
      <text id="_8" data-name="$" transform="translate(85.738 102.921)" fill="#c9b871" font-size="23" font-family="Helvetica"><tspan x="0" y="0">$</tspan></text>
    </g>
    <g id="coin-9" data-name="coin" transform="translate(5732.998 8450.909)" opacity="0.7">
      <circle id="Ellipse_74-9" data-name="Ellipse 74" cx="17.187" cy="17.187" r="17.187" transform="translate(75.252 78.332)" fill="#f2df81"/>
      <circle id="Ellipse_75-9" data-name="Ellipse 75" cx="14.854" cy="14.854" r="14.854" transform="matrix(0.526, -0.851, 0.851, 0.526, 72.002, 100.347)" fill="none" stroke="#c9b871" stroke-miterlimit="10" stroke-width="4"/>
      <text id="_9" data-name="$" transform="translate(85.738 102.921)" fill="#c9b871" font-size="23" font-family="Helvetica"><tspan x="0" y="0">$</tspan></text>
    </g>
    <g id="coin-10" data-name="coin" transform="translate(5752.998 8419.909)" opacity="0.7">
      <circle id="Ellipse_74-10" data-name="Ellipse 74" cx="17.187" cy="17.187" r="17.187" transform="translate(75.252 78.332)" fill="#f2df81"/>
      <circle id="Ellipse_75-10" data-name="Ellipse 75" cx="14.854" cy="14.854" r="14.854" transform="matrix(0.526, -0.851, 0.851, 0.526, 72.002, 100.347)" fill="none" stroke="#c9b871" stroke-miterlimit="10" stroke-width="4"/>
      <text id="_10" data-name="$" transform="translate(85.738 102.921)" fill="#c9b871" font-size="23" font-family="Helvetica"><tspan x="0" y="0">$</tspan></text>
    </g>
    <g id="coin-11" data-name="coin" transform="translate(5694.998 8450.909)" opacity="0.7">
      <circle id="Ellipse_74-11" data-name="Ellipse 74" cx="17.187" cy="17.187" r="17.187" transform="translate(75.252 78.332)" fill="#f2df81"/>
      <circle id="Ellipse_75-11" data-name="Ellipse 75" cx="14.854" cy="14.854" r="14.854" transform="matrix(0.526, -0.851, 0.851, 0.526, 72.002, 100.347)" fill="none" stroke="#c9b871" stroke-miterlimit="10" stroke-width="4"/>
      <text id="_11" data-name="$" transform="translate(85.738 102.921)" fill="#c9b871" font-size="23" font-family="Helvetica"><tspan x="0" y="0">$</tspan></text>
    </g>
    <g id="coin-12" data-name="coin" transform="translate(5715.998 8419.909)" opacity="0.7">
      <circle id="Ellipse_74-12" data-name="Ellipse 74" cx="17.187" cy="17.187" r="17.187" transform="translate(75.252 78.332)" fill="#f2df81"/>
      <circle id="Ellipse_75-12" data-name="Ellipse 75" cx="14.854" cy="14.854" r="14.854" transform="matrix(0.526, -0.851, 0.851, 0.526, 72.002, 100.347)" fill="none" stroke="#c9b871" stroke-miterlimit="10" stroke-width="4"/>
      <text id="_12" data-name="$" transform="translate(85.738 102.921)" fill="#c9b871" font-size="23" font-family="Helvetica"><tspan x="0" y="0">$</tspan></text>
    </g>
    <g id="coin-13" data-name="coin" transform="translate(5876.998 8482.909)" opacity="0.7">
      <circle id="Ellipse_74-13" data-name="Ellipse 74" cx="17.187" cy="17.187" r="17.187" transform="translate(75.252 78.332)" fill="#f2df81"/>
      <circle id="Ellipse_75-13" data-name="Ellipse 75" cx="14.854" cy="14.854" r="14.854" transform="matrix(0.526, -0.851, 0.851, 0.526, 72.002, 100.347)" fill="none" stroke="#c9b871" stroke-miterlimit="10" stroke-width="4"/>
      <text id="_13" data-name="$" transform="translate(85.738 102.921)" fill="#c9b871" font-size="23" font-family="Helvetica"><tspan x="0" y="0">$</tspan></text>
    </g>
    <g id="coin-14" data-name="coin" transform="translate(5835.998 8482.909)" opacity="0.7">
      <circle id="Ellipse_74-14" data-name="Ellipse 74" cx="17.187" cy="17.187" r="17.187" transform="translate(75.252 78.332)" fill="#f2df81"/>
      <circle id="Ellipse_75-14" data-name="Ellipse 75" cx="14.854" cy="14.854" r="14.854" transform="matrix(0.526, -0.851, 0.851, 0.526, 72.002, 100.347)" fill="none" stroke="#c9b871" stroke-miterlimit="10" stroke-width="4"/>
      <text id="_14" data-name="$" transform="translate(85.738 102.921)" fill="#c9b871" font-size="23" font-family="Helvetica"><tspan x="0" y="0">$</tspan></text>
    </g>
    <g id="coin-15" data-name="coin" transform="translate(5794.998 8482.909)" opacity="0.7">
      <circle id="Ellipse_74-15" data-name="Ellipse 74" cx="17.187" cy="17.187" r="17.187" transform="translate(75.252 78.332)" fill="#f2df81"/>
      <circle id="Ellipse_75-15" data-name="Ellipse 75" cx="14.854" cy="14.854" r="14.854" transform="matrix(0.526, -0.851, 0.851, 0.526, 72.002, 100.347)" fill="none" stroke="#c9b871" stroke-miterlimit="10" stroke-width="4"/>
      <text id="_15" data-name="$" transform="translate(85.738 102.921)" fill="#c9b871" font-size="23" font-family="Helvetica"><tspan x="0" y="0">$</tspan></text>
    </g>
    <g id="coin-16" data-name="coin" transform="translate(5753.998 8482.909)" opacity="0.7">
      <circle id="Ellipse_74-16" data-name="Ellipse 74" cx="17.187" cy="17.187" r="17.187" transform="translate(75.252 78.332)" fill="#f2df81"/>
      <circle id="Ellipse_75-16" data-name="Ellipse 75" cx="14.854" cy="14.854" r="14.854" transform="matrix(0.526, -0.851, 0.851, 0.526, 72.002, 100.347)" fill="none" stroke="#c9b871" stroke-miterlimit="10" stroke-width="4"/>
      <text id="_16" data-name="$" transform="translate(85.738 102.921)" fill="#c9b871" font-size="23" font-family="Helvetica"><tspan x="0" y="0">$</tspan></text>
    </g>
    <g id="coin-17" data-name="coin" transform="translate(5712.998 8482.909)" opacity="0.7">
      <circle id="Ellipse_74-17" data-name="Ellipse 74" cx="17.187" cy="17.187" r="17.187" transform="translate(75.252 78.332)" fill="#f2df81"/>
      <circle id="Ellipse_75-17" data-name="Ellipse 75" cx="14.854" cy="14.854" r="14.854" transform="matrix(0.526, -0.851, 0.851, 0.526, 72.002, 100.347)" fill="none" stroke="#c9b871" stroke-miterlimit="10" stroke-width="4"/>
      <text id="_17" data-name="$" transform="translate(85.738 102.921)" fill="#c9b871" font-size="23" font-family="Helvetica"><tspan x="0" y="0">$</tspan></text>
    </g>
    <g id="coin-18" data-name="coin" transform="translate(5674.998 8482.909)" opacity="0.7">
      <circle id="Ellipse_74-18" data-name="Ellipse 74" cx="17.187" cy="17.187" r="17.187" transform="translate(75.252 78.332)" fill="#f2df81"/>
      <circle id="Ellipse_75-18" data-name="Ellipse 75" cx="14.854" cy="14.854" r="14.854" transform="matrix(0.526, -0.851, 0.851, 0.526, 72.002, 100.347)" fill="none" stroke="#c9b871" stroke-miterlimit="10" stroke-width="4"/>
      <text id="_18" data-name="$" transform="translate(85.738 102.921)" fill="#c9b871" font-size="23" font-family="Helvetica"><tspan x="0" y="0">$</tspan></text>
    </g>
  </g>
</svg>
