<svg id="Layer_1" data-name="Layer 1" xmlns="http://www.w3.org/2000/svg" viewBox="0 0 360 360"><defs><style>.cls-1{fill:#f2df81;}.cls-2{fill:#c65555;}.cls-3{fill:#a55151;}</style></defs><path class="cls-1" d="M187.11,126.37a100.06,100.06,0,0,1,84.69,46.68,4.55,4.55,0,0,0,5.91,1.63h0a4.55,4.55,0,0,0,1.77-6.49,109.83,109.83,0,0,0-185,.42A4.55,4.55,0,0,0,96,175h0a4.54,4.54,0,0,0,6.13-1.54A100.06,100.06,0,0,1,187.11,126.37Z"/><path class="cls-2" d="M287.26,226.52a100.15,100.15,0,1,0-200.3,0c0,.85,0,1.69,0,2.53,0,.21,0,.42,0,.64v13.58a13.9,13.9,0,0,0,13.88,13.87H273.39a13.9,13.9,0,0,0,13.87-13.87V229.69c0-.22,0-.43,0-.64C287.25,228.21,287.26,227.37,287.26,226.52Z"/><polygon class="cls-3" points="181.94 173.49 192.28 173.49 220.5 173.49 220.5 163.15 192.28 163.15 192.28 148.67 181.94 148.67 181.94 163.15 164.06 163.15 153.72 163.15 153.72 173.49 153.72 191.37 153.72 201.71 164.06 201.71 210.16 201.71 210.16 219.59 192.28 219.59 181.94 219.59 153.72 219.59 153.72 229.93 181.94 229.93 181.94 244.41 192.28 244.41 192.28 229.93 210.16 229.93 220.5 229.93 220.5 219.59 220.5 201.71 220.5 191.37 210.16 191.37 164.06 191.37 164.06 173.49 181.94 173.49"/></svg>