<svg xmlns="http://www.w3.org/2000/svg" width="490.509" height="268.974" viewBox="0 0 490.509 268.974">
  <g id="Group_1193" data-name="Group 1193" transform="translate(-5702.026 -8339.656)">
    <g id="purse" transform="translate(5615.066 8221.872)">
      <path id="Path_348" data-name="Path 348" d="M267.73,133.784a186.469,186.469,0,0,1,157.826,86.992,8.479,8.479,0,0,0,11.014,3.038h0a8.479,8.479,0,0,0,3.3-12.095,204.676,204.676,0,0,0-344.761.783A8.479,8.479,0,0,0,97.94,224.41h0a8.461,8.461,0,0,0,11.424-2.87A186.469,186.469,0,0,1,267.73,133.785Z" transform="translate(5.867 0)" fill="#f2df81"/>
      <path id="Path_349" data-name="Path 349" d="M460.234,313.007c0-103.077-83.56-186.637-186.637-186.637S86.96,209.93,86.96,313.007c0,1.584,0,3.149,0,4.715v26.5a25.9,25.9,0,0,0,25.866,25.848h321.56a25.9,25.9,0,0,0,25.848-25.848v-26.5C460.215,316.156,460.234,314.591,460.234,313.007Z" transform="translate(0 7.414)" fill="#c65555"/>
      <path id="Path_350" data-name="Path 350" d="M206.31,194.924h71.859V175.655h-52.59V148.67H206.31v26.985H153.72v71.859H258.9v33.321H153.72V300.1h52.59v26.985h19.269V300.1h52.59V228.245H172.989V194.924Z" transform="translate(57.652 26.672)" fill="#a55151"/>
    </g>
    <g id="coin" transform="translate(6035.998 8449.018)">
      <circle id="Ellipse_74" data-name="Ellipse 74" cx="34.375" cy="34.375" r="34.375" transform="translate(78.501 81.588)" fill="#f2df81"/>
      <circle id="Ellipse_75" data-name="Ellipse 75" cx="29.709" cy="29.709" r="29.709" transform="matrix(0.526, -0.851, 0.851, 0.526, 72.002, 125.619)" fill="none" stroke="#c9b871" stroke-miterlimit="10" stroke-width="4"/>
      <text id="_" data-name="$" transform="translate(99.475 130.767)" fill="#c9b871" font-size="46" font-family="Helvetica"><tspan x="0" y="0">$</tspan></text>
    </g>
    <g id="coin-2" data-name="coin" transform="translate(6035.998 8367.018)">
      <circle id="Ellipse_74-2" data-name="Ellipse 74" cx="34.375" cy="34.375" r="34.375" transform="translate(78.501 81.588)" fill="#f2df81"/>
      <circle id="Ellipse_75-2" data-name="Ellipse 75" cx="29.709" cy="29.709" r="29.709" transform="matrix(0.526, -0.851, 0.851, 0.526, 72.002, 125.619)" fill="none" stroke="#c9b871" stroke-miterlimit="10" stroke-width="4"/>
      <text id="_2" data-name="$" transform="translate(99.475 130.767)" fill="#c9b871" font-size="46" font-family="Helvetica"><tspan x="0" y="0">$</tspan></text>
    </g>
  </g>
</svg>
