<svg id="coin" xmlns="http://www.w3.org/2000/svg" width="324.053" height="236.486" viewBox="0 0 324.053 236.486">
  <path id="Path_157" data-name="Path 157" d="M275.611,351.744H64.86a42.53,42.53,0,0,1-42.529-42.529V286.573a147.9,147.9,0,0,1,147.9-147.9h0a147.9,147.9,0,0,1,147.9,147.9v22.643A42.526,42.526,0,0,1,275.611,351.744Z" transform="translate(-8.198 -115.258)" fill="#f64b4a"/>
  <path id="Path_158" data-name="Path 158" d="M62.919,309.216V286.573c0-81.685,48.048-147.9,107.318-147.9h0a147.9,147.9,0,0,0-147.9,147.9v22.643a42.528,42.528,0,0,0,42.529,42.528H93.778C76.734,351.744,62.919,332.7,62.919,309.216Z" transform="translate(-8.198 -115.258)" fill="#e84242"/>
  <path id="Path_159" data-name="Path 159" d="M323.07,214.27A16.034,16.034,0,0,1,308.007,235.8h-2.786a147.946,147.946,0,0,0-286.364,0H16.063a16.009,16.009,0,0,1-15.1-21.417,171.486,171.486,0,0,1,322.1-.109Z" transform="translate(0 -101.68)" fill="#fed159"/>
  <path id="Path_160" data-name="Path 160" d="M271.387,254.1V238.587H242.553V218.6H227.041v19.982H198.207v50.482h57.668v19.456H198.207v15.513h28.834V344.02h15.512V324.038h28.835V273.556H213.719V254.1Z" transform="translate(-72.759 -144.601)" fill="#e84242"/>
</svg>
