<svg xmlns="http://www.w3.org/2000/svg" width="360" height="249.385" viewBox="0 0 360 249.385">
  <g id="Group_1244" data-name="Group 1244" transform="translate(10735 -8416.614)">
    <g id="Group_1189" data-name="Group 1189" transform="translate(-10735 8417)">
      <g id="Group_35" data-name="Group 35" transform="translate(0 -42)">
        <g id="Group_14" data-name="Group 14" transform="translate(14.922 38.274)">
          <path id="Path_1" data-name="Path 1" d="M-36.555,1972.314v32.693l15.825-10.053,13.914,10.053v-32.693Z" transform="translate(186.309 -1897.883)" fill="#74d9dd"/>
          <path id="Path_3" data-name="Path 3" d="M-20.5,2008.316l.086-16.774H-6.486l-.026,16.964-6.687-4.857Z" transform="translate(178.769 -1906.385)" fill="#aef4f7"/>
          <path id="Polygon_1" data-name="Polygon 1" d="M31.5,0,48.705,4.942,60.448,18.2,63,35.561,55.551,51.517,40.466,61H22.534L7.449,51.517,0,35.561,2.552,18.2,14.295,4.942Z" transform="translate(134.078 24.726)" fill="#ffd355"/>
          <path id="Polygon_2" data-name="Polygon 2" d="M25,0,38.655,3.97l9.32,10.649L50,28.565,44.088,41.382,32.116,49H17.884L5.912,41.382,0,28.565,2.025,14.618,11.345,3.97Z" transform="translate(140.078 30.726)" fill="#edbd35"/>
          <path id="Path_2" data-name="Path 2" d="M-27.855,1933.964H-3.936V1917.05l-6.107,5.552-5.408-5.552-5.04,5.552-7.363-5.552Z" transform="translate(181.1 -1869.804)" fill="#faf7a7"/>
        </g>
      </g>
      <text id="Here_you_go_" data-name="Here you go!" transform="translate(76 119)" fill="#fff" font-size="16" font-family="Raleway-Regular, Raleway"><tspan x="56.88" y="15">Here you go!</tspan></text>
      <g id="Group_13" data-name="Group 13" transform="translate(415.012 211.615) rotate(-180)">
        <path id="Polygon_3" data-name="Polygon 3" d="M8.5,0,17,12,8.5,24,0,12Z" transform="translate(79.012 104)" fill="#facc83"/>
        <path id="Polygon_4" data-name="Polygon 4" d="M5.5,0,11,8,5.5,16,0,8Z" transform="translate(61.012 180)" fill="#bbd2fc"/>
        <path id="Polygon_5" data-name="Polygon 5" d="M8.5,0,17,12,8.5,24,0,12Z" transform="translate(169.776 177)" fill="#f7b1b1"/>
        <path id="Polygon_6" data-name="Polygon 6" d="M6.5,0,13,9,6.5,18,0,9Z" transform="translate(247.79 194)" fill="#7ffad4"/>
        <path id="Polygon_7" data-name="Polygon 7" d="M8.5,0,17,12,8.5,24,0,12Z" transform="translate(312.907 143)" fill="#facc83"/>
        <path id="Polygon_8" data-name="Polygon 8" d="M8.5,0,17,12,8.5,24,0,12Z" transform="translate(398.012 102)" fill="#7ffad4"/>
        <path id="Polygon_9" data-name="Polygon 9" d="M5.5,0,11,7.5,5.5,15,0,7.5Z" transform="translate(377.012 69)" fill="#f7b1b1"/>
        <path id="Polygon_10" data-name="Polygon 10" d="M8.5,0,17,12,8.5,24,0,12Z" transform="translate(55.012 40)" fill="#f7b1b1"/>
        <path id="Polygon_11" data-name="Polygon 11" d="M5.5,0,11,7.5,5.5,15,0,7.5Z" transform="translate(396.012 40)" fill="#f7b1b1"/>
        <path id="Polygon_12" data-name="Polygon 12" d="M5.5,0,11,7.5,5.5,15,0,7.5Z" transform="translate(385.012 180)" fill="#bbd2fc"/>
      </g>
      <g id="Group_98" data-name="Group 98" transform="translate(-38 71.046)">
        <g id="panda" transform="translate(102.87 31.995)">
          <path id="Path_168" data-name="Path 168" d="M362.787,35.983c1.792-3.24,5.036-5.417,8.072-5.417a8.439,8.439,0,0,1,6.309,3.284,10.8,10.8,0,0,1,2.6,6.764,8.512,8.512,0,0,1-4.517,7.219.922.922,0,0,1-1.256-.322A27.286,27.286,0,0,0,363.17,37.248a.922.922,0,0,1-.383-1.265Z" transform="translate(-324.903 -30.566)" fill="#525256"/>
          <ellipse id="Ellipse_56" data-name="Ellipse 56" cx="4.5" cy="4" rx="4.5" ry="4" transform="translate(39.13 3.959)" fill="#353535"/>
          <path id="Path_166" data-name="Path 166" d="M19.386,35.983c-1.792-3.24-5.036-5.417-8.072-5.417A8.439,8.439,0,0,0,5,33.85a10.8,10.8,0,0,0-2.6,6.764,8.512,8.512,0,0,0,4.517,7.219.922.922,0,0,0,1.256-.322A27.286,27.286,0,0,1,19,37.248a.922.922,0,0,0,.383-1.265Z" transform="translate(-2.407 -30.566)" fill="#525256"/>
          <g id="Group_92" data-name="Group 92" transform="translate(47.376 1.3)">
            <path id="Path_169" data-name="Path 169" d="M440.916,54.217A8.512,8.512,0,0,0,445.433,47a10.575,10.575,0,0,0-1.91-5.85,10.124,10.124,0,0,1,2.209,1.983,10.8,10.8,0,0,1,2.6,6.764,8.512,8.512,0,0,1-4.517,7.219.922.922,0,0,1-1.256-.322,28.388,28.388,0,0,0-1.714-2.539C440.867,54.242,440.892,54.231,440.916,54.217Z" transform="translate(-440.843 -41.148)" fill="#454549"/>
          </g>
          <path id="Path_175" data-name="Path 175" d="M220.867,277.708a6.949,6.949,0,0,1-9.106,0,2.085,2.085,0,0,0-.459,1.377c0,.952.78,1.917,2.455,3.037a21.076,21.076,0,0,0,2.151,1.248.921.921,0,0,0,.814,0,21.068,21.068,0,0,0,2.151-1.248c1.675-1.12,2.455-2.085,2.455-3.037A2.087,2.087,0,0,0,220.867,277.708Z" transform="translate(-188.9 -249.167)" fill="#454549"/>
          <g id="Group_91" data-name="Group 91" transform="translate(0 1.3)">
            <path id="Path_167" data-name="Path 167" d="M9.821,54.217A8.512,8.512,0,0,1,5.3,47a10.575,10.575,0,0,1,1.91-5.85A10.124,10.124,0,0,0,5,43.131a10.8,10.8,0,0,0-2.6,6.764,8.512,8.512,0,0,0,4.517,7.219.922.922,0,0,0,1.256-.322,28.386,28.386,0,0,1,1.714-2.539C9.87,54.242,9.845,54.231,9.821,54.217Z" transform="translate(-2.407 -41.148)" fill="#454549"/>
          </g>
          <ellipse id="Ellipse_55" data-name="Ellipse 55" cx="5" cy="4" rx="5" ry="4" transform="translate(5.13 3.959)" fill="#353535"/>
        </g>
        <g id="Group_96" data-name="Group 96" transform="translate(102.055 35.2)">
          <path id="Path_183" data-name="Path 183" d="M49.659,53.369c-3.67-4.308-10.328-9.441-21.213-9.471h-.112c-10.885.031-17.543,5.163-21.213,9.471A30.512,30.512,0,0,0,0,72.89,18.4,18.4,0,0,0,8.459,88.6c5.022,3.439,12.078,5.339,19.878,5.354h.107c7.8-.015,14.856-1.915,19.878-5.354A18.4,18.4,0,0,0,56.78,72.89,30.512,30.512,0,0,0,49.659,53.369Z" transform="translate(0 -43.897)" fill="#e0e0e0"/>
          <path id="Path_184" data-name="Path 184" d="M48.322,286.877c-5.022,3.528-12.078,5.477-19.878,5.493h-.107c-7.8-.016-14.856-1.965-19.878-5.493a18.95,18.95,0,0,1-8.375-14.2Q0,273.8,0,274.925a19.008,19.008,0,0,0,8.459,16.114c5.022,3.528,12.078,5.477,19.878,5.493h.107c7.8-.016,14.856-1.965,19.878-5.493a19.008,19.008,0,0,0,8.459-16.114q0-1.126-.084-2.251A18.951,18.951,0,0,1,48.322,286.877Z" transform="translate(0 -246.477)" fill="#c4c4c4"/>
        </g>
        <g id="panda-2" data-name="panda" transform="translate(114.382 47.486)">
          <g id="Group_97" data-name="Group 97" transform="translate(0 0)">
            <path id="Path_173" data-name="Path 173" d="M185.3,314.362a.921.921,0,0,0-1.2-.511,7.329,7.329,0,0,1-8.683-1.961v-1.406a.922.922,0,1,0-1.843,0v1.405a7.329,7.329,0,0,1-8.684,1.961.922.922,0,0,0-.688,1.71,10.247,10.247,0,0,0,3.846.787,8.794,8.794,0,0,0,4.307-1.126,9.845,9.845,0,0,0,2.14-1.621,9.847,9.847,0,0,0,2.14,1.621,8.793,8.793,0,0,0,4.307,1.126,10.25,10.25,0,0,0,3.846-.787A.922.922,0,0,0,185.3,314.362Z" transform="translate(-158.602 -292.879)" fill="#2b2b2d"/>
            <path id="Path_174" data-name="Path 174" d="M216.313,268.243c-1.752,0-5.012,0-5.012,2.54,0,.952.78,1.917,2.455,3.037a21.092,21.092,0,0,0,2.151,1.248.921.921,0,0,0,.814,0,21.079,21.079,0,0,0,2.151-1.248c1.675-1.12,2.455-2.085,2.455-3.037C221.326,268.243,218.065,268.243,216.313,268.243Z" transform="translate(-200.413 -256.329)" fill="#525256"/>
            <g id="Group_94" data-name="Group 94">
              <path id="Path_172" data-name="Path 172" d="M88.722,176.616a4.785,4.785,0,0,0-3.78-1.7,6.837,6.837,0,0,0-4.3,1.524,7.813,7.813,0,0,0-2.669,4.833,5.91,5.91,0,0,0,1.014,4.839,4.038,4.038,0,0,0,3.2,1.436,7.243,7.243,0,0,0,4.54-2.018,8.812,8.812,0,0,0,2.833-4.516A5.128,5.128,0,0,0,88.722,176.616Z" transform="translate(-77.853 -174.919)" fill="#525256"/>
              <path id="Path_177" data-name="Path 177" d="M86.727,216.6a7.243,7.243,0,0,1-4.54,2.018,4.038,4.038,0,0,1-3.2-1.436,4.8,4.8,0,0,1-.971-2.02c-.015.074-.03.147-.043.222a5.91,5.91,0,0,0,1.014,4.839,4.038,4.038,0,0,0,3.2,1.436,7.243,7.243,0,0,0,4.54-2.018,8.812,8.812,0,0,0,2.833-4.516,5.809,5.809,0,0,0-.045-2.859A8.914,8.914,0,0,1,86.727,216.6Z" transform="translate(-77.854 -209.027)" fill="#454549"/>
            </g>
            <g id="Group_95" data-name="Group 95" transform="translate(21.119 0)">
              <path id="Path_176" data-name="Path 176" d="M296.579,181.276a7.814,7.814,0,0,0-2.669-4.833,6.837,6.837,0,0,0-4.3-1.524,4.786,4.786,0,0,0-3.78,1.7,5.128,5.128,0,0,0-.837,4.4,8.812,8.812,0,0,0,2.833,4.516,7.243,7.243,0,0,0,4.54,2.018,4.038,4.038,0,0,0,3.2-1.436A5.911,5.911,0,0,0,296.579,181.276Z" transform="translate(-284.836 -174.919)" fill="#525256"/>
              <path id="Path_178" data-name="Path 178" d="M296.543,215.161a4.8,4.8,0,0,1-.971,2.02,4.039,4.039,0,0,1-3.2,1.436,7.243,7.243,0,0,1-4.54-2.018,8.913,8.913,0,0,1-2.788-4.334,5.807,5.807,0,0,0-.045,2.859,8.812,8.812,0,0,0,2.833,4.516,7.243,7.243,0,0,0,4.54,2.018,4.038,4.038,0,0,0,3.2-1.436,5.911,5.911,0,0,0,1.014-4.839C296.573,215.308,296.558,215.235,296.543,215.161Z" transform="translate(-284.844 -209.026)" fill="#454549"/>
            </g>
            <path id="Path_181" data-name="Path 181" d="M.619,0A.619.619,0,0,0,0,.62V1.943a.62.62,0,1,0,1.239,0V.62A.62.62,0,0,0,.619,0Zm0,0" transform="translate(6.984 2.273) rotate(11)" fill="#fff"/>
            <path id="Path_182" data-name="Path 182" d="M.62,0A.62.62,0,0,0,0,.62V1.943a.62.62,0,0,0,1.239,0V.62A.62.62,0,0,0,.62,0Zm0,0" transform="matrix(0.978, -0.208, 0.208, 0.978, 24.331, 2.776)" fill="#fff"/>
          </g>
        </g>
      </g>
    </g>
    <g id="Group_1243" data-name="Group 1243" transform="translate(-13660.11 1178.965)">
      <g id="Group_1179" data-name="Group 1179" transform="translate(3027 7399)">
        <path id="Subtraction_4" data-name="Subtraction 4" d="M86.255,88H79.639c-.608,0-1.224-.028-1.829-.083-.6.055-1.219.083-1.828.083H60.36a21.108,21.108,0,0,0,.211-2.975,20.812,20.812,0,1,0-41.623,0,21.041,21.041,0,0,0,.209,2.957A19.982,19.982,0,0,1,0,68V53.2a19.982,19.982,0,0,1,20-20h2.986V20a19.982,19.982,0,0,1,20-20H98.347a19.982,19.982,0,0,1,20,20V33.2H135a19.982,19.982,0,0,1,20,20V68a19.983,19.983,0,0,1-20,20h-7.854a21.32,21.32,0,0,0,.21-2.975,20.85,20.85,0,0,0-6.05-14.726,20.621,20.621,0,0,0-33.639,6.62A21.088,21.088,0,0,0,86.252,88ZM81.822,6.576a11,11,0,0,0-11,11V24.7a11,11,0,0,0,11,11h18.07a11,11,0,0,0,11-11V17.576a11,11,0,0,0-11-11Zm-35.41,0a11,11,0,0,0-11,11V24.7a11,11,0,0,0,11,11h3.16a11,11,0,0,0,11-11V17.576a11,11,0,0,0-11-11Z" transform="translate(0.111 0.035)" fill="#c6edff"/>
        <rect id="Rectangle_34" data-name="Rectangle 34" width="10" height="6" transform="translate(145.111 62.035)" fill="#ffd3a7"/>
        <rect id="Rectangle_36" data-name="Rectangle 36" width="10" height="7" transform="translate(145.111 57.035)" fill="#cbbeb1"/>
        <rect id="Rectangle_37" data-name="Rectangle 37" width="10" height="5" transform="translate(0.111 62.035)" fill="#ffd3a7"/>
        <rect id="Rectangle_38" data-name="Rectangle 38" width="10" height="8" transform="translate(0.111 56.035)" fill="#cbbeb1"/>
      </g>
    </g>
  </g>
</svg>
