<svg xmlns="http://www.w3.org/2000/svg" width="360" height="254.588" viewBox="0 0 360 254.588">
  <g id="Group_1171" data-name="Group 1171" transform="translate(0 0.385)">
    <g id="corgi" transform="translate(73.066 107.315)">
      <path id="Path_40" data-name="Path 40" d="M88.573.006a1.835,1.835,0,0,1,1.659.783c1.994,2.882,7.621,13.094-.338,27.7L73.618,11.144S78.939.783,88.573.006Zm0,0" transform="translate(-42.627 0)" fill="#ffa83f"/>
      <path id="Path_41" data-name="Path 41" d="M82.674,23.644l7.884,12.9c5.076-9.313,3.675-16.3,2.066-20.059a1.339,1.339,0,0,0-1.734-.714C85.914,17.787,82.868,23.286,82.674,23.644Zm-.01.018.01-.018h0Zm0,0" transform="translate(-47.837 -9.026)" fill="#ffb2c1"/>
      <path id="Path_42" data-name="Path 42" d="M5.048.006a1.835,1.835,0,0,0-1.66.783c-1.994,2.882-7.621,13.094.338,27.7L20,11.144S14.682.783,5.048.006Zm0,0" transform="translate(0 0)" fill="#ffa83f"/>
      <path id="Path_43" data-name="Path 43" d="M92.02,34.847a29.232,29.232,0,0,0-6.062-9.718,22.6,22.6,0,0,0-10.325-6.137,23.394,23.394,0,0,0-2.015,3.088L89.894,39.423a38.028,38.028,0,0,0,2.126-4.575Zm0,0" transform="translate(-42.627 -10.937)" fill="#f39c18"/>
      <path id="Path_44" data-name="Path 44" d="M6.454,39.423,22.731,22.08a23.41,23.41,0,0,0-2.015-3.088,22.6,22.6,0,0,0-10.326,6.137A29.212,29.212,0,0,0,4.33,34.847a38.018,38.018,0,0,0,2.125,4.575Zm0,0" transform="translate(-2.728 -10.937)" fill="#f39c18"/>
      <path id="Path_45" data-name="Path 45" d="M14.91,15.772a1.34,1.34,0,0,0-1.734.714c-1.61,3.759-3.01,10.746,2.065,20.059l7.885-12.9c-.194-.358-3.24-5.857-8.216-7.872Zm8.216,7.872h0l.01.018Zm0,0" transform="translate(-6.969 -9.026)" fill="#ffb2c1"/>
      <g id="Group_45" data-name="Group 45" transform="translate(4.899 10.183)">
        <path id="Path_46" data-name="Path 46" d="M82.664,34.484l.01-.018h0Zm0,0" transform="translate(-52.736 -30.03)" fill="#ff889e"/>
        <path id="Path_47" data-name="Path 47" d="M93.946,31.42a25.64,25.64,0,0,0-2.765-3.4,22.839,22.839,0,0,0-5.165-4.009,21.981,21.981,0,0,0-3.328,4.435l7.885,12.9a28.1,28.1,0,0,0,3.373-9.924Zm0,0" transform="translate(-52.749 -24.008)" fill="#ff889e"/>
        <path id="Path_48" data-name="Path 48" d="M38.645,34.465h0l.01.018Zm0,0" transform="translate(-27.387 -30.03)" fill="#ff889e"/>
        <path id="Path_49" data-name="Path 49" d="M14.868,28.017a25.6,25.6,0,0,0-2.764,3.4,28.079,28.079,0,0,0,3.373,9.924l7.885-12.9a21.975,21.975,0,0,0-3.329-4.435,22.838,22.838,0,0,0-5.165,4.009Zm0,0" transform="translate(-12.103 -24.008)" fill="#ff889e"/>
      </g>
      <path id="Path_50" data-name="Path 50" d="M16.489,70.676C9.887,68.8,5.252,64.556,5.252,55.528c0,0-.95-30.623,23.5-30.623s23.5,30.623,23.5,30.623c0,9.028-4.635,13.272-11.237,15.149Zm0,0" transform="translate(-3.256 -14.341)" fill="#f8b459"/>
      <path id="Path_51" data-name="Path 51" d="M16.489,70.676h3.482C13.37,68.8,8.735,64.556,8.735,55.528c0,0-.9-29.149,21.759-30.569q-.869-.055-1.74-.054c-24.451,0-23.5,30.623-23.5,30.623,0,.141,0,.281,0,.42.142,8.74,4.735,12.882,11.233,14.729Zm0,0" transform="translate(-3.256 -14.341)" fill="#ffa83f"/>
      <path id="Path_52" data-name="Path 52" d="M54.172,78.557c0,4.769-1.367,10.321-5.9,14.357a45.848,45.848,0,0,1-12.265,1.35,45.842,45.842,0,0,1-12.264-1.35c-4.528-4.037-5.9-9.588-5.9-14.357,0-5.635,7.083-7.239,10.518-7.686a2.372,2.372,0,0,0,2.019-1.916c.407-2.126,1.676-5.433,5.622-5.433s5.215,3.307,5.623,5.433a2.371,2.371,0,0,0,2.018,1.916c3.435.448,10.519,2.051,10.519,7.686Zm0,0" transform="translate(-10.515 -36.579)" fill="#f9e09d"/>
      <path id="Path_53" data-name="Path 53" d="M31.7,128.834a17.622,17.622,0,0,1-6.081-2.935,16.59,16.59,0,0,0,2.6,2.935q1.023.291,2.107.509a51.991,51.991,0,0,0,10.157.841q.875,0,1.741-.018A42.32,42.32,0,0,1,31.7,128.834Zm0,0" transform="translate(-14.989 -72.499)" fill="#f8b459"/>
      <path id="Path_54" data-name="Path 54" d="M59.547,83.4a.562.562,0,0,0-.567-.551H53.854a.561.561,0,0,0-.566.551v.005c0,1.37,1.4,2.481,3.13,2.481s3.13-1.111,3.13-2.481V83.4Zm0,0" transform="translate(-30.92 -47.709)" fill="#423e4f"/>
      <path id="Path_55" data-name="Path 55" d="M36.029,66.885a.87.87,0,0,0-.87.871v1.859a.87.87,0,1,0,1.741,0V67.756A.87.87,0,0,0,36.029,66.885Zm0,0" transform="translate(-20.481 -38.516)" fill="#423e4f"/>
      <path id="Path_56" data-name="Path 56" d="M21.376,76.627H19.5a.871.871,0,0,0,0,1.741h1.874a.871.871,0,0,0,0-1.741Zm0,0" transform="translate(-10.964 -44.126)" fill="#ff889e"/>
      <path id="Path_57" data-name="Path 57" d="M82.94,66.885a.87.87,0,0,0-.87.871v1.859a.871.871,0,0,0,1.741,0V67.756A.87.87,0,0,0,82.94,66.885Zm0,0" transform="translate(-47.494 -38.516)" fill="#423e4f"/>
      <path id="Path_58" data-name="Path 58" d="M96.923,76.627H95.05a.871.871,0,1,0,0,1.741h1.873a.871.871,0,1,0,0-1.741Zm0,0" transform="translate(-54.467 -44.126)" fill="#ff889e"/>
      <path id="Path_79" data-name="Path 79" d="M60.2,94.667a1.016,1.016,0,0,0-1.434.1,2.449,2.449,0,0,1-3.6,0,1.019,1.019,0,0,0-1.531,0,2.449,2.449,0,0,1-3.6,0,1.016,1.016,0,0,0-1.53,1.338,4.408,4.408,0,0,0,3.329,1.482,4.471,4.471,0,0,0,2.564-.8,4.468,4.468,0,0,0,2.564.8A4.408,4.408,0,0,0,60.3,96.1a1.017,1.017,0,0,0-.1-1.434Zm0,0" transform="translate(-28.811 -53.859)" fill="#423e4f"/>
    </g>
    <g id="Group_1167" data-name="Group 1167">
      <g id="Group_35" data-name="Group 35" transform="translate(0 -45)">
        <g id="Group_14" data-name="Group 14" transform="translate(14.922 38.274)">
          <path id="Path_1" data-name="Path 1" d="M-36.555,1972.314v32.693l15.825-10.053,13.914,10.053v-32.693Z" transform="translate(186.309 -1897.883)" fill="#74d9dd"/>
          <path id="Path_3" data-name="Path 3" d="M-20.5,2008.316l.086-16.774H-6.486l-.026,16.964-6.687-4.857Z" transform="translate(178.769 -1906.385)" fill="#aef4f7"/>
          <path id="Polygon_1" data-name="Polygon 1" d="M31.5,0,48.705,4.942,60.448,18.2,63,35.561,55.551,51.517,40.466,61H22.534L7.449,51.517,0,35.561,2.552,18.2,14.295,4.942Z" transform="translate(134.078 24.726)" fill="#ffd355"/>
          <path id="Polygon_2" data-name="Polygon 2" d="M25,0,38.655,3.97l9.32,10.649L50,28.565,44.088,41.382,32.116,49H17.884L5.912,41.382,0,28.565,2.025,14.618,11.345,3.97Z" transform="translate(140.078 30.726)" fill="#edbd35"/>
          <path id="Path_2" data-name="Path 2" d="M-27.855,1933.964H-3.936V1917.05l-6.107,5.552-5.408-5.552-5.04,5.552-7.363-5.552Z" transform="translate(181.1 -1869.804)" fill="#faf7a7"/>
        </g>
      </g>
      <text id="Here_you_go_" data-name="Here you go!" transform="translate(83 131)" fill="#fff" font-size="16" font-family="Raleway-Regular, Raleway"><tspan x="56.88" y="15">Here you go!</tspan></text>
    </g>
    <g id="Group_13" data-name="Group 13" transform="translate(415.012 211.615) rotate(-180)">
      <path id="Polygon_3" data-name="Polygon 3" d="M8.5,0,17,12,8.5,24,0,12Z" transform="translate(79.012 104)" fill="#facc83"/>
      <path id="Polygon_4" data-name="Polygon 4" d="M5.5,0,11,8,5.5,16,0,8Z" transform="translate(61.012 180)" fill="#bbd2fc"/>
      <path id="Polygon_5" data-name="Polygon 5" d="M8.5,0,17,12,8.5,24,0,12Z" transform="translate(169.776 177)" fill="#f7b1b1"/>
      <path id="Polygon_6" data-name="Polygon 6" d="M6.5,0,13,9,6.5,18,0,9Z" transform="translate(247.79 194)" fill="#7ffad4"/>
      <path id="Polygon_7" data-name="Polygon 7" d="M8.5,0,17,12,8.5,24,0,12Z" transform="translate(312.907 143)" fill="#facc83"/>
      <path id="Polygon_8" data-name="Polygon 8" d="M8.5,0,17,12,8.5,24,0,12Z" transform="translate(398.012 102)" fill="#7ffad4"/>
      <path id="Polygon_9" data-name="Polygon 9" d="M5.5,0,11,7.5,5.5,15,0,7.5Z" transform="translate(377.012 69)" fill="#f7b1b1"/>
      <path id="Polygon_10" data-name="Polygon 10" d="M8.5,0,17,12,8.5,24,0,12Z" transform="translate(55.012 40)" fill="#f7b1b1"/>
      <path id="Polygon_11" data-name="Polygon 11" d="M5.5,0,11,7.5,5.5,15,0,7.5Z" transform="translate(396.012 40)" fill="#f7b1b1"/>
      <path id="Polygon_12" data-name="Polygon 12" d="M5.5,0,11,7.5,5.5,15,0,7.5Z" transform="translate(385.012 180)" fill="#bbd2fc"/>
    </g>
    <g id="Group_1169" data-name="Group 1169" transform="translate(121.174 176.237)">
      <g id="Group_23" data-name="Group 23" transform="translate(0 0)">
        <path id="Path_4" data-name="Path 4" d="M38.446,0A38.664,38.664,0,0,1,76.893,38.879,38.664,38.664,0,0,1,38.446,77.757,38.664,38.664,0,0,1,0,38.879,38.664,38.664,0,0,1,38.446,0Z" transform="translate(0 0)" fill="#807a7a"/>
        <ellipse id="Ellipse_13" data-name="Ellipse 13" cx="25.463" cy="25.895" rx="25.463" ry="25.895" transform="translate(12.983 12.984)" fill="#ddd"/>
        <ellipse id="Ellipse_14" data-name="Ellipse 14" cx="18.558" cy="18.99" rx="18.558" ry="18.99" transform="translate(19.889 19.889)" fill="#b5b4b4"/>
        <ellipse id="Ellipse_15" data-name="Ellipse 15" cx="3.453" cy="3.453" rx="3.453" ry="3.453" transform="translate(34.562 25.931)" fill="#fff"/>
        <ellipse id="Ellipse_16" data-name="Ellipse 16" cx="3.453" cy="3.453" rx="3.453" ry="3.453" transform="translate(29.383 43.194)" fill="#fff"/>
        <ellipse id="Ellipse_17" data-name="Ellipse 17" cx="3.453" cy="3.453" rx="3.453" ry="3.453" transform="translate(40.604 43.194)" fill="#fff"/>
        <ellipse id="Ellipse_18" data-name="Ellipse 18" cx="3.884" cy="3.453" rx="3.884" ry="3.453" transform="translate(25.068 32.836)" fill="#fff"/>
        <ellipse id="Ellipse_19" data-name="Ellipse 19" cx="3.884" cy="3.453" rx="3.884" ry="3.453" transform="translate(44.92 32.836)" fill="#fff"/>
      </g>
    </g>
    <g id="Group_1170" data-name="Group 1170" transform="translate(187.442 202.678)">
      <g id="Group_23-2" data-name="Group 23" transform="translate(0 0)">
        <path id="Path_4-2" data-name="Path 4" d="M25.476,0A25.621,25.621,0,0,1,50.952,25.762,25.621,25.621,0,0,1,25.476,51.525,25.621,25.621,0,0,1,0,25.762,25.621,25.621,0,0,1,25.476,0Z" transform="translate(0 0)" fill="#807a7a"/>
        <ellipse id="Ellipse_13-2" data-name="Ellipse 13" cx="16.873" cy="17.159" rx="16.873" ry="17.159" transform="translate(8.603 8.603)" fill="#ddd"/>
        <ellipse id="Ellipse_14-2" data-name="Ellipse 14" cx="12.297" cy="12.583" rx="12.297" ry="12.583" transform="translate(13.179 13.179)" fill="#b5b4b4"/>
        <ellipse id="Ellipse_15-2" data-name="Ellipse 15" cx="2.288" cy="2.288" rx="2.288" ry="2.288" transform="translate(22.902 17.183)" fill="#fff"/>
        <ellipse id="Ellipse_16-2" data-name="Ellipse 16" cx="2.288" cy="2.288" rx="2.288" ry="2.288" transform="translate(19.471 28.622)" fill="#fff"/>
        <ellipse id="Ellipse_17-2" data-name="Ellipse 17" cx="2.288" cy="2.288" rx="2.288" ry="2.288" transform="translate(26.906 28.622)" fill="#fff"/>
        <ellipse id="Ellipse_18-2" data-name="Ellipse 18" cx="2.574" cy="2.288" rx="2.574" ry="2.288" transform="translate(16.611 21.759)" fill="#fff"/>
        <ellipse id="Ellipse_19-2" data-name="Ellipse 19" cx="2.574" cy="2.288" rx="2.574" ry="2.288" transform="translate(29.766 21.759)" fill="#fff"/>
      </g>
    </g>
  </g>
</svg>
