<svg xmlns="http://www.w3.org/2000/svg" width="360" height="258.525" viewBox="0 0 360 258.525">
  <g id="Group_1192" data-name="Group 1192" transform="translate(0 0.386)">
    <g id="Group_1177" data-name="Group 1177">
      <g id="Group_35" data-name="Group 35" transform="translate(0 -45)">
        <g id="Group_14" data-name="Group 14" transform="translate(14.922 38.274)">
          <path id="Path_1" data-name="Path 1" d="M-36.555,1972.314v32.693l15.825-10.053,13.914,10.053v-32.693Z" transform="translate(186.309 -1897.883)" fill="#74d9dd"/>
          <path id="Path_3" data-name="Path 3" d="M-20.5,2008.316l.086-16.774H-6.486l-.026,16.964-6.687-4.857Z" transform="translate(178.769 -1906.385)" fill="#aef4f7"/>
          <path id="Polygon_1" data-name="Polygon 1" d="M31.5,0,48.705,4.942,60.448,18.2,63,35.561,55.551,51.517,40.466,61H22.534L7.449,51.517,0,35.561,2.552,18.2,14.295,4.942Z" transform="translate(134.078 24.726)" fill="#ffd355"/>
          <path id="Polygon_2" data-name="Polygon 2" d="M25,0,38.655,3.97l9.32,10.649L50,28.565,44.088,41.382,32.116,49H17.884L5.912,41.382,0,28.565,2.025,14.618,11.345,3.97Z" transform="translate(140.078 30.726)" fill="#edbd35"/>
          <path id="Path_2" data-name="Path 2" d="M-27.855,1933.964H-3.936V1917.05l-6.107,5.552-5.408-5.552-5.04,5.552-7.363-5.552Z" transform="translate(181.1 -1869.804)" fill="#faf7a7"/>
        </g>
      </g>
      <g id="corgi" transform="translate(56.658 106.315)">
        <path id="Path_40" data-name="Path 40" d="M84.951,0A1.39,1.39,0,0,1,86.208.6c1.511,2.184,5.775,9.922-.256,20.988L73.618,8.444S77.65.593,84.951,0Zm0,0" transform="translate(-49.825 0)" fill="#ffa83f"/>
        <path id="Path_41" data-name="Path 41" d="M82.672,21.713l5.974,9.776c3.846-7.057,2.785-12.352,1.565-15.2a1.015,1.015,0,0,0-1.314-.541C85.127,17.275,82.819,21.442,82.672,21.713Zm-.008.014.008-.014h0Zm0,0" transform="translate(-55.964 -10.636)" fill="#ffb2c1"/>
        <path id="Path_42" data-name="Path 42" d="M3.727,0A1.391,1.391,0,0,0,2.469.6C.958,2.782-3.306,10.52,2.725,21.586L15.06,8.444S11.027.593,3.727,0Zm0,0" transform="translate(0.407 0)" fill="#ffa83f"/>
        <path id="Path_43" data-name="Path 43" d="M87.562,31.007a22.151,22.151,0,0,0-4.593-7.364,17.126,17.126,0,0,0-7.824-4.65,17.727,17.727,0,0,0-1.527,2.34L85.952,34.474a28.818,28.818,0,0,0,1.611-3.467Zm0,0" transform="translate(-49.825 -12.888)" fill="#f39c18"/>
        <path id="Path_44" data-name="Path 44" d="M5.94,34.474,18.274,21.332a17.739,17.739,0,0,0-1.527-2.34,17.124,17.124,0,0,0-7.825,4.65A22.136,22.136,0,0,0,4.33,31.007a28.809,28.809,0,0,0,1.61,3.467Zm0,0" transform="translate(-2.807 -12.888)" fill="#f39c18"/>
        <path id="Path_45" data-name="Path 45" d="M14.132,15.748a1.016,1.016,0,0,0-1.314.541c-1.22,2.848-2.281,8.143,1.565,15.2l5.975-9.776c-.147-.271-2.455-4.438-6.226-5.966Zm6.226,5.965h0l.007.014Zm0,0" transform="translate(-7.805 -10.636)" fill="#ffb2c1"/>
        <g id="Group_45" data-name="Group 45" transform="translate(4.021 7.717)">
          <path id="Path_46" data-name="Path 46" d="M82.664,34.479l.008-.014h0Zm0,0" transform="translate(-59.985 -31.104)" fill="#ff889e"/>
          <path id="Path_47" data-name="Path 47" d="M91.219,29.625a19.43,19.43,0,0,0-2.095-2.579,17.306,17.306,0,0,0-3.914-3.038,16.657,16.657,0,0,0-2.522,3.361l5.975,9.776a21.294,21.294,0,0,0,2.556-7.52Zm0,0" transform="translate(-60.001 -24.008)" fill="#ff889e"/>
          <path id="Path_48" data-name="Path 48" d="M38.645,34.465h0l.007.014Zm0,0" transform="translate(-30.114 -31.104)" fill="#ff889e"/>
          <path id="Path_49" data-name="Path 49" d="M14.2,27.046A19.4,19.4,0,0,0,12.1,29.625a21.277,21.277,0,0,0,2.556,7.52l5.975-9.776a16.652,16.652,0,0,0-2.522-3.361A17.306,17.306,0,0,0,14.2,27.046Zm0,0" transform="translate(-12.103 -24.008)" fill="#ff889e"/>
        </g>
        <path id="Path_50" data-name="Path 50" d="M13.766,59.589c-5-1.422-8.515-4.638-8.515-11.479,0,0-.72-23.205,17.809-23.205S40.868,48.11,40.868,48.11c0,6.841-3.512,10.057-8.515,11.479Zm0,0" transform="translate(-3.43 -16.9)" fill="#f8b459"/>
        <path id="Path_51" data-name="Path 51" d="M13.766,59.589H16.4c-5-1.422-8.515-4.638-8.515-11.479,0,0-.685-22.088,16.488-23.164Q23.72,24.9,23.06,24.9C4.532,24.9,5.251,48.11,5.251,48.11c0,.107,0,.213,0,.318.108,6.623,3.588,9.762,8.512,11.161Zm0,0" transform="translate(-3.43 -16.9)" fill="#ffa83f"/>
        <path id="Path_52" data-name="Path 52" d="M45.374,74.915a14.226,14.226,0,0,1-4.467,10.88,34.743,34.743,0,0,1-9.294,1.023,34.738,34.738,0,0,1-9.294-1.023,14.225,14.225,0,0,1-4.467-10.88c0-4.27,5.368-5.485,7.971-5.824a1.8,1.8,0,0,0,1.53-1.452c.308-1.611,1.27-4.117,4.26-4.117s3.952,2.506,4.261,4.117a1.8,1.8,0,0,0,1.53,1.452c2.6.339,7.971,1.554,7.971,5.824Zm0,0" transform="translate(-11.983 -43.106)" fill="#f9e09d"/>
        <path id="Path_53" data-name="Path 53" d="M30.23,128.123a13.354,13.354,0,0,1-4.608-2.224,12.572,12.572,0,0,0,1.97,2.224q.775.221,1.6.385a39.4,39.4,0,0,0,7.7.637q.663,0,1.319-.014a32.069,32.069,0,0,1-7.975-1.009Zm0,0" transform="translate(-17.256 -85.433)" fill="#f8b459"/>
        <path id="Path_54" data-name="Path 54" d="M58.031,83.268a.426.426,0,0,0-.43-.418H53.717a.425.425,0,0,0-.429.418v0a2.436,2.436,0,0,0,4.743,0v0Zm0,0" transform="translate(-36.03 -56.221)" fill="#423e4f"/>
        <path id="Path_55" data-name="Path 55" d="M35.818,66.885a.659.659,0,0,0-.659.66v1.409a.66.66,0,1,0,1.319,0V67.545A.66.66,0,0,0,35.818,66.885Zm0,0" transform="translate(-23.727 -45.388)" fill="#423e4f"/>
        <path id="Path_56" data-name="Path 56" d="M20.711,76.627h-1.42a.66.66,0,0,0,0,1.319h1.42a.66.66,0,0,0,0-1.319Zm0,0" transform="translate(-12.512 -51.998)" fill="#ff889e"/>
        <path id="Path_57" data-name="Path 57" d="M82.729,66.885a.66.66,0,0,0-.66.66v1.409a.66.66,0,0,0,1.319,0V67.545A.66.66,0,0,0,82.729,66.885Zm0,0" transform="translate(-55.561 -45.388)" fill="#423e4f"/>
        <path id="Path_58" data-name="Path 58" d="M96.258,76.627h-1.42a.66.66,0,1,0,0,1.319h1.42a.66.66,0,1,0,0-1.319Zm0,0" transform="translate(-63.778 -51.998)" fill="#ff889e"/>
        <path id="Path_79" data-name="Path 79" d="M57.309,94.606a.77.77,0,0,0-1.087.073,1.856,1.856,0,0,1-2.726,0,.773.773,0,0,0-1.16,0,1.856,1.856,0,0,1-2.726,0,.77.77,0,0,0-1.159,1.014,3.34,3.34,0,0,0,2.522,1.123,3.388,3.388,0,0,0,1.943-.6,3.386,3.386,0,0,0,1.943.6,3.34,3.34,0,0,0,2.523-1.123.77.77,0,0,0-.073-1.087Zm0,0" transform="translate(-33.213 -63.683)" fill="#423e4f"/>
      </g>
      <text id="Thank_you_" data-name="Thank you!" transform="translate(108 122)" fill="#fff" font-size="16" font-family="Raleway-Regular, Raleway"><tspan x="63.656" y="15">Thank you!</tspan></text>
      <g id="Group_13" data-name="Group 13" transform="translate(415.012 211.615) rotate(-180)">
        <path id="Polygon_3" data-name="Polygon 3" d="M8.5,0,17,12,8.5,24,0,12Z" transform="translate(79.012 104)" fill="#facc83"/>
        <path id="Polygon_4" data-name="Polygon 4" d="M5.5,0,11,8,5.5,16,0,8Z" transform="translate(61.012 180)" fill="#bbd2fc"/>
        <path id="Polygon_5" data-name="Polygon 5" d="M8.5,0,17,12,8.5,24,0,12Z" transform="translate(169.776 177)" fill="#f7b1b1"/>
        <path id="Polygon_6" data-name="Polygon 6" d="M6.5,0,13,9,6.5,18,0,9Z" transform="translate(247.79 194)" fill="#7ffad4"/>
        <path id="Polygon_7" data-name="Polygon 7" d="M8.5,0,17,12,8.5,24,0,12Z" transform="translate(312.907 143)" fill="#facc83"/>
        <path id="Polygon_8" data-name="Polygon 8" d="M8.5,0,17,12,8.5,24,0,12Z" transform="translate(398.012 102)" fill="#7ffad4"/>
        <path id="Polygon_9" data-name="Polygon 9" d="M5.5,0,11,7.5,5.5,15,0,7.5Z" transform="translate(377.012 69)" fill="#f7b1b1"/>
        <path id="Polygon_10" data-name="Polygon 10" d="M8.5,0,17,12,8.5,24,0,12Z" transform="translate(55.012 40)" fill="#f7b1b1"/>
        <path id="Polygon_11" data-name="Polygon 11" d="M5.5,0,11,7.5,5.5,15,0,7.5Z" transform="translate(396.012 40)" fill="#f7b1b1"/>
        <path id="Polygon_12" data-name="Polygon 12" d="M5.5,0,11,7.5,5.5,15,0,7.5Z" transform="translate(385.012 180)" fill="#bbd2fc"/>
      </g>
      <g id="Group_148" data-name="Group 148" transform="translate(105.667 109.897)">
        <g id="panda" transform="translate(0.618 0)">
          <path id="Path_168" data-name="Path 168" d="M362.759,34.671a7.514,7.514,0,0,1,6.116-4.1,6.4,6.4,0,0,1,4.781,2.488,8.185,8.185,0,0,1,1.969,5.126,6.45,6.45,0,0,1-3.423,5.47.7.7,0,0,1-.952-.244,20.677,20.677,0,0,0-8.2-7.777.7.7,0,0,1-.29-.958Z" transform="translate(-334.051 -30.566)" fill="#525256"/>
          <ellipse id="Ellipse_56" data-name="Ellipse 56" cx="3.5" cy="3" rx="3.5" ry="3" transform="translate(29.715 3.103)" fill="#353535"/>
          <path id="Path_166" data-name="Path 166" d="M15.273,34.671a7.514,7.514,0,0,0-6.116-4.1,6.4,6.4,0,0,0-4.781,2.488A8.185,8.185,0,0,0,2.407,38.18,6.45,6.45,0,0,0,5.83,43.65a.7.7,0,0,0,.952-.244,20.676,20.676,0,0,1,8.2-7.777.7.7,0,0,0,.29-.958Z" transform="translate(-2.407 -30.566)" fill="#525256"/>
          <g id="Group_92" data-name="Group 92" transform="translate(35.9 0.985)">
            <path id="Path_169" data-name="Path 169" d="M440.9,51.052a6.45,6.45,0,0,0,3.423-5.47,8.013,8.013,0,0,0-1.447-4.433,7.672,7.672,0,0,1,1.674,1.5,8.185,8.185,0,0,1,1.969,5.126,6.45,6.45,0,0,1-3.423,5.47.7.7,0,0,1-.952-.244,21.512,21.512,0,0,0-1.3-1.924C440.861,51.07,440.88,51.062,440.9,51.052Z" transform="translate(-440.843 -41.148)" fill="#454549"/>
          </g>
          <path id="Path_175" data-name="Path 175" d="M218.55,277.708a5.266,5.266,0,0,1-6.9,0,1.58,1.58,0,0,0-.348,1.044c0,.721.591,1.453,1.86,2.3a15.975,15.975,0,0,0,1.63.946.7.7,0,0,0,.617,0,15.964,15.964,0,0,0,1.63-.946c1.269-.849,1.86-1.58,1.86-2.3A1.581,1.581,0,0,0,218.55,277.708Z" transform="translate(-194.326 -256.08)" fill="#454549"/>
          <g id="Group_91" data-name="Group 91" transform="translate(0 0.985)">
            <path id="Path_167" data-name="Path 167" d="M8.025,51.052A6.45,6.45,0,0,1,4.6,45.581,8.013,8.013,0,0,1,6.05,41.148a7.672,7.672,0,0,0-1.674,1.5,8.185,8.185,0,0,0-1.969,5.126,6.45,6.45,0,0,0,3.423,5.47A.7.7,0,0,0,6.782,53a21.51,21.51,0,0,1,1.3-1.924C8.062,51.07,8.044,51.062,8.025,51.052Z" transform="translate(-2.407 -41.148)" fill="#454549"/>
          </g>
          <ellipse id="Ellipse_55" data-name="Ellipse 55" cx="4" cy="3" rx="4" ry="3" transform="translate(3.715 3.103)" fill="#353535"/>
        </g>
        <g id="Group_96" data-name="Group 96" transform="translate(0 2.428)">
          <path id="Path_183" data-name="Path 183" d="M37.631,51.074A20.442,20.442,0,0,0,21.556,43.9h-.085A20.441,20.441,0,0,0,5.4,51.074,23.121,23.121,0,0,0,0,65.867a13.943,13.943,0,0,0,6.41,11.9c3.805,2.606,9.152,4.046,15.063,4.057h.081c5.911-.012,11.258-1.451,15.063-4.057a13.943,13.943,0,0,0,6.41-11.9A23.122,23.122,0,0,0,37.631,51.074Z" transform="translate(0 -43.897)" fill="#e0e0e0"/>
          <path id="Path_184" data-name="Path 184" d="M36.617,283.437c-3.805,2.673-9.152,4.15-15.063,4.162h-.081c-5.911-.012-11.258-1.489-15.063-4.162A14.36,14.36,0,0,1,.063,272.674Q0,273.525,0,274.38a14.4,14.4,0,0,0,6.41,12.211c3.805,2.673,9.152,4.15,15.063,4.162h.081c5.911-.012,11.258-1.489,15.063-4.162a14.4,14.4,0,0,0,6.41-12.211q0-.853-.063-1.706A14.36,14.36,0,0,1,36.617,283.437Z" transform="translate(0 -252.822)" fill="#c4c4c4"/>
        </g>
        <g id="panda-2" data-name="panda" transform="translate(9.341 11.739)">
          <g id="Group_97" data-name="Group 97" transform="translate(0 0)">
            <path id="Path_173" data-name="Path 173" d="M180.051,313.2a.7.7,0,0,0-.909-.387,5.554,5.554,0,0,1-6.58-1.486v-1.065a.7.7,0,0,0-1.4,0v1.065a5.553,5.553,0,0,1-6.58,1.486.7.7,0,0,0-.521,1.3,7.766,7.766,0,0,0,2.915.6,6.664,6.664,0,0,0,3.264-.854,7.46,7.46,0,0,0,1.622-1.228,7.462,7.462,0,0,0,1.622,1.228,6.663,6.663,0,0,0,3.264.854,7.768,7.768,0,0,0,2.915-.6A.7.7,0,0,0,180.051,313.2Z" transform="translate(-159.819 -296.92)" fill="#2b2b2d"/>
            <path id="Path_174" data-name="Path 174" d="M215.1,268.243c-1.327,0-3.8,0-3.8,1.925,0,.721.591,1.453,1.86,2.3a15.982,15.982,0,0,0,1.63.946.7.7,0,0,0,.617,0,15.968,15.968,0,0,0,1.63-.946c1.269-.849,1.86-1.58,1.86-2.3C218.9,268.243,216.427,268.243,215.1,268.243Z" transform="translate(-203.05 -259.215)" fill="#525256"/>
            <g id="Group_94" data-name="Group 94">
              <path id="Path_172" data-name="Path 172" d="M86.089,176.205a3.626,3.626,0,0,0-2.864-1.286,5.181,5.181,0,0,0-3.259,1.155,5.921,5.921,0,0,0-2.023,3.662,4.479,4.479,0,0,0,.768,3.667,3.06,3.06,0,0,0,2.424,1.088,5.488,5.488,0,0,0,3.44-1.529,6.678,6.678,0,0,0,2.147-3.422A3.886,3.886,0,0,0,86.089,176.205Z" transform="translate(-77.853 -174.919)" fill="#525256"/>
              <path id="Path_177" data-name="Path 177" d="M84.578,215.55a5.489,5.489,0,0,1-3.44,1.529,3.06,3.06,0,0,1-2.424-1.088,3.636,3.636,0,0,1-.736-1.53c-.011.056-.023.111-.033.168a4.479,4.479,0,0,0,.768,3.667,3.06,3.06,0,0,0,2.424,1.088,5.488,5.488,0,0,0,3.44-1.529,6.678,6.678,0,0,0,2.147-3.422,4.4,4.4,0,0,0-.034-2.166A6.755,6.755,0,0,1,84.578,215.55Z" transform="translate(-77.854 -209.812)" fill="#454549"/>
            </g>
            <g id="Group_95" data-name="Group 95" transform="translate(16.003 0)">
              <path id="Path_176" data-name="Path 176" d="M293.735,179.736a5.921,5.921,0,0,0-2.023-3.662,5.181,5.181,0,0,0-3.259-1.155,3.626,3.626,0,0,0-2.864,1.286,3.886,3.886,0,0,0-.634,3.334,6.677,6.677,0,0,0,2.147,3.422,5.489,5.489,0,0,0,3.44,1.529,3.06,3.06,0,0,0,2.424-1.088A4.479,4.479,0,0,0,293.735,179.736Z" transform="translate(-284.836 -174.919)" fill="#525256"/>
              <path id="Path_178" data-name="Path 178" d="M293.709,214.46a3.637,3.637,0,0,1-.736,1.531,3.06,3.06,0,0,1-2.424,1.088,5.489,5.489,0,0,1-3.44-1.529A6.754,6.754,0,0,1,285,212.265a4.4,4.4,0,0,0-.034,2.166,6.677,6.677,0,0,0,2.147,3.422,5.489,5.489,0,0,0,3.44,1.529,3.06,3.06,0,0,0,2.424-1.088,4.479,4.479,0,0,0,.768-3.667C293.732,214.571,293.72,214.516,293.709,214.46Z" transform="translate(-284.844 -209.811)" fill="#454549"/>
            </g>
            <path id="Path_181" data-name="Path 181" d="M.469,0A.469.469,0,0,0,0,.47v1a.469.469,0,1,0,.939,0v-1A.469.469,0,0,0,.469,0Zm0,0" transform="translate(5.292 1.722) rotate(11)" fill="#fff"/>
            <path id="Path_182" data-name="Path 182" d="M.469,0A.469.469,0,0,0,0,.47v1a.47.47,0,0,0,.939,0v-1A.469.469,0,0,0,.469,0Zm0,0" transform="matrix(0.978, -0.208, 0.208, 0.978, 18.437, 2.104)" fill="#fff"/>
          </g>
        </g>
      </g>
      <g id="Group_1169" data-name="Group 1169" transform="translate(-169 32.112)">
        <g id="Group_23" data-name="Group 23" transform="translate(210 156)">
          <path id="Path_4" data-name="Path 4" d="M34.625,0A34.821,34.821,0,0,1,69.249,35.014,34.821,34.821,0,0,1,34.625,70.027,34.821,34.821,0,0,1,0,35.014,34.821,34.821,0,0,1,34.625,0Z" transform="translate(0 0)" fill="#807a7a"/>
          <ellipse id="Ellipse_13" data-name="Ellipse 13" cx="22.932" cy="23.321" rx="22.932" ry="23.321" transform="translate(11.693 11.693)" fill="#ddd"/>
          <ellipse id="Ellipse_14" data-name="Ellipse 14" cx="16.713" cy="17.102" rx="16.713" ry="17.102" transform="translate(17.911 17.912)" fill="#b5b4b4"/>
          <circle id="Ellipse_15" data-name="Ellipse 15" cx="3.109" cy="3.109" r="3.109" transform="translate(31.127 23.353)" fill="#fff"/>
          <circle id="Ellipse_16" data-name="Ellipse 16" cx="3.109" cy="3.109" r="3.109" transform="translate(26.462 38.9)" fill="#fff"/>
          <circle id="Ellipse_17" data-name="Ellipse 17" cx="3.109" cy="3.109" r="3.109" transform="translate(36.568 38.9)" fill="#fff"/>
          <ellipse id="Ellipse_18" data-name="Ellipse 18" cx="3.498" cy="3.109" rx="3.498" ry="3.109" transform="translate(22.576 29.572)" fill="#fff"/>
          <ellipse id="Ellipse_19" data-name="Ellipse 19" cx="3.498" cy="3.109" rx="3.498" ry="3.109" transform="translate(40.455 29.572)" fill="#fff"/>
        </g>
      </g>
      <g id="Group_1176" data-name="Group 1176" transform="translate(-111 48.801)">
        <g id="Group_23-2" data-name="Group 23" transform="translate(210 156)">
          <path id="Path_4-2" data-name="Path 4" d="M26.373,0A26.522,26.522,0,0,1,52.746,26.669,26.522,26.522,0,0,1,26.373,53.339,26.522,26.522,0,0,1,0,26.669,26.522,26.522,0,0,1,26.373,0Z" transform="translate(0 0)" fill="#807a7a"/>
          <ellipse id="Ellipse_13-2" data-name="Ellipse 13" cx="17.467" cy="17.763" rx="17.467" ry="17.763" transform="translate(8.906 8.906)" fill="#ddd"/>
          <ellipse id="Ellipse_14-2" data-name="Ellipse 14" cx="12.73" cy="13.026" rx="12.73" ry="13.026" transform="translate(13.643 13.643)" fill="#b5b4b4"/>
          <circle id="Ellipse_15-2" data-name="Ellipse 15" cx="2.368" cy="2.368" r="2.368" transform="translate(23.709 17.788)" fill="#fff"/>
          <circle id="Ellipse_16-2" data-name="Ellipse 16" cx="2.368" cy="2.368" r="2.368" transform="translate(20.156 29.63)" fill="#fff"/>
          <circle id="Ellipse_17-2" data-name="Ellipse 17" cx="2.368" cy="2.368" r="2.368" transform="translate(27.853 29.63)" fill="#fff"/>
          <ellipse id="Ellipse_18-2" data-name="Ellipse 18" cx="2.664" cy="2.368" rx="2.664" ry="2.368" transform="translate(17.195 22.525)" fill="#fff"/>
          <ellipse id="Ellipse_19-2" data-name="Ellipse 19" cx="2.664" cy="2.368" rx="2.664" ry="2.368" transform="translate(30.814 22.525)" fill="#fff"/>
        </g>
      </g>
    </g>
    <g id="Group_1180" data-name="Group 1180" transform="translate(-2284.111 -7232.035)">
      <g id="Group_1179" data-name="Group 1179" transform="translate(2452 7402)">
        <path id="Subtraction_4" data-name="Subtraction 4" d="M86.255,88H79.639c-.608,0-1.224-.028-1.829-.083-.6.055-1.219.083-1.828.083H60.36a21.108,21.108,0,0,0,.211-2.975,20.812,20.812,0,1,0-41.623,0,21.041,21.041,0,0,0,.209,2.957A19.982,19.982,0,0,1,0,68V53.2a19.982,19.982,0,0,1,20-20h2.986V20a19.982,19.982,0,0,1,20-20H98.347a19.982,19.982,0,0,1,20,20V33.2H135a19.982,19.982,0,0,1,20,20V68a19.983,19.983,0,0,1-20,20h-7.854a21.32,21.32,0,0,0,.21-2.975,20.85,20.85,0,0,0-6.05-14.726,20.621,20.621,0,0,0-33.639,6.62A21.088,21.088,0,0,0,86.252,88ZM81.822,6.576a11,11,0,0,0-11,11V24.7a11,11,0,0,0,11,11h18.07a11,11,0,0,0,11-11V17.576a11,11,0,0,0-11-11Zm-35.41,0a11,11,0,0,0-11,11V24.7a11,11,0,0,0,11,11h3.16a11,11,0,0,0,11-11V17.576a11,11,0,0,0-11-11Z" transform="translate(0.111 0.035)" fill="#c6edff"/>
        <rect id="Rectangle_34" data-name="Rectangle 34" width="10" height="6" transform="translate(145.111 62.035)" fill="#ffd3a7"/>
        <rect id="Rectangle_36" data-name="Rectangle 36" width="10" height="7" transform="translate(145.111 57.035)" fill="#cbbeb1"/>
        <rect id="Rectangle_37" data-name="Rectangle 37" width="10" height="5" transform="translate(0.111 62.035)" fill="#ffd3a7"/>
        <rect id="Rectangle_38" data-name="Rectangle 38" width="10" height="8" transform="translate(0.111 56.035)" fill="#cbbeb1"/>
      </g>
    </g>
  </g>
</svg>
