<svg id="Layer_1" data-name="Layer 1" xmlns="http://www.w3.org/2000/svg" viewBox="0 0 612 792"><defs><style>.cls-1{fill:#44332e;}.cls-2{fill:#2d201e;}.cls-3{fill:#28211e;}.cls-4{fill:#56423b;}.cls-5{fill:#7c6a63;}</style></defs><path id="Shape" class="cls-1" d="M349.89,333.3c-3.57,47.29-18.8,204.92-65.21,251.11-39,39-87,60.16-138.61,40.63a138.41,138.41,0,0,1-21.8-10.51,130,130,0,0,1-17.92-12.72A127.59,127.59,0,0,1,96.57,593a124.8,124.8,0,0,1-9.4-10.51,128.73,128.73,0,0,1-12.88-18.55,136,136,0,0,1-10.51-21.86A140.25,140.25,0,0,1,96.37,394.63c46.5-46.44,193.83-70.26,241-73.89a11.62,11.62,0,0,1,12.56,10.59,10.8,10.8,0,0,1,0,2Z"/><path class="cls-2" d="M96.36,592.7q4.32,4.32,9,8.2a130,130,0,0,0,17.83,12.84A139.32,139.32,0,0,0,145,624.4c51.47,19.87,99.63-.92,138.89-39.7,17.84-17.51,31.23-51.33,41.2-89.06-9.06,26-20.12,48-33.57,61.16-41.54,41-93.09,62.54-147.55,41.5a146.67,146.67,0,0,1-23-11.27c-2.76-1.66-9.43-6.28-12.06-8.12"/><path class="cls-2" d="M109.53,579.3c-2.33-1.73-4.62-3.54-6.84-5.42a134.6,134.6,0,0,1-10.35-9.34,132.89,132.89,0,0,1-10-11.12,135.3,135.3,0,0,1-13.62-19.63,143.41,143.41,0,0,1-11.12-23.13c-.77-2.09-1.4-4.22-2.07-6.33a140.29,140.29,0,0,0,8.07,37.25,135.08,135.08,0,0,0,10.51,21.85A128.91,128.91,0,0,0,87,582a125.1,125.1,0,0,0,9.41,10.51l.69.69"/><path class="cls-3" d="M113.1,581.81c-1.35-.92-2.67-1.87-4-2.84"/><path id="Shape-2" data-name="Shape" class="cls-4" d="M326.84,362.93C324.49,394,314.47,497.65,284,528c-25.64,25.66-57.2,39.55-91.13,26.71a90.43,90.43,0,0,1-14.33-6.91,99,99,0,0,1-18.21-14.16,81.15,81.15,0,0,1-6.19-6.91,85.23,85.23,0,0,1-8.46-12.19,89.13,89.13,0,0,1-6.91-14.37,92.21,92.21,0,0,1,21.43-96.93c30.57-30.53,127.43-46.19,158.41-48.58a7.63,7.63,0,0,1,8.25,7,7.06,7.06,0,0,1,0,1.3Z"/><path class="cls-5" d="M314.83,384.49c-20.93,6.28-42.38,30.34-28.25,41.85C309.6,431.57,312.21,399.66,314.83,384.49Z"/></svg>