<svg xmlns="http://www.w3.org/2000/svg" width="184" height="183.938" viewBox="0 0 184 183.938">
  <g id="Page-1" transform="translate(0.028 0.008)">
    <g id="_058---Seed" data-name="058---Seed" transform="translate(-0.028 -0.008)">
      <path id="Shape" d="M184.947,8.595C182.791,37.129,173.6,132.242,145.6,160.11a84.619,84.619,0,0,1-89.819,19.34,83.634,83.634,0,0,1-13.157-6.341,78.782,78.782,0,0,1-10.811-7.672,77.068,77.068,0,0,1-5.9-5.326,75.487,75.487,0,0,1-5.675-6.341,77.675,77.675,0,0,1-7.768-11.192,81.864,81.864,0,0,1-6.341-13.189A84.619,84.619,0,0,1,25.791,40.426C53.849,12.4,148.931,3.205,177.369,1.017a7.007,7.007,0,0,1,7.577,7.577Z" transform="translate(-0.972 -0.992)" fill="#a56a43"/>
      <g id="Group_64" data-name="Group 64" transform="translate(5.099 20.821)">
        <path id="Shape-2" data-name="Shape" d="M111.707,13.776c-.412,0-42.516,13.284-69.75,40.328C17.735,78.326,6.86,102.643,8.921,128.292A81.864,81.864,0,0,1,2.58,115.1q3.139-33.765,34.875-65.47C65.735,21.417,107.934,8.418,109.709,7.72a3.188,3.188,0,0,1,2,6.056Z" transform="translate(-2.58 -7.559)" fill="#805333"/>
        <path id="Shape-3" data-name="Shape" d="M135.5,26.4c-.539,1.775-13.728,43.879-42.008,72.064-21.274,21.21-43.5,32.878-66.23,34.875A83.63,83.63,0,0,1,14.1,127c25.934,2.219,50.41-8.592,74.918-33,27.107-27.076,40.3-69.052,40.423-69.4a3.17,3.17,0,1,1,6.056,1.871Z" transform="translate(22.423 24.36)" fill="#805333"/>
        <path id="Shape-4" data-name="Shape" d="M149.827,22.6a404.681,404.681,0,0,1-63.948,84.461c-26.854,26.79-48.539,40.962-67.277,43.689a77.075,77.075,0,0,1-5.9-5.326,75.5,75.5,0,0,1-5.675-6.341c2.79-18.706,16.962-40.3,43.784-67.055A405.087,405.087,0,0,1,135.75,8.179a3.2,3.2,0,1,1,3.17,5.548A399.469,399.469,0,0,0,55.284,76.565c-28.375,28.28-42.008,50.125-42.421,68.291,18.23-.507,40.169-14.045,68.545-42.325A397.193,397.193,0,0,0,144.278,19.5a3.2,3.2,0,1,1,5.548,3.17Z" transform="translate(7.078 -7.13)" fill="#805333"/>
      </g>
    </g>
  </g>
</svg>
