<svg xmlns="http://www.w3.org/2000/svg" width="333" height="191" viewBox="0 0 333 191">
  <g id="Group_13" data-name="Group 13" transform="translate(-54.751 -39.536)">
    <path id="Polygon_3" data-name="Polygon 3" d="M8.5,0,17,12,8.5,24,0,12Z" transform="translate(78.751 111.536)" fill="#facc83"/>
    <path id="Polygon_4" data-name="Polygon 4" d="M5.5,0,11,8,5.5,16,0,8Z" transform="translate(60.751 198.536)" fill="#bbd2fc"/>
    <path id="Polygon_5" data-name="Polygon 5" d="M8.5,0,17,12,8.5,24,0,12Z" transform="translate(161.751 195.536)" fill="#f7b1b1"/>
    <path id="Polygon_6" data-name="Polygon 6" d="M6.5,0,13,9,6.5,18,0,9Z" transform="translate(232.751 212.536)" fill="#7ffad4"/>
    <path id="Polygon_7" data-name="Polygon 7" d="M8.5,0,17,12,8.5,24,0,12Z" transform="translate(312.751 174.536)" fill="#facc83"/>
    <path id="Polygon_8" data-name="Polygon 8" d="M8.5,0,17,12,8.5,24,0,12Z" transform="translate(370.751 109.536)" fill="#7ffad4"/>
    <path id="Polygon_9" data-name="Polygon 9" d="M5.5,0,11,7.5,5.5,15,0,7.5Z" transform="translate(349.751 72.536)" fill="#f7b1b1"/>
    <path id="Polygon_10" data-name="Polygon 10" d="M8.5,0,17,12,8.5,24,0,12Z" transform="translate(54.751 39.536)" fill="#f7b1b1"/>
    <path id="Polygon_11" data-name="Polygon 11" d="M5.5,0,11,7.5,5.5,15,0,7.5Z" transform="translate(368.751 39.536)" fill="#f7b1b1"/>
    <path id="Polygon_12" data-name="Polygon 12" d="M5.5,0,11,7.5,5.5,15,0,7.5Z" transform="translate(357.751 198.536)" fill="#bbd2fc"/>
  </g>
</svg>
