<svg xmlns="http://www.w3.org/2000/svg" width="305.5" height="116.475" viewBox="0 0 305.5 116.475">
  <g id="Group_1139" data-name="Group 1139" transform="translate(-30.5 -95.525)">
    <text id="Before_we_continue_" data-name="Before we continue," transform="translate(242 136)" fill="#fff" font-size="20" font-family="Raleway-Medium, Raleway" font-weight="500"><tspan x="-93.08" y="0">Before we continue,</tspan></text>
    <text id="let_s_learn_what_a_premise_is_first_" data-name="let&apos;s learn what 
a premise is first!" transform="translate(149 141)" fill="#fff" font-size="20" font-family="Raleway-Medium, Raleway" font-weight="500"><tspan x="0" y="19">let&apos;s learn what </tspan><tspan x="0" y="43">a </tspan><tspan y="43" font-family="Raleway-Bold, Raleway" font-weight="700">premise</tspan><tspan y="43" xml:space="preserve"> is first!</tspan></text>
    <g id="corgi" transform="translate(30.907 95.525)">
      <path id="Path_40" data-name="Path 40" d="M103.815.012a3.7,3.7,0,0,1,3.351,1.581c4.027,5.819,15.388,26.439-.682,55.925L73.618,22.5S84.363,1.58,103.815.012Zm0,0" transform="translate(-10.628 0)" fill="#ffa83f"/>
      <path id="Path_41" data-name="Path 41" d="M82.685,31.768,98.6,57.817c10.249-18.8,7.42-32.913,4.171-40.5a2.7,2.7,0,0,0-3.5-1.442c-10.048,4.07-16.2,15.174-16.589,15.9Zm-.021.037s.01-.018.021-.037h0Zm0,0" transform="translate(-11.926 -2.25)" fill="#ffb2c1"/>
      <path id="Path_42" data-name="Path 42" d="M10.609.012A3.705,3.705,0,0,0,7.257,1.593C3.232,7.413-8.13,28.032,7.94,57.518L40.806,22.5S30.061,1.58,10.609.012Zm0,0" transform="translate(0 0)" fill="#ffa83f"/>
      <path id="Path_43" data-name="Path 43" d="M110.775,51.006a59.023,59.023,0,0,0-12.24-19.623A45.635,45.635,0,0,0,77.686,18.992a47.238,47.238,0,0,0-4.069,6.235l32.865,35.017a76.786,76.786,0,0,0,4.292-9.238Zm0,0" transform="translate(-10.628 -2.727)" fill="#f39c18"/>
      <path id="Path_44" data-name="Path 44" d="M8.62,60.245,41.486,25.228a47.268,47.268,0,0,0-4.068-6.235,45.628,45.628,0,0,0-20.85,12.391A58.985,58.985,0,0,0,4.33,51.006a76.766,76.766,0,0,0,4.29,9.238Zm0,0" transform="translate(-0.68 -2.727)" fill="#f39c18"/>
      <path id="Path_45" data-name="Path 45" d="M18.187,15.872a2.706,2.706,0,0,0-3.5,1.442c-3.25,7.59-6.078,21.7,4.17,40.5L34.776,31.768c-.391-.722-6.542-11.826-16.589-15.9Zm16.589,15.9h0l.019.037Zm0,0" transform="translate(-1.738 -2.25)" fill="#ffb2c1"/>
      <g id="Group_45" data-name="Group 45" transform="translate(10.307 20.561)">
        <path id="Path_46" data-name="Path 46" d="M82.664,34.5s.01-.018.021-.037h0Zm0,0" transform="translate(-22.234 -25.509)" fill="#ff889e"/>
        <path id="Path_47" data-name="Path 47" d="M105.419,38.974A51.772,51.772,0,0,0,99.837,32.1a46.115,46.115,0,0,0-10.429-8.1,44.383,44.383,0,0,0-6.72,8.956L98.609,59.013a56.74,56.74,0,0,0,6.81-20.039Zm0,0" transform="translate(-22.237 -24.008)" fill="#ff889e"/>
        <path id="Path_48" data-name="Path 48" d="M38.645,34.465h0c.011.019.018.033.019.037Zm0,0" transform="translate(-15.914 -25.509)" fill="#ff889e"/>
        <path id="Path_49" data-name="Path 49" d="M17.685,32.1A51.689,51.689,0,0,0,12.1,38.974a56.7,56.7,0,0,0,6.81,20.039L34.835,32.964a44.37,44.37,0,0,0-6.721-8.956,46.114,46.114,0,0,0-10.429,8.1Zm0,0" transform="translate(-12.103 -24.008)" fill="#ff889e"/>
      </g>
      <path id="Path_50" data-name="Path 50" d="M27.946,117.325c-13.33-3.789-22.689-12.359-22.689-30.588,0,0-1.917-61.832,47.453-61.832s47.453,61.832,47.453,61.832c0,18.228-9.359,26.8-22.69,30.588Zm0,0" transform="translate(-0.812 -3.576)" fill="#f8b459"/>
      <path id="Path_51" data-name="Path 51" d="M27.946,117.325h7.031c-13.33-3.789-22.689-12.359-22.689-30.588,0,0-1.824-58.856,43.935-61.723Q54.469,24.9,52.71,24.9C3.34,24.9,5.258,86.737,5.258,86.737c0,.285,0,.567.006.847.286,17.648,9.56,26.011,22.682,29.741Zm0,0" transform="translate(-0.812 -3.576)" fill="#ffa83f"/>
      <path id="Path_52" data-name="Path 52" d="M91.188,93.88c0,9.629-2.761,20.839-11.9,28.99-7.349,2.089-15.907,2.725-24.764,2.725s-17.416-.636-24.764-2.725c-9.143-8.151-11.9-19.359-11.9-28.99,0-11.379,14.3-14.616,21.238-15.52a4.79,4.79,0,0,0,4.077-3.868c.822-4.292,3.384-10.969,11.352-10.969S65.05,70.2,65.873,74.492a4.787,4.787,0,0,0,4.076,3.868c6.936.9,21.24,4.141,21.24,15.52Zm0,0" transform="translate(-2.621 -9.12)" fill="#f9e09d"/>
      <path id="Path_53" data-name="Path 53" d="M37.9,131.825A35.582,35.582,0,0,1,25.622,125.9a33.5,33.5,0,0,0,5.249,5.926q2.066.588,4.255,1.027a104.985,104.985,0,0,0,20.509,1.7q1.767,0,3.515-.037A85.45,85.45,0,0,1,37.9,131.825Zm0,0" transform="translate(-3.737 -18.075)" fill="#f8b459"/>
      <path id="Path_54" data-name="Path 54" d="M65.927,83.963a1.135,1.135,0,0,0-1.145-1.113H54.432a1.133,1.133,0,0,0-1.144,1.113v.011c0,2.766,2.829,5.009,6.319,5.009s6.32-2.243,6.32-5.009v-.011Zm0,0" transform="translate(-7.709 -11.895)" fill="#423e4f"/>
      <path id="Path_55" data-name="Path 55" d="M36.915,66.885a1.757,1.757,0,0,0-1.757,1.758V72.4a1.757,1.757,0,0,0,3.515,0V68.643A1.757,1.757,0,0,0,36.915,66.885Zm0,0" transform="translate(-5.106 -9.603)" fill="#423e4f"/>
      <path id="Path_56" data-name="Path 56" d="M24.173,76.627H20.389a1.758,1.758,0,0,0,0,3.515h3.783a1.758,1.758,0,0,0,0-3.515Zm0,0" transform="translate(-2.733 -11.001)" fill="#ff889e"/>
      <path id="Path_57" data-name="Path 57" d="M83.827,66.885a1.757,1.757,0,0,0-1.757,1.758V72.4a1.758,1.758,0,0,0,3.515,0V68.643A1.757,1.757,0,0,0,83.827,66.885Zm0,0" transform="translate(-11.841 -9.603)" fill="#423e4f"/>
      <path id="Path_58" data-name="Path 58" d="M99.72,76.627H95.937a1.758,1.758,0,1,0,0,3.515H99.72a1.758,1.758,0,1,0,0-3.515Zm0,0" transform="translate(-13.58 -11.001)" fill="#ff889e"/>
      <path id="Path_120" data-name="Path 120" d="M48.133,112.958H70.317" transform="translate(-7.327 -24.616)" fill="none" stroke="#707070" stroke-linecap="round" stroke-width="2"/>
    </g>
  </g>
</svg>
