<svg id="Layer_1" data-name="Layer 1" xmlns="http://www.w3.org/2000/svg" viewBox="0 0 360 360"><defs><style>.cls-1{fill:#e8d6bf;}.cls-2{fill:#d16b6b;}.cls-3{fill:#474747;}.cls-4,.cls-5,.cls-8{fill:none;stroke-miterlimit:10;}.cls-4{stroke:#afddf2;}.cls-5{stroke:#d16b6b;stroke-width:2.63px;}.cls-6{fill:#e5dc85;}.cls-7{fill:#ddf0f2;}.cls-8{stroke:#b4cbcc;stroke-width:0.42px;}</style></defs><rect class="cls-1" x="87.2" y="208.65" width="55.11" height="11.56" transform="translate(-116.56 139.32) rotate(-43.86)"/><rect class="cls-2" x="93.35" y="227.35" width="1.78" height="13.56" rx="0.89" transform="translate(-135.93 130.6) rotate(-43.86)"/><path class="cls-2" d="M140,199.61h0a.89.89,0,0,0,0-1.26l.14-2.55a2,2,0,0,0-.55-1.51l-3.68-3.82a2,2,0,0,0-1.45-.62h-2.63a.88.88,0,0,0-1.25,0h0a.89.89,0,0,0,0,1.26l8.16,8.49A.89.89,0,0,0,140,199.61Z"/><rect class="cls-3" x="129.95" y="171.84" width="55.7" height="2.44" transform="translate(-75.89 157.61) rotate(-43.86)"/><line class="cls-4" x1="220.83" y1="86.18" x2="247.12" y2="113.55"/><line class="cls-4" x1="210.48" y1="86.57" x2="246.33" y2="123.88"/><line class="cls-4" x1="201.96" y1="89.14" x2="243.57" y2="132.45"/><line class="cls-4" x1="194.34" y1="92.65" x2="239.6" y2="139.76"/><line class="cls-4" x1="187.82" y1="97.3" x2="234.7" y2="146.09"/><line class="cls-4" x1="182.12" y1="102.82" x2="228.96" y2="151.56"/><line class="cls-4" x1="177.26" y1="109.2" x2="222.39" y2="156.16"/><line class="cls-4" x1="173.12" y1="116.33" x2="214.88" y2="159.78"/><line class="cls-4" x1="170.47" y1="125.01" x2="206.32" y2="162.32"/><line class="cls-4" x1="170.04" y1="136" x2="195.32" y2="162.31"/><line class="cls-4" x1="171.49" y1="121.79" x2="207.51" y2="87.18"/><line class="cls-4" x1="169.92" y1="134.02" x2="219.8" y2="86.09"/><line class="cls-4" x1="171.6" y1="143.39" x2="229.1" y2="88.15"/><line class="cls-4" x1="175.18" y1="150.95" x2="236.3" y2="92.22"/><line class="cls-4" x1="180.8" y1="156.55" x2="241.78" y2="97.95"/><line class="cls-4" x1="187.84" y1="160.77" x2="245.53" y2="105.34"/><line class="cls-4" x1="197.68" y1="162.31" x2="247.18" y2="114.74"/><line class="cls-4" x1="210.81" y1="160.68" x2="245.42" y2="127.42"/><ellipse class="cls-5" cx="208.55" cy="124.3" rx="42.52" ry="33.96" transform="translate(-27.96 179.16) rotate(-43.86)"/><path class="cls-6" d="M263.79,211.85a6.77,6.77,0,0,0-.52-9.57l-9,10.09A6.79,6.79,0,0,0,263.79,211.85Z"/><polygon class="cls-7" points="237.64 203.45 252.74 186.62 263.27 202.28 254.22 212.37 237.64 203.45"/><line class="cls-8" x1="261.46" y1="204.3" x2="250.81" y2="188.78"/><line class="cls-8" x1="255.79" y1="210.62" x2="239.29" y2="201.62"/><line class="cls-8" x1="257.87" y1="208.3" x2="242.73" y2="197.78"/><line class="cls-8" x1="259.42" y1="206.57" x2="247.32" y2="192.66"/></svg>