<svg xmlns="http://www.w3.org/2000/svg" width="291.919" height="185" viewBox="0 0 291.919 185">
  <g id="Group_1138" data-name="Group 1138" transform="translate(2100.383 -1851)">
    <g id="corgi" transform="translate(-2006.093 1927.442)">
      <path id="Path_40" data-name="Path 40" d="M101.763.011a3.452,3.452,0,0,1,3.123,1.474c3.753,5.424,14.342,24.642-.636,52.124L73.618,20.972S83.632,1.473,101.763.011Zm0,0" transform="translate(-14.937 0)" fill="#ffa83f"/>
      <path id="Path_41" data-name="Path 41" d="M82.683,30.674,97.521,54.952c9.552-17.526,6.916-30.676,3.887-37.75a2.521,2.521,0,0,0-3.263-1.344C88.78,19.652,83.048,30,82.683,30.674Zm-.019.034s.009-.017.019-.034h0Zm0,0" transform="translate(-16.762 -3.163)" fill="#ffb2c1"/>
      <path id="Path_42" data-name="Path 42" d="M9.86.011A3.454,3.454,0,0,0,6.736,1.485C2.984,6.909-7.605,26.127,7.373,53.608L38,20.972S27.99,1.473,9.86.011Zm0,0" transform="translate(0 0)" fill="#ffa83f"/>
      <path id="Path_43" data-name="Path 43" d="M108.249,48.83A55.011,55.011,0,0,0,96.841,30.541,42.533,42.533,0,0,0,77.41,18.992,44.027,44.027,0,0,0,73.618,24.8l30.631,32.637a71.568,71.568,0,0,0,4-8.61Zm0,0" transform="translate(-14.937 -3.832)" fill="#f39c18"/>
      <path id="Path_44" data-name="Path 44" d="M8.328,57.441,38.96,24.8a44.055,44.055,0,0,0-3.791-5.812A42.527,42.527,0,0,0,15.737,30.541,54.975,54.975,0,0,0,4.33,48.83a71.548,71.548,0,0,0,4,8.61Zm0,0" transform="translate(-0.956 -3.832)" fill="#f39c18"/>
      <path id="Path_45" data-name="Path 45" d="M17.746,15.858A2.522,2.522,0,0,0,14.482,17.2c-3.029,7.074-5.665,20.224,3.887,37.75L33.207,30.674c-.364-.673-6.1-11.022-15.461-14.815ZM33.207,30.673h0l.018.034Zm0,0" transform="translate(-2.442 -3.163)" fill="#ffb2c1"/>
      <g id="Group_45" data-name="Group 45" transform="translate(9.579 19.164)">
        <path id="Path_46" data-name="Path 46" d="M82.664,34.5s.009-.017.019-.034h0Zm0,0" transform="translate(-26.341 -26.118)" fill="#ff889e"/>
        <path id="Path_47" data-name="Path 47" d="M103.874,37.957a48.253,48.253,0,0,0-5.2-6.4,42.98,42.98,0,0,0-9.72-7.545,41.366,41.366,0,0,0-6.263,8.347L97.527,56.634a52.883,52.883,0,0,0,6.348-18.677Zm0,0" transform="translate(-26.346 -24.008)" fill="#ff889e"/>
        <path id="Path_48" data-name="Path 48" d="M38.645,34.465h0c.01.018.017.031.018.034Zm0,0" transform="translate(-17.459 -26.118)" fill="#ff889e"/>
        <path id="Path_49" data-name="Path 49" d="M17.305,31.553a48.175,48.175,0,0,0-5.2,6.4,52.842,52.842,0,0,0,6.348,18.677L33.29,32.355a41.355,41.355,0,0,0-6.264-8.347,42.98,42.98,0,0,0-9.72,7.545Zm0,0" transform="translate(-12.103 -24.008)" fill="#ff889e"/>
      </g>
      <path id="Path_50" data-name="Path 50" d="M26.4,111.044C13.979,107.512,5.256,99.524,5.256,82.535c0,0-1.787-57.63,44.228-57.63s44.228,57.63,44.228,57.63c0,16.989-8.723,24.978-21.148,28.509Zm0,0" transform="translate(-1.141 -5.025)" fill="#f8b459"/>
      <path id="Path_51" data-name="Path 51" d="M26.4,111.044h6.553C20.532,107.512,11.81,99.524,11.81,82.535c0,0-1.7-54.855,40.948-57.528q-1.635-.1-3.275-.1c-46.015,0-44.227,57.63-44.227,57.63,0,.266,0,.528.006.79.267,16.448,8.91,24.243,21.14,27.719Zm0,0" transform="translate(-1.141 -5.025)" fill="#ffa83f"/>
      <path id="Path_52" data-name="Path 52" d="M86.2,91.816c0,8.975-2.573,19.422-11.1,27.02-6.849,1.947-14.825,2.54-23.081,2.54s-16.233-.592-23.08-2.54c-8.522-7.6-11.1-18.044-11.1-27.02,0-10.605,13.331-13.623,19.795-14.465a4.465,4.465,0,0,0,3.8-3.605c.766-4,3.154-10.224,10.581-10.224s9.815,6.223,10.581,10.224a4.462,4.462,0,0,0,3.8,3.605c6.465.842,19.8,3.86,19.8,14.465Zm0,0" transform="translate(-3.684 -12.818)" fill="#f9e09d"/>
      <path id="Path_53" data-name="Path 53" d="M37.067,131.422A33.163,33.163,0,0,1,25.622,125.9a31.221,31.221,0,0,0,4.893,5.523q1.925.548,3.966.957A97.849,97.849,0,0,0,53.6,133.962q1.647,0,3.276-.035a79.641,79.641,0,0,1-19.8-2.505Zm0,0" transform="translate(-5.252 -25.404)" fill="#f8b459"/>
      <path id="Path_54" data-name="Path 54" d="M65.068,83.887A1.058,1.058,0,0,0,64,82.85H54.354a1.056,1.056,0,0,0-1.066,1.037v.01c0,2.578,2.637,4.669,5.89,4.669s5.89-2.09,5.89-4.669v-.01Zm0,0" transform="translate(-10.835 -16.717)" fill="#423e4f"/>
      <path id="Path_55" data-name="Path 55" d="M36.8,66.885a1.637,1.637,0,0,0-1.637,1.639v3.5a1.638,1.638,0,0,0,3.276,0v-3.5A1.638,1.638,0,0,0,36.8,66.885Zm0,0" transform="translate(-7.176 -13.496)" fill="#423e4f"/>
      <path id="Path_56" data-name="Path 56" d="M23.8,76.627H20.27a1.638,1.638,0,0,0,0,3.276H23.8a1.638,1.638,0,0,0,0-3.276Zm0,0" transform="translate(-3.842 -15.462)" fill="#ff889e"/>
      <path id="Path_57" data-name="Path 57" d="M83.708,66.885a1.638,1.638,0,0,0-1.638,1.639v3.5a1.638,1.638,0,0,0,3.276,0v-3.5A1.638,1.638,0,0,0,83.708,66.885Zm0,0" transform="translate(-16.642 -13.496)" fill="#423e4f"/>
      <path id="Path_58" data-name="Path 58" d="M99.343,76.627H95.818a1.638,1.638,0,1,0,0,3.276h3.526a1.638,1.638,0,1,0,0-3.276Zm0,0" transform="translate(-19.086 -15.462)" fill="#ff889e"/>
      <path id="Path_120" data-name="Path 120" d="M48.133,112.958H68.809" transform="translate(-10.128 -30.621)" fill="none" stroke="#707070" stroke-linecap="round" stroke-width="2"/>
    </g>
    <g id="dog" transform="translate(-2100.383 1853.415)">
      <path id="Path_228" data-name="Path 228" d="M445.211-.653a2.451,2.451,0,0,1,1.622,1.762c1.161,4.847,4.162,21.8-8.355,29.53l-20.837-23.3S427.974-6.235,445.211-.653Zm0,0" transform="translate(-360.618 0)" fill="#ffb25a"/>
      <path id="Path_229" data-name="Path 229" d="M440.187,62.3l12.8,14.433c4.168-2.573,6.393-7.12,6.615-13.516a34.789,34.789,0,0,0-.345-6.019,1.872,1.872,0,0,0-1.555-1.592,19.056,19.056,0,0,0-2.985-.239,17.936,17.936,0,0,0-8.4,2.1,20.991,20.991,0,0,0-6.123,4.834Zm-.031.037.031-.037h0Zm0,0" transform="translate(-380.059 -49.535)" fill="#ffb2c1"/>
      <path id="Path_230" data-name="Path 230" d="M2.791-.653A2.451,2.451,0,0,0,1.169,1.108c-1.161,4.847-4.162,21.8,8.355,29.53L30.36,7.338S20.028-6.235,2.791-.653Zm0,0" transform="translate(0 0)" fill="#ffb25a"/>
      <path id="Path_231" data-name="Path 231" d="M433.127,45.417a40.812,40.812,0,0,0-11.36-8.031,24.085,24.085,0,0,0-4.127,3.96l20.837,23.3a18.716,18.716,0,0,0,4.375-3.71,40.606,40.606,0,0,0-9.725-15.52Zm0,0" transform="translate(-360.617 -34.009)" fill="#ff9c20"/>
      <path id="Path_232" data-name="Path 232" d="M58.8,37.387A41,41,0,0,0,37.711,60.938a18.715,18.715,0,0,0,4.375,3.71l20.837-23.3a24.04,24.04,0,0,0-4.126-3.96Zm0,0" transform="translate(-32.562 -34.009)" fill="#ff9c20"/>
      <path id="Path_233" data-name="Path 233" d="M70.627,57.467a17.929,17.929,0,0,0-8.4-2.1,19.056,19.056,0,0,0-2.985.239A1.872,1.872,0,0,0,57.684,57.2a34.789,34.789,0,0,0-.345,6.019c.222,6.4,2.447,10.943,6.615,13.516L76.75,62.3a20.994,20.994,0,0,0-6.123-4.833ZM76.75,62.3v0l.03.037Zm0,0" transform="translate(-49.494 -49.534)" fill="#ffb2c1"/>
      <g id="Group_110" data-name="Group 110" transform="translate(8.691 7.263)">
        <path id="Path_234" data-name="Path 234" d="M440.156,106.175l.031-.037h0Zm0,0" transform="translate(-388.75 -100.635)" fill="#ff889e"/>
        <path id="Path_235" data-name="Path 235" d="M458.947,77.9a41.27,41.27,0,0,0-11.024-12.053q-.715.3-1.417.668a21,21,0,0,0-6.123,4.833l12.8,14.433a13.236,13.236,0,0,0,5.768-7.882Zm0,0" transform="translate(-388.946 -65.844)" fill="#ff889e"/>
        <path id="Path_236" data-name="Path 236" d="M76.1,66.516c-.468-.245-.941-.467-1.418-.669A41.3,41.3,0,0,0,63.656,77.9a13.238,13.238,0,0,0,5.768,7.881l12.8-14.433A20.994,20.994,0,0,0,76.1,66.517Zm0,0" transform="translate(-63.656 -65.847)" fill="#ff889e"/>
        <path id="Path_237" data-name="Path 237" d="M199.622,106.129v0l.03.037Zm0,0" transform="translate(-181.057 -100.629)" fill="#ff889e"/>
      </g>
      <path id="Path_238" data-name="Path 238" d="M72.033,109.39l0,.005a35.479,35.479,0,1,1,47.189,0v-.005Zm0,0" transform="translate(-51.936 -42.671)" fill="#ffb25a"/>
      <path id="Path_239" data-name="Path 239" d="M60.148,82.894a35.391,35.391,0,0,0,11.886,26.5l0-.005H77.3A35.48,35.48,0,0,1,98.265,47.512l-.03,0c-.863-.058-1.738-.1-2.607-.1A35.474,35.474,0,0,0,60.148,82.894Zm0,0" transform="translate(-51.936 -42.667)" fill="#ff9c20"/>
      <path id="Path_240" data-name="Path 240" d="M194.378,348.816v.005a35.484,35.484,0,0,1-47.189,0l0-.005c4.627-13.668,11.256-11.752,16.355-20.033a8.464,8.464,0,0,1,6.92-4.08h.64a8.463,8.463,0,0,1,6.92,4.08c5.1,8.28,11.728,6.364,16.355,20.033Zm0,0" transform="translate(-127.091 -282.096)" fill="#e7e7e7"/>
      <path id="Path_241" data-name="Path 241" d="M171.839,485.82c.384,0,.766-.035,1.149-.052.143-.009.287-.018.431-.028a35.475,35.475,0,0,1-24.69-12.755,36.6,36.6,0,0,0-1.542,3.866l0,.005q.882.786,1.815,1.513c1.041.811,2.131,1.54,3.243,2.248a35.308,35.308,0,0,0,18.536,5.221c.252,0,.957-.018,1.056-.018Zm0,0" transform="translate(-127.091 -410.131)" fill="#c7c5cb"/>
      <path id="Path_242" data-name="Path 242" d="M303.32,358.539a.562.562,0,0,0-.567-.551h-5.131a.562.562,0,0,0-.567.551v.006c0,1.371,1.4,2.483,3.133,2.483s3.133-1.113,3.133-2.483Zm0,0" transform="translate(-256.496 -310.836)" fill="#423e4f"/>
      <path id="Path_243" data-name="Path 243" d="M206.616,308.555a1.319,1.319,0,0,0-1.319,1.319v2.377a1.319,1.319,0,1,0,2.637,0v-2.377A1.319,1.319,0,0,0,206.616,308.555Zm0,0" transform="translate(-177.266 -268.153)" fill="#423e4f"/>
      <path id="Path_244" data-name="Path 244" d="M182.54,352.9H179.8a1.319,1.319,0,1,0,0,2.637h2.745a1.319,1.319,0,0,0,0-2.637Zm0,0" transform="translate(-154.108 -306.445)" fill="#ff889e"/>
      <path id="Path_245" data-name="Path 245" d="M418.024,312.25v-2.377a1.319,1.319,0,0,0-2.637,0v2.377a1.319,1.319,0,1,0,2.637,0Zm0,0" transform="translate(-358.671 -268.152)" fill="#423e4f"/>
      <path id="Path_246" data-name="Path 246" d="M426.169,352.9h-2.746a1.319,1.319,0,0,0,0,2.637h2.746a1.319,1.319,0,0,0,0-2.637Zm0,0" transform="translate(-364.472 -306.445)" fill="#ff889e"/>
      <path id="Path_247" data-name="Path 247" d="M290.432,392.431a1.319,1.319,0,0,0-1.861.125,1.487,1.487,0,0,1-2.164,0,1.323,1.323,0,0,0-1.986,0,1.488,1.488,0,0,1-2.165,0,1.319,1.319,0,0,0-1.986,1.736,4.065,4.065,0,0,0,3.068,1.369,4.134,4.134,0,0,0,2.075-.553,4.138,4.138,0,0,0,2.075.553,4.064,4.064,0,0,0,3.068-1.369A1.319,1.319,0,0,0,290.432,392.431Zm0,0" transform="translate(-241.721 -340.295)" fill="#423e4f"/>
    </g>
    <g id="dog_1_" data-name="dog (1)" transform="translate(-1908.257 1855.664)">
      <path id="Path_248" data-name="Path 248" d="M463.816,19.223c27.043-19.856,37.8,37.511,15.277,25.009Zm0,0" transform="translate(-391.495 -16.601)" fill="#f8b459"/>
      <path id="Path_249" data-name="Path 249" d="M27.472,19.223C.429-.633-10.327,56.735,12.2,44.231Zm0,0" transform="translate(0 -16.601)" fill="#f8b459"/>
      <path id="Path_250" data-name="Path 250" d="M472.626,24.416q-1.49-1.489-3.1-2.818a24.132,24.132,0,0,0-5.713,3.191L479.093,49.8a11.493,11.493,0,0,0,6.284,1.781,43.837,43.837,0,0,0-12.751-27.163Zm0,0" transform="translate(-391.496 -22.167)" fill="#f39c18"/>
      <path id="Path_251" data-name="Path 251" d="M53.757,21.6q-1.6,1.329-3.1,2.818A43.836,43.836,0,0,0,37.91,51.578,11.484,11.484,0,0,0,44.193,49.8L59.47,24.788a24.15,24.15,0,0,0-5.713-3.19Zm0,0" transform="translate(-31.998 -22.166)" fill="#f39c18"/>
      <path id="Path_252" data-name="Path 252" d="M84.761,58.574a38.147,38.147,0,1,1,57.468,0Zm0,0" transform="translate(-63.599 0)" fill="#f8b459"/>
      <path id="Path_253" data-name="Path 253" d="M84.781,58.574H90.8A38.148,38.148,0,0,1,116.526-4.546a2.571,2.571,0,0,1-.38-.026c-.866-.06-1.755-.092-2.631-.092A38.06,38.06,0,0,0,99.527-2.019,38.151,38.151,0,0,0,76.014,40.514a38.224,38.224,0,0,0,8.767,18.06Zm0,0" transform="translate(-63.618 0)" fill="#f39c18"/>
      <path id="Path_254" data-name="Path 254" d="M189.423,220.722a38.15,38.15,0,0,1-57.468,0c-2.1-7.317.415-13.816,9.412-18.843,14.843-8.29,7.222-14.442,19.322-14.442s4.479,6.152,19.322,14.442c9,5.027,11.51,11.526,9.412,18.843Zm0,0" transform="translate(-110.792 -162.148)" fill="#de8957"/>
      <path id="Path_255" data-name="Path 255" d="M161.978,364.318c.576-.023,1.152-.051,1.727-.1a38.195,38.195,0,0,1-31.661-22.1,14.591,14.591,0,0,0-.085,9.166,38.05,38.05,0,0,0,28.734,13.054q.643,0,1.285-.023Zm0,0" transform="translate(-110.797 -292.712)" fill="#c76d33"/>
      <g id="Group_111" data-name="Group 111" transform="translate(31.177 24.991)">
        <path id="Path_256" data-name="Path 256" d="M297.984,229.233a.9.9,0,0,0-.9-.878h-8.171a.9.9,0,0,0-.9.878v.009c0,2.184,2.233,3.954,4.988,3.954s4.988-1.771,4.988-3.954Zm0,0" transform="translate(-274.276 -221.676)" fill="#423e4f"/>
        <path id="Path_257" data-name="Path 257" d="M286.134,277.754a1.506,1.506,0,0,0-2.124.142,2.584,2.584,0,0,1-3.784,0,1.509,1.509,0,0,0-2.267,0,2.583,2.583,0,0,1-3.783,0,1.506,1.506,0,1,0-2.268,1.982,5.5,5.5,0,0,0,4.159,1.854,5.59,5.59,0,0,0,3.025-.879,5.591,5.591,0,0,0,3.026.879,5.506,5.506,0,0,0,4.159-1.854,1.5,1.5,0,0,0-.143-2.124Zm0,0" transform="translate(-260.372 -263.058)" fill="#423e4f"/>
        <path id="Path_258" data-name="Path 258" d="M201.448,185.523a1.506,1.506,0,0,0-1.506,1.506v2.942a1.506,1.506,0,0,0,3.012,0v-2.942A1.506,1.506,0,0,0,201.448,185.523Zm0,0" transform="translate(-199.942 -185.523)" fill="#423e4f"/>
      </g>
      <path id="Path_259" data-name="Path 259" d="M180.1,229.023h-3.166a1.506,1.506,0,1,0,0,3.011H180.1a1.506,1.506,0,1,0,0-3.011Zm0,0" transform="translate(-148.072 -197.249)" fill="#ff889e"/>
      <path id="Path_260" data-name="Path 260" d="M423.754,189.972V187.03a1.506,1.506,0,1,0-3.012,0v2.942a1.506,1.506,0,0,0,3.012,0Zm0,0" transform="translate(-355.138 -160.533)" fill="#423e4f"/>
      <path id="Path_261" data-name="Path 261" d="M429.629,229.023h-3.166a1.506,1.506,0,1,0,0,3.011h3.166a1.506,1.506,0,1,0,0-3.011Zm0,0" transform="translate(-358.695 -197.249)" fill="#ff889e"/>
    </g>
  </g>
</svg>
