<svg xmlns="http://www.w3.org/2000/svg" width="306.562" height="123.428" viewBox="0 0 306.562 123.428">
  <g id="Group_1184" data-name="Group 1184" transform="translate(-23.438 -93.94)">
    <g id="Group_121" data-name="Group 121" transform="translate(-77.616 11.349)">
      <g id="Group_98" data-name="Group 98" transform="translate(101.055 82.591)">
        <g id="panda" transform="translate(1.89)">
          <path id="Path_168" data-name="Path 168" d="M362.939,43.12c4.154-7.509,11.671-12.554,18.706-12.554,5.246,0,10.575,2.774,14.621,7.61a25.032,25.032,0,0,1,6.02,15.675c0,6.639-3.914,12.893-10.469,16.73a2.136,2.136,0,0,1-2.911-.746,63.234,63.234,0,0,0-25.08-23.785,2.136,2.136,0,0,1-.887-2.931Z" transform="translate(-275.143 -30.566)" fill="#525256"/>
          <ellipse id="Ellipse_56" data-name="Ellipse 56" cx="11" cy="9.5" rx="11" ry="9.5" transform="translate(90.672 10.06)" fill="#353535"/>
          <path id="Path_166" data-name="Path 166" d="M41.754,43.12C37.6,35.611,30.083,30.566,23.048,30.566c-5.246,0-10.575,2.774-14.621,7.61a25.032,25.032,0,0,0-6.02,15.675c0,6.639,3.914,12.893,10.469,16.73a2.136,2.136,0,0,0,2.911-.746,63.234,63.234,0,0,1,25.08-23.785,2.136,2.136,0,0,0,.887-2.931Z" transform="translate(-2.407 -30.566)" fill="#525256"/>
          <g id="Group_92" data-name="Group 92" transform="translate(109.791 3.014)">
            <path id="Path_169" data-name="Path 169" d="M441.012,71.436c6.555-3.837,10.469-10.091,10.469-16.73a24.506,24.506,0,0,0-4.426-13.558,23.462,23.462,0,0,1,5.119,4.6,25.032,25.032,0,0,1,6.02,15.675c0,6.639-3.914,12.893-10.469,16.73a2.136,2.136,0,0,1-2.911-.746,65.8,65.8,0,0,0-3.972-5.884C440.9,71.493,440.957,71.468,441.012,71.436Z" transform="translate(-440.843 -41.148)" fill="#454549"/>
          </g>
          <path id="Path_175" data-name="Path 175" d="M233.469,277.708a16.1,16.1,0,0,1-21.1,0A4.832,4.832,0,0,0,211.3,280.9c0,2.206,1.808,4.443,5.689,7.039a48.837,48.837,0,0,0,4.984,2.893,2.134,2.134,0,0,0,1.887,0,48.813,48.813,0,0,0,4.984-2.893c3.881-2.6,5.688-4.832,5.688-7.039A4.835,4.835,0,0,0,233.469,277.708Z" transform="translate(-159.389 -211.565)" fill="#454549"/>
          <g id="Group_91" data-name="Group 91" transform="translate(0 3.014)">
            <path id="Path_167" data-name="Path 167" d="M19.59,71.436C13.034,67.6,9.121,61.344,9.121,54.706a24.506,24.506,0,0,1,4.426-13.558,23.462,23.462,0,0,0-5.119,4.6A25.032,25.032,0,0,0,2.407,61.42c0,6.639,3.914,12.893,10.469,16.73a2.136,2.136,0,0,0,2.911-.746,65.784,65.784,0,0,1,3.972-5.884C19.7,71.493,19.645,71.468,19.59,71.436Z" transform="translate(-2.407 -41.148)" fill="#454549"/>
          </g>
          <ellipse id="Ellipse_55" data-name="Ellipse 55" cx="11" cy="10.5" rx="11" ry="10.5" transform="translate(11.672 8.06)" fill="#353535"/>
        </g>
        <g id="Group_96" data-name="Group 96" transform="translate(0 7.427)">
          <path id="Path_183" data-name="Path 183" d="M115.083,65.847c-8.506-9.983-23.934-21.879-49.161-21.95h-.26c-25.226.071-40.654,11.966-49.16,21.95A70.71,70.71,0,0,0,0,111.087c0,15.033,6.778,27.62,19.6,36.4,11.637,7.969,27.99,12.373,46.066,12.408h.248c18.076-.035,34.429-4.438,46.066-12.408,12.824-8.782,19.6-21.37,19.6-36.4A70.711,70.711,0,0,0,115.083,65.847Z" transform="translate(0 -43.897)" fill="#e0e0e0"/>
          <path id="Path_184" data-name="Path 184" d="M111.983,305.589c-11.637,8.175-27.99,12.693-46.066,12.729h-.248c-18.076-.036-34.429-4.554-46.066-12.729C8.026,297.457,1.378,286.142.194,272.674Q0,275.278,0,277.89c0,15.422,6.778,28.335,19.6,37.345,11.637,8.176,27.99,12.693,46.066,12.729h.248c18.076-.036,34.429-4.553,46.066-12.729,12.824-9.009,19.6-21.923,19.6-37.345q0-2.61-.194-5.216C130.207,286.142,123.559,297.457,111.983,305.589Z" transform="translate(0 -211.963)" fill="#c4c4c4"/>
        </g>
        <g id="panda-2" data-name="panda" transform="translate(28.568 35.899)">
          <g id="Group_97" data-name="Group 97" transform="translate(0 0)">
            <path id="Path_174" data-name="Path 174" d="M222.917,268.243c-4.06,0-11.616,0-11.616,5.887,0,2.206,1.808,4.443,5.689,7.039a48.844,48.844,0,0,0,4.984,2.893,2.134,2.134,0,0,0,1.887,0,48.82,48.82,0,0,0,4.984-2.893c3.881-2.6,5.688-4.832,5.688-7.039C234.533,268.243,226.977,268.243,222.917,268.243Z" transform="translate(-186.068 -240.633)" fill="#525256"/>
            <g id="Group_94" data-name="Group 94">
              <path id="Path_172" data-name="Path 172" d="M103.042,178.852a11.09,11.09,0,0,0-8.759-3.934,15.843,15.843,0,0,0-9.966,3.531,18.107,18.107,0,0,0-6.186,11.2c-.775,4.427.082,8.514,2.35,11.213a9.359,9.359,0,0,0,7.415,3.328c3.32,0,7.155-1.7,10.52-4.676a20.422,20.422,0,0,0,6.565-10.467C105.846,185.1,105.157,181.479,103.042,178.852Z" transform="translate(-77.853 -174.919)" fill="#525256"/>
              <path id="Path_177" data-name="Path 177" d="M98.417,222.311c-3.366,2.971-7.2,4.676-10.52,4.676a9.359,9.359,0,0,1-7.415-3.328,11.12,11.12,0,0,1-2.25-4.681c-.034.171-.07.341-.1.514-.775,4.427.082,8.514,2.35,11.213a9.359,9.359,0,0,0,7.415,3.328c3.32,0,7.155-1.7,10.52-4.676a20.422,20.422,0,0,0,6.565-10.466,13.461,13.461,0,0,0-.1-6.625A20.657,20.657,0,0,1,98.417,222.311Z" transform="translate(-77.854 -204.76)" fill="#454549"/>
            </g>
            <g id="Group_95" data-name="Group 95" transform="translate(48.942 0)">
              <path id="Path_176" data-name="Path 176" d="M312.05,189.65a18.107,18.107,0,0,0-6.186-11.2,15.843,15.843,0,0,0-9.966-3.531,11.091,11.091,0,0,0-8.759,3.934c-2.114,2.627-2.8,6.248-1.939,10.2a20.421,20.421,0,0,0,6.565,10.466c3.366,2.971,7.2,4.676,10.521,4.676a9.359,9.359,0,0,0,7.415-3.328C311.968,198.164,312.824,194.077,312.05,189.65Z" transform="translate(-284.836 -174.919)" fill="#525256"/>
              <path id="Path_178" data-name="Path 178" d="M311.956,218.977a11.122,11.122,0,0,1-2.25,4.681,9.359,9.359,0,0,1-7.415,3.328c-3.32,0-7.155-1.7-10.521-4.676a20.656,20.656,0,0,1-6.462-10.045,13.459,13.459,0,0,0-.1,6.625,20.421,20.421,0,0,0,6.565,10.467c3.366,2.971,7.2,4.676,10.521,4.676a9.359,9.359,0,0,0,7.415-3.328c2.268-2.7,3.124-6.787,2.35-11.214C312.025,219.318,311.99,219.148,311.956,218.977Z" transform="translate(-284.843 -204.759)" fill="#454549"/>
            </g>
            <path id="Path_181" data-name="Path 181" d="M1.435,0A1.435,1.435,0,0,0,0,1.436V4.5a1.436,1.436,0,1,0,2.872,0V1.436A1.436,1.436,0,0,0,1.435,0Zm0,0" transform="translate(16.186 5.267) rotate(11)" fill="#fff"/>
            <path id="Path_182" data-name="Path 182" d="M1.436,0A1.436,1.436,0,0,0,0,1.436V4.5a1.436,1.436,0,0,0,2.872,0V1.436A1.436,1.436,0,0,0,1.436,0Zm0,0" transform="matrix(0.978, -0.208, 0.208, 0.978, 56.385, 6.434)" fill="#fff"/>
          </g>
        </g>
      </g>
      <path id="Path_120" data-name="Path 120" d="M48.133,112.958H65.294" transform="translate(110.073 60.258)" fill="none" stroke="#707070" stroke-linecap="round" stroke-width="2"/>
    </g>
    <g id="Group_98-2" data-name="Group 98" transform="translate(126.438 138.049)">
      <g id="panda-3" data-name="panda" transform="translate(1.214)">
        <path id="Path_168-2" data-name="Path 168" d="M362.844,38.634c2.669-4.825,7.5-8.068,12.021-8.068a12.568,12.568,0,0,1,9.4,4.89,16.086,16.086,0,0,1,3.869,10.073c0,4.266-2.515,8.285-6.728,10.751a1.372,1.372,0,0,1-1.871-.479,40.636,40.636,0,0,0-16.117-15.285,1.373,1.373,0,0,1-.57-1.883Z" transform="translate(-306.423 -30.566)" fill="#525256"/>
        <ellipse id="Ellipse_56-2" data-name="Ellipse 56" cx="7" cy="6.5" rx="7" ry="6.5" transform="translate(58.347 5.951)" fill="#353535"/>
        <path id="Path_166-2" data-name="Path 166" d="M27.693,38.634c-2.669-4.825-7.5-8.068-12.021-8.068a12.568,12.568,0,0,0-9.4,4.89A16.086,16.086,0,0,0,2.407,45.53c0,4.266,2.515,8.285,6.728,10.751a1.372,1.372,0,0,0,1.871-.479A40.636,40.636,0,0,1,27.123,40.517a1.373,1.373,0,0,0,.57-1.883Z" transform="translate(-2.407 -30.566)" fill="#525256"/>
        <g id="Group_92-2" data-name="Group 92" transform="translate(70.555 1.937)">
          <path id="Path_169-2" data-name="Path 169" d="M440.952,60.612c4.213-2.466,6.728-6.485,6.728-10.751a15.748,15.748,0,0,0-2.844-8.713,15.077,15.077,0,0,1,3.29,2.954,16.086,16.086,0,0,1,3.869,10.073c0,4.266-2.515,8.285-6.728,10.751a1.372,1.372,0,0,1-1.871-.479,42.289,42.289,0,0,0-2.552-3.781C440.879,60.649,440.916,60.633,440.952,60.612Z" transform="translate(-440.843 -41.148)" fill="#454549"/>
        </g>
        <path id="Path_175-2" data-name="Path 175" d="M225.547,277.708a10.349,10.349,0,0,1-13.562,0,3.106,3.106,0,0,0-.684,2.051c0,1.418,1.162,2.855,3.656,4.523a31.389,31.389,0,0,0,3.2,1.859,1.372,1.372,0,0,0,1.213,0,31.371,31.371,0,0,0,3.2-1.859c2.494-1.668,3.656-3.106,3.656-4.523A3.107,3.107,0,0,0,225.547,277.708Z" transform="translate(-177.94 -235.202)" fill="#454549"/>
        <g id="Group_91-2" data-name="Group 91" transform="translate(0 1.937)">
          <path id="Path_167-2" data-name="Path 167" d="M13.449,60.612c-4.213-2.466-6.728-6.485-6.728-10.751a15.749,15.749,0,0,1,2.844-8.713A15.078,15.078,0,0,0,6.276,44.1,16.086,16.086,0,0,0,2.407,54.175c0,4.266,2.515,8.285,6.728,10.751a1.372,1.372,0,0,0,1.871-.479,42.276,42.276,0,0,1,2.552-3.781C13.521,60.649,13.485,60.633,13.449,60.612Z" transform="translate(-2.407 -41.148)" fill="#454549"/>
        </g>
        <ellipse id="Ellipse_55-2" data-name="Ellipse 55" cx="7.5" cy="7" rx="7.5" ry="7" transform="translate(7.347 4.951)" fill="#353535"/>
      </g>
      <g id="Group_96-2" data-name="Group 96" transform="translate(0 4.773)">
        <path id="Path_183-2" data-name="Path 183" d="M73.957,58C68.49,51.587,58.576,43.943,42.364,43.9H42.2C25.986,43.943,16.071,51.587,10.6,58A45.441,45.441,0,0,0,0,87.076c0,9.661,4.356,17.75,12.6,23.394,7.478,5.121,17.987,7.951,29.6,7.974h.159c11.617-.023,22.125-2.852,29.6-7.974,8.241-5.644,12.6-13.733,12.6-23.394A45.442,45.442,0,0,0,73.957,58Z" transform="translate(0 -43.897)" fill="#e0e0e0"/>
        <path id="Path_184-2" data-name="Path 184" d="M71.964,293.827c-7.478,5.254-17.987,8.157-29.6,8.18H42.2c-11.617-.023-22.125-2.926-29.6-8.18A28.222,28.222,0,0,1,.125,272.674Q0,274.347,0,276.026a28.309,28.309,0,0,0,12.6,24c7.478,5.254,17.987,8.157,29.6,8.18h.159c11.617-.023,22.125-2.926,29.6-8.18a28.309,28.309,0,0,0,12.6-24q0-1.677-.125-3.352A28.222,28.222,0,0,1,71.964,293.827Z" transform="translate(0 -233.659)" fill="#c4c4c4"/>
      </g>
      <g id="panda-4" data-name="panda" transform="translate(18.359 23.07)">
        <g id="Group_97-2" data-name="Group 97" transform="translate(0 0)">
          <path id="Path_174-2" data-name="Path 174" d="M218.766,268.243c-2.609,0-7.465,0-7.465,3.783,0,1.418,1.162,2.855,3.656,4.524a31.392,31.392,0,0,0,3.2,1.859,1.372,1.372,0,0,0,1.213,0,31.374,31.374,0,0,0,3.2-1.859c2.494-1.668,3.656-3.106,3.656-4.523C226.231,268.243,221.375,268.243,218.766,268.243Z" transform="translate(-195.085 -250.5)" fill="#525256"/>
          <g id="Group_94-2" data-name="Group 94">
            <path id="Path_172-2" data-name="Path 172" d="M94.041,177.447a7.127,7.127,0,0,0-5.629-2.528,10.182,10.182,0,0,0-6.4,2.269,11.636,11.636,0,0,0-3.975,7.2,8.8,8.8,0,0,0,1.51,7.206,6.014,6.014,0,0,0,4.765,2.139,10.786,10.786,0,0,0,6.761-3A13.124,13.124,0,0,0,95.287,184,7.637,7.637,0,0,0,94.041,177.447Z" transform="translate(-77.853 -174.919)" fill="#525256"/>
            <path id="Path_177-2" data-name="Path 177" d="M91.069,218.721a10.787,10.787,0,0,1-6.761,3,6.014,6.014,0,0,1-4.765-2.139,7.146,7.146,0,0,1-1.446-3.008c-.022.11-.045.219-.064.33a8.8,8.8,0,0,0,1.51,7.206,6.014,6.014,0,0,0,4.765,2.139,10.786,10.786,0,0,0,6.761-3,13.124,13.124,0,0,0,4.219-6.726,8.651,8.651,0,0,0-.066-4.257A13.275,13.275,0,0,1,91.069,218.721Z" transform="translate(-77.854 -207.442)" fill="#454549"/>
          </g>
          <g id="Group_95-2" data-name="Group 95" transform="translate(31.452 0)">
            <path id="Path_176-2" data-name="Path 176" d="M302.325,184.386a11.637,11.637,0,0,0-3.975-7.2,10.182,10.182,0,0,0-6.4-2.269,7.127,7.127,0,0,0-5.629,2.528A7.638,7.638,0,0,0,285.07,184a13.123,13.123,0,0,0,4.219,6.726,10.787,10.787,0,0,0,6.761,3,6.014,6.014,0,0,0,4.765-2.139A8.8,8.8,0,0,0,302.325,184.386Z" transform="translate(-284.836 -174.919)" fill="#525256"/>
            <path id="Path_178-2" data-name="Path 178" d="M302.267,216.578a7.147,7.147,0,0,1-1.446,3.008,6.015,6.015,0,0,1-4.765,2.139,10.787,10.787,0,0,1-6.761-3,13.274,13.274,0,0,1-4.152-6.455,8.649,8.649,0,0,0-.066,4.257,13.123,13.123,0,0,0,4.219,6.726,10.787,10.787,0,0,0,6.761,3,6.014,6.014,0,0,0,4.765-2.139,8.8,8.8,0,0,0,1.51-7.206C302.312,216.8,302.289,216.688,302.267,216.578Z" transform="translate(-284.843 -207.442)" fill="#454549"/>
          </g>
          <path id="Path_181-2" data-name="Path 181" d="M.922,0A.922.922,0,0,0,0,.923V2.894a.923.923,0,1,0,1.845,0V.923A.923.923,0,0,0,.922,0Zm0,0" transform="translate(10.401 3.385) rotate(11)" fill="#fff"/>
          <path id="Path_182-2" data-name="Path 182" d="M.923,0A.923.923,0,0,0,0,.923V2.894a.923.923,0,0,0,1.846,0V.923A.923.923,0,0,0,.923,0Zm0,0" transform="matrix(0.978, -0.208, 0.208, 0.978, 36.235, 4.135)" fill="#fff"/>
        </g>
      </g>
    </g>
    <path id="Path_120-2" data-name="Path 120" d="M48.133,112.958H59.161" transform="translate(115.033 83.329)" fill="none" stroke="#707070" stroke-linecap="round" stroke-width="2"/>
    <g id="Group_121-2" data-name="Group 121" transform="translate(126.384 38.573)">
      <g id="Group_98-3" data-name="Group 98" transform="translate(101.055 82.591)">
        <g id="panda-5" data-name="panda" transform="translate(1.473)">
          <path id="Path_168-3" data-name="Path 168" d="M362.88,40.351c3.238-5.852,9.1-9.785,14.58-9.785,4.089,0,8.242,2.162,11.4,5.931a19.51,19.51,0,0,1,4.692,12.218c0,5.174-3.05,10.049-8.16,13.04a1.665,1.665,0,0,1-2.269-.581,49.286,49.286,0,0,0-19.548-18.539,1.665,1.665,0,0,1-.691-2.284Z" transform="translate(-294.45 -30.566)" fill="#525256"/>
          <ellipse id="Ellipse_56-3" data-name="Ellipse 56" cx="8.5" cy="7.5" rx="8.5" ry="7.5" transform="translate(71.089 7.835)" fill="#353535"/>
          <path id="Path_166-3" data-name="Path 166" d="M33.075,40.351c-3.238-5.852-9.1-9.785-14.58-9.785-4.089,0-8.242,2.162-11.4,5.931A19.51,19.51,0,0,0,2.407,48.715c0,5.174,3.05,10.049,8.16,13.04a1.665,1.665,0,0,0,2.269-.581A49.286,49.286,0,0,1,32.384,42.635a1.665,1.665,0,0,0,.691-2.284Z" transform="translate(-2.407 -30.566)" fill="#525256"/>
          <g id="Group_92-3" data-name="Group 92" transform="translate(85.574 2.349)">
            <path id="Path_169-3" data-name="Path 169" d="M440.975,64.755c5.109-2.991,8.16-7.865,8.16-13.04a19.1,19.1,0,0,0-3.45-10.567,18.288,18.288,0,0,1,3.99,3.583,19.51,19.51,0,0,1,4.692,12.218c0,5.174-3.05,10.049-8.16,13.04a1.665,1.665,0,0,1-2.269-.581,51.278,51.278,0,0,0-3.1-4.586C440.887,64.8,440.932,64.78,440.975,64.755Z" transform="translate(-440.843 -41.148)" fill="#454549"/>
          </g>
          <path id="Path_175-3" data-name="Path 175" d="M228.579,277.708a12.552,12.552,0,0,1-16.449,0,3.766,3.766,0,0,0-.829,2.488c0,1.72,1.409,3.463,4.434,5.486a38.068,38.068,0,0,0,3.885,2.255,1.663,1.663,0,0,0,1.471,0,38.047,38.047,0,0,0,3.885-2.255c3.025-2.023,4.434-3.767,4.434-5.486A3.769,3.769,0,0,0,228.579,277.708Z" transform="translate(-170.839 -226.154)" fill="#454549"/>
          <g id="Group_91-3" data-name="Group 91" transform="translate(0 2.349)">
            <path id="Path_167-3" data-name="Path 167" d="M15.8,64.755c-5.109-2.991-8.16-7.865-8.16-13.04a19.1,19.1,0,0,1,3.45-10.567A18.287,18.287,0,0,0,7.1,44.731,19.51,19.51,0,0,0,2.407,56.948c0,5.174,3.05,10.049,8.16,13.04a1.665,1.665,0,0,0,2.269-.581,51.275,51.275,0,0,1,3.1-4.586C15.887,64.8,15.843,64.78,15.8,64.755Z" transform="translate(-2.407 -41.148)" fill="#454549"/>
          </g>
          <circle id="Ellipse_55-3" data-name="Ellipse 55" cx="8.5" cy="8.5" r="8.5" transform="translate(9.089 5.835)" fill="#353535"/>
        </g>
        <g id="Group_96-3" data-name="Group 96" transform="translate(0 5.789)">
          <path id="Path_183-3" data-name="Path 183" d="M89.7,61.005C83.07,53.224,71.044,43.952,51.382,43.9h-.2c-19.662.055-31.687,9.327-38.317,17.108A55.113,55.113,0,0,0,0,96.267c0,11.717,5.283,21.528,15.279,28.373,9.07,6.212,21.816,9.644,35.906,9.671h.193c14.089-.028,26.835-3.46,35.906-9.671,10-6.845,15.279-16.656,15.279-28.373A55.114,55.114,0,0,0,89.7,61.005Z" transform="translate(0 -43.897)" fill="#e0e0e0"/>
          <path id="Path_184-3" data-name="Path 184" d="M87.283,298.329c-9.07,6.372-21.816,9.893-35.906,9.921h-.193c-14.089-.028-26.835-3.549-35.906-9.921-9.023-6.339-14.2-15.158-15.127-25.655Q0,274.7,0,276.739c0,12.02,5.283,22.085,15.279,29.107,9.07,6.372,21.816,9.893,35.906,9.921h.193c14.089-.028,26.835-3.549,35.906-9.921,10-7.022,15.279-17.087,15.279-29.107q0-2.034-.151-4.065C101.487,283.172,96.305,291.991,87.283,298.329Z" transform="translate(0 -225.354)" fill="#c4c4c4"/>
        </g>
        <g id="panda-6" data-name="panda" transform="translate(22.267 27.981)">
          <g id="Group_97-3" data-name="Group 97" transform="translate(0 0)">
            <path id="Path_174-3" data-name="Path 174" d="M220.355,268.243c-3.164,0-9.054,0-9.054,4.589,0,1.72,1.409,3.463,4.434,5.486a38.071,38.071,0,0,0,3.885,2.255,1.664,1.664,0,0,0,1.471,0,38.047,38.047,0,0,0,3.885-2.255c3.025-2.023,4.434-3.767,4.434-5.486C229.409,268.243,223.519,268.243,220.355,268.243Z" transform="translate(-191.633 -246.723)" fill="#525256"/>
            <g id="Group_94-3" data-name="Group 94">
              <path id="Path_172-3" data-name="Path 172" d="M97.486,177.985a8.644,8.644,0,0,0-6.827-3.066,12.349,12.349,0,0,0-7.768,2.752,14.113,14.113,0,0,0-4.821,8.73c-.6,3.45.064,6.636,1.831,8.74a7.294,7.294,0,0,0,5.779,2.594c2.588,0,5.577-1.328,8.2-3.644A15.917,15.917,0,0,0,99,185.933,9.263,9.263,0,0,0,97.486,177.985Z" transform="translate(-77.853 -174.919)" fill="#525256"/>
              <path id="Path_177-3" data-name="Path 177" d="M93.882,220.1c-2.623,2.316-5.612,3.644-8.2,3.644a7.3,7.3,0,0,1-5.779-2.594,8.667,8.667,0,0,1-1.754-3.648c-.026.133-.054.266-.078.4-.6,3.45.064,6.636,1.831,8.74a7.3,7.3,0,0,0,5.779,2.594c2.588,0,5.577-1.328,8.2-3.644A15.917,15.917,0,0,0,99,217.43a10.492,10.492,0,0,0-.081-5.164A16.1,16.1,0,0,1,93.882,220.1Z" transform="translate(-77.854 -206.416)" fill="#454549"/>
            </g>
            <g id="Group_95-3" data-name="Group 95" transform="translate(38.147 0)">
              <path id="Path_176-3" data-name="Path 176" d="M306.047,186.4a14.113,14.113,0,0,0-4.821-8.73,12.349,12.349,0,0,0-7.768-2.752,8.644,8.644,0,0,0-6.827,3.066,9.263,9.263,0,0,0-1.511,7.948,15.916,15.916,0,0,0,5.117,8.158c2.623,2.316,5.612,3.644,8.2,3.644a7.3,7.3,0,0,0,5.779-2.594C305.983,193.037,306.651,189.852,306.047,186.4Z" transform="translate(-284.836 -174.919)" fill="#525256"/>
              <path id="Path_178-3" data-name="Path 178" d="M305.976,217.5a8.668,8.668,0,0,1-1.754,3.648,7.3,7.3,0,0,1-5.779,2.594c-2.588,0-5.577-1.328-8.2-3.644a16.1,16.1,0,0,1-5.036-7.829,10.49,10.49,0,0,0-.081,5.164,15.917,15.917,0,0,0,5.117,8.158c2.623,2.316,5.612,3.644,8.2,3.644a7.294,7.294,0,0,0,5.779-2.594c1.768-2.1,2.435-5.29,1.832-8.74C306.03,217.762,306,217.63,305.976,217.5Z" transform="translate(-284.843 -206.415)" fill="#454549"/>
            </g>
            <path id="Path_181-3" data-name="Path 181" d="M1.119,0A1.119,1.119,0,0,0,0,1.12V3.51a1.119,1.119,0,1,0,2.238,0V1.12A1.119,1.119,0,0,0,1.119,0Zm0,0" transform="translate(12.616 4.105) rotate(11)" fill="#fff"/>
            <path id="Path_182-3" data-name="Path 182" d="M1.119,0A1.119,1.119,0,0,0,0,1.12V3.51a1.119,1.119,0,0,0,2.239,0V1.12A1.119,1.119,0,0,0,1.119,0Zm0,0" transform="matrix(0.978, -0.208, 0.208, 0.978, 43.948, 5.015)" fill="#fff"/>
          </g>
        </g>
      </g>
      <path id="Path_120-3" data-name="Path 120" d="M48.133,112.958H61.509" transform="translate(97.467 40.268)" fill="none" stroke="#707070" stroke-linecap="round" stroke-width="2"/>
    </g>
  </g>
</svg>
