<svg xmlns="http://www.w3.org/2000/svg" width="214.295" height="104.843" viewBox="0 0 214.295 104.843">
  <g id="Group_1182" data-name="Group 1182" transform="translate(-72.438 -112.525)">
    <g id="Group_121" data-name="Group 121" transform="translate(-28.616 29.934)">
      <g id="Group_98" data-name="Group 98" transform="translate(101.055 82.591)">
        <g id="panda" transform="translate(1.605)">
          <path id="Path_168" data-name="Path 168" d="M362.9,41.23c3.528-6.378,9.914-10.664,15.889-10.664,4.456,0,8.983,2.356,12.419,6.464a21.263,21.263,0,0,1,5.114,13.315c0,5.639-3.324,10.952-8.892,14.211a1.814,1.814,0,0,1-2.473-.633,53.712,53.712,0,0,0-21.3-20.2,1.814,1.814,0,0,1-.754-2.489Z" transform="translate(-288.323 -30.566)" fill="#525256"/>
          <ellipse id="Ellipse_56" data-name="Ellipse 56" cx="9.5" cy="8" rx="9.5" ry="8" transform="translate(76.957 8.475)" fill="#353535"/>
          <path id="Path_166" data-name="Path 166" d="M35.829,41.23C32.3,34.852,25.916,30.566,19.94,30.566c-4.456,0-8.983,2.356-12.419,6.464A21.263,21.263,0,0,0,2.407,50.345c0,5.639,3.324,10.952,8.892,14.211a1.814,1.814,0,0,0,2.473-.633,53.712,53.712,0,0,1,21.3-20.2,1.814,1.814,0,0,0,.754-2.489Z" transform="translate(-2.407 -30.566)" fill="#525256"/>
          <g id="Group_92" data-name="Group 92" transform="translate(93.259 2.56)">
            <path id="Path_169" data-name="Path 169" d="M440.987,66.875c5.568-3.259,8.892-8.572,8.892-14.211a20.816,20.816,0,0,0-3.76-11.516,19.929,19.929,0,0,1,4.349,3.9,21.262,21.262,0,0,1,5.114,13.315c0,5.639-3.324,10.952-8.892,14.211a1.814,1.814,0,0,1-2.473-.633,55.885,55.885,0,0,0-3.374-5C440.891,66.924,440.94,66.9,440.987,66.875Z" transform="translate(-440.843 -41.148)" fill="#454549"/>
          </g>
          <path id="Path_175" data-name="Path 175" d="M230.131,277.708a13.679,13.679,0,0,1-17.926,0,4.1,4.1,0,0,0-.9,2.711c0,1.874,1.535,3.774,4.832,5.979a41.489,41.489,0,0,0,4.234,2.457,1.813,1.813,0,0,0,1.6,0A41.465,41.465,0,0,0,226.2,286.4c3.3-2.2,4.832-4.1,4.832-5.979A4.107,4.107,0,0,0,230.131,277.708Z" transform="translate(-167.206 -221.524)" fill="#454549"/>
          <g id="Group_91" data-name="Group 91" transform="translate(0 2.56)">
            <path id="Path_167" data-name="Path 167" d="M17,66.875C11.434,63.616,8.11,58.3,8.11,52.664a20.816,20.816,0,0,1,3.759-11.516,19.93,19.93,0,0,0-4.348,3.9A21.263,21.263,0,0,0,2.407,58.367c0,5.639,3.324,10.952,8.892,14.211a1.814,1.814,0,0,0,2.473-.633,55.879,55.879,0,0,1,3.374-5C17.1,66.924,17.049,66.9,17,66.875Z" transform="translate(-2.407 -41.148)" fill="#454549"/>
          </g>
          <ellipse id="Ellipse_55" data-name="Ellipse 55" cx="9.5" cy="9" rx="9.5" ry="9" transform="translate(9.957 6.475)" fill="#353535"/>
        </g>
        <g id="Group_96" data-name="Group 96" transform="translate(0 6.309)">
          <path id="Path_183" data-name="Path 183" d="M97.755,62.542C90.53,54.061,77.425,43.957,56,43.9h-.221c-21.428.06-34.533,10.164-41.758,18.644A60.063,60.063,0,0,0,0,100.97c0,12.769,5.758,23.462,16.651,30.921,9.885,6.769,23.776,10.51,39.13,10.54h.21c15.355-.03,29.245-3.77,39.13-10.54,10.893-7.46,16.651-18.152,16.651-30.921A60.064,60.064,0,0,0,97.755,62.542Z" transform="translate(0 -43.897)" fill="#e0e0e0"/>
          <path id="Path_184" data-name="Path 184" d="M95.121,300.633c-9.885,6.944-23.776,10.782-39.13,10.812h-.21c-15.355-.031-29.245-3.868-39.13-10.812C6.818,293.725,1.171,284.115.165,272.674Q0,274.886,0,277.1c0,13.1,5.758,24.069,16.651,31.721,9.885,6.945,23.776,10.782,39.13,10.812h.21c15.355-.031,29.245-3.868,39.13-10.812,10.893-7.653,16.651-18.622,16.651-31.721q0-2.217-.165-4.43C110.6,284.115,104.954,293.725,95.121,300.633Z" transform="translate(0 -221.104)" fill="#c4c4c4"/>
        </g>
        <g id="panda-2" data-name="panda" transform="translate(24.267 30.494)">
          <g id="Group_97" data-name="Group 97" transform="translate(0 0)">
            <path id="Path_174" data-name="Path 174" d="M221.168,268.243c-3.448,0-9.867,0-9.867,5,0,1.874,1.535,3.774,4.832,5.979a41.492,41.492,0,0,0,4.234,2.457,1.813,1.813,0,0,0,1.6,0,41.465,41.465,0,0,0,4.234-2.458c3.3-2.2,4.832-4.1,4.832-5.979C231.035,268.243,224.616,268.243,221.168,268.243Z" transform="translate(-189.867 -244.79)" fill="#525256"/>
            <g id="Group_94" data-name="Group 94">
              <path id="Path_172" data-name="Path 172" d="M99.249,178.26a9.42,9.42,0,0,0-7.44-3.341,13.458,13.458,0,0,0-8.465,3,15.38,15.38,0,0,0-5.254,9.514c-.658,3.76.069,7.232,2,9.525a7.95,7.95,0,0,0,6.3,2.827c2.82,0,6.077-1.447,8.936-3.972a17.347,17.347,0,0,0,5.577-8.891A10.1,10.1,0,0,0,99.249,178.26Z" transform="translate(-77.853 -174.919)" fill="#525256"/>
              <path id="Path_177" data-name="Path 177" d="M95.321,220.8c-2.859,2.524-6.116,3.972-8.936,3.972a7.95,7.95,0,0,1-6.3-2.827,9.445,9.445,0,0,1-1.911-3.976c-.029.145-.059.289-.085.437-.658,3.76.069,7.232,2,9.525a7.95,7.95,0,0,0,6.3,2.827c2.82,0,6.077-1.448,8.936-3.972a17.347,17.347,0,0,0,5.577-8.891,11.434,11.434,0,0,0-.088-5.627A17.547,17.547,0,0,1,95.321,220.8Z" transform="translate(-77.854 -205.89)" fill="#454549"/>
            </g>
            <g id="Group_95" data-name="Group 95" transform="translate(41.573 0)">
              <path id="Path_176" data-name="Path 176" d="M307.952,187.432a15.381,15.381,0,0,0-5.254-9.514,13.458,13.458,0,0,0-8.465-3,9.421,9.421,0,0,0-7.44,3.341,10.1,10.1,0,0,0-1.647,8.662,17.346,17.346,0,0,0,5.577,8.891c2.859,2.524,6.116,3.972,8.936,3.972a7.95,7.95,0,0,0,6.3-2.827C307.882,194.664,308.61,191.193,307.952,187.432Z" transform="translate(-284.836 -174.919)" fill="#525256"/>
              <path id="Path_178" data-name="Path 178" d="M307.873,217.966a9.447,9.447,0,0,1-1.911,3.976,7.95,7.95,0,0,1-6.3,2.827c-2.82,0-6.077-1.447-8.936-3.972a17.545,17.545,0,0,1-5.489-8.532,11.432,11.432,0,0,0-.088,5.627,17.346,17.346,0,0,0,5.577,8.891c2.859,2.524,6.116,3.972,8.936,3.972a7.95,7.95,0,0,0,6.3-2.827c1.927-2.293,2.654-5.765,2-9.525C307.933,218.256,307.9,218.111,307.873,217.966Z" transform="translate(-284.843 -205.889)" fill="#454549"/>
            </g>
            <path id="Path_181" data-name="Path 181" d="M1.219,0A1.219,1.219,0,0,0,0,1.22V3.825a1.22,1.22,0,1,0,2.439,0V1.22A1.22,1.22,0,0,0,1.219,0Zm0,0" transform="translate(13.749 4.474) rotate(11)" fill="#fff"/>
            <path id="Path_182" data-name="Path 182" d="M1.22,0A1.22,1.22,0,0,0,0,1.22V3.826a1.22,1.22,0,0,0,2.44,0V1.22A1.22,1.22,0,0,0,1.22,0Zm0,0" transform="matrix(0.978, -0.208, 0.208, 0.978, 47.895, 5.465)" fill="#fff"/>
          </g>
        </g>
      </g>
      <path id="Path_120" data-name="Path 120" d="M48.133,112.958H62.71" transform="translate(101.467 46.612)" fill="none" stroke="#707070" stroke-linecap="round" stroke-width="2"/>
    </g>
    <g id="Group_1120" data-name="Group 1120" transform="translate(114.384 67.901)">
      <g id="Group_98-2" data-name="Group 98" transform="translate(101.055 82.591)">
        <g id="panda-3" data-name="panda" transform="translate(1.024)">
          <path id="Path_168-2" data-name="Path 168" d="M362.817,37.368c2.251-4.068,6.324-6.8,10.135-6.8a10.6,10.6,0,0,1,7.922,4.123,13.563,13.563,0,0,1,3.262,8.493,10.688,10.688,0,0,1-5.672,9.064,1.157,1.157,0,0,1-1.577-.4A34.261,34.261,0,0,0,363.3,38.956a1.157,1.157,0,0,1-.481-1.588Z" transform="translate(-315.248 -30.566)" fill="#525256"/>
          <ellipse id="Ellipse_56-2" data-name="Ellipse 56" cx="6" cy="5" rx="6" ry="5" transform="translate(49.538 5.508)" fill="#353535"/>
          <path id="Path_166-2" data-name="Path 166" d="M23.726,37.368c-2.251-4.068-6.323-6.8-10.135-6.8a10.6,10.6,0,0,0-7.922,4.123,13.563,13.563,0,0,0-3.262,8.493,10.688,10.688,0,0,0,5.672,9.064,1.157,1.157,0,0,0,1.577-.4A34.261,34.261,0,0,1,23.245,38.956a1.157,1.157,0,0,0,.481-1.588Z" transform="translate(-2.407 -30.566)" fill="#525256"/>
          <g id="Group_92-2" data-name="Group 92" transform="translate(59.486 1.633)">
            <path id="Path_169-2" data-name="Path 169" d="M440.935,57.558a10.688,10.688,0,0,0,5.672-9.064,13.278,13.278,0,0,0-2.4-7.346,12.713,12.713,0,0,1,2.774,2.49,13.562,13.562,0,0,1,3.262,8.493,10.688,10.688,0,0,1-5.672,9.064,1.157,1.157,0,0,1-1.577-.4,35.653,35.653,0,0,0-2.152-3.188C440.874,57.589,440.9,57.576,440.935,57.558Z" transform="translate(-440.843 -41.148)" fill="#454549"/>
          </g>
          <path id="Path_175-2" data-name="Path 175" d="M223.312,277.708a8.725,8.725,0,0,1-11.434,0,2.618,2.618,0,0,0-.577,1.729c0,1.2.979,2.407,3.082,3.814a26.472,26.472,0,0,0,2.7,1.567,1.156,1.156,0,0,0,1.022,0,26.458,26.458,0,0,0,2.7-1.568c2.1-1.406,3.082-2.618,3.082-3.814A2.62,2.62,0,0,0,223.312,277.708Z" transform="translate(-183.174 -241.871)" fill="#454549"/>
          <g id="Group_91-2" data-name="Group 91" transform="translate(0 1.633)">
            <path id="Path_167-2" data-name="Path 167" d="M11.717,57.558a10.688,10.688,0,0,1-5.672-9.064,13.278,13.278,0,0,1,2.4-7.346,12.712,12.712,0,0,0-2.774,2.49,13.563,13.563,0,0,0-3.262,8.493A10.688,10.688,0,0,0,8.079,61.2a1.157,1.157,0,0,0,1.577-.4A35.643,35.643,0,0,1,11.808,57.6C11.778,57.589,11.747,57.576,11.717,57.558Z" transform="translate(-2.407 -41.148)" fill="#454549"/>
          </g>
          <ellipse id="Ellipse_55-2" data-name="Ellipse 55" cx="6" cy="5.5" rx="6" ry="5.5" transform="translate(6.538 4.508)" fill="#353535"/>
        </g>
        <g id="Group_96-2" data-name="Group 96" transform="translate(0 4.024)">
          <path id="Path_183-2" data-name="Path 183" d="M62.354,55.79C57.746,50.381,49.386,43.936,35.718,43.9h-.141C21.909,43.936,13.55,50.381,8.941,55.79A38.312,38.312,0,0,0,0,80.3c0,8.145,3.673,14.965,10.621,19.724,6.305,4.318,15.166,6.7,24.96,6.723h.134c9.794-.019,18.654-2.4,24.96-6.723C67.623,95.267,71.3,88.447,71.3,80.3A38.313,38.313,0,0,0,62.354,55.79Z" transform="translate(0 -43.897)" fill="#e0e0e0"/>
          <path id="Path_184-2" data-name="Path 184" d="M60.674,290.508c-6.305,4.43-15.166,6.877-24.96,6.9H35.58c-9.794-.02-18.654-2.467-24.96-6.9A23.8,23.8,0,0,1,.105,272.674Q0,274.085,0,275.5a23.868,23.868,0,0,0,10.621,20.234c6.305,4.43,15.166,6.877,24.96,6.9h.134c9.794-.02,18.654-2.467,24.96-6.9A23.868,23.868,0,0,0,71.3,275.5q0-1.414-.105-2.826A23.8,23.8,0,0,1,60.674,290.508Z" transform="translate(0 -239.78)" fill="#c4c4c4"/>
        </g>
        <g id="panda-4" data-name="panda" transform="translate(15.479 19.451)">
          <g id="Group_97-2" data-name="Group 97" transform="translate(0 0)">
            <path id="Path_174-2" data-name="Path 174" d="M217.595,268.243c-2.2,0-6.294,0-6.294,3.19,0,1.2.979,2.407,3.082,3.814a26.462,26.462,0,0,0,2.7,1.567,1.156,1.156,0,0,0,1.022,0,26.444,26.444,0,0,0,2.7-1.568c2.1-1.406,3.082-2.618,3.082-3.814C223.888,268.243,219.794,268.243,217.595,268.243Z" transform="translate(-197.629 -253.283)" fill="#525256"/>
            <g id="Group_94-2" data-name="Group 94">
              <path id="Path_172-2" data-name="Path 172" d="M91.5,177.05a6.009,6.009,0,0,0-4.746-2.131,8.584,8.584,0,0,0-5.4,1.913A9.81,9.81,0,0,0,78,182.9a7.421,7.421,0,0,0,1.273,6.076,5.071,5.071,0,0,0,4.017,1.8,9.094,9.094,0,0,0,5.7-2.533,11.065,11.065,0,0,0,3.557-5.671A6.439,6.439,0,0,0,91.5,177.05Z" transform="translate(-77.853 -174.919)" fill="#525256"/>
              <path id="Path_177-2" data-name="Path 177" d="M89,217.708a9.1,9.1,0,0,1-5.7,2.533,5.071,5.071,0,0,1-4.017-1.8,6.025,6.025,0,0,1-1.219-2.536c-.018.093-.038.185-.054.278a7.421,7.421,0,0,0,1.273,6.076,5.071,5.071,0,0,0,4.017,1.8,9.094,9.094,0,0,0,5.7-2.533,11.065,11.065,0,0,0,3.557-5.671,7.294,7.294,0,0,0-.056-3.589A11.192,11.192,0,0,1,89,217.708Z" transform="translate(-77.854 -208.199)" fill="#454549"/>
            </g>
            <g id="Group_95-2" data-name="Group 95" transform="translate(26.518 0)">
              <path id="Path_176-2" data-name="Path 176" d="M299.581,182.9a9.811,9.811,0,0,0-3.352-6.068,8.584,8.584,0,0,0-5.4-1.913,6.009,6.009,0,0,0-4.746,2.131,6.439,6.439,0,0,0-1.051,5.525,11.064,11.064,0,0,0,3.557,5.671,9.1,9.1,0,0,0,5.7,2.533,5.071,5.071,0,0,0,4.017-1.8A7.422,7.422,0,0,0,299.581,182.9Z" transform="translate(-284.836 -174.919)" fill="#525256"/>
              <path id="Path_178-2" data-name="Path 178" d="M299.534,215.9a6.026,6.026,0,0,1-1.219,2.536,5.071,5.071,0,0,1-4.017,1.8,9.1,9.1,0,0,1-5.7-2.533,11.192,11.192,0,0,1-3.5-5.442,7.292,7.292,0,0,0-.056,3.589,11.064,11.064,0,0,0,3.557,5.671,9.1,9.1,0,0,0,5.7,2.533,5.071,5.071,0,0,0,4.017-1.8,7.422,7.422,0,0,0,1.273-6.076C299.572,216.086,299.552,215.994,299.534,215.9Z" transform="translate(-284.844 -208.198)" fill="#454549"/>
            </g>
            <path id="Path_181-2" data-name="Path 181" d="M.778,0A.778.778,0,0,0,0,.778V2.44a.778.778,0,1,0,1.556,0V.778A.778.778,0,0,0,.778,0Zm0,0" transform="translate(8.77 2.854) rotate(11)" fill="#fff"/>
            <path id="Path_182-2" data-name="Path 182" d="M.778,0A.778.778,0,0,0,0,.778V2.44a.778.778,0,0,0,1.556,0V.778A.778.778,0,0,0,.778,0Zm0,0" transform="matrix(0.978, -0.208, 0.208, 0.978, 30.551, 3.486)" fill="#fff"/>
          </g>
        </g>
      </g>
      <path id="Path_120-2" data-name="Path 120" d="M48.133,112.958h9.3" transform="translate(83.887 18.735)" fill="none" stroke="#707070" stroke-linecap="round" stroke-width="2"/>
    </g>
  </g>
</svg>
